<svg width="245" height="304" viewBox="0 0 245 304" fill="none" xmlns="http://www.w3.org/2000/svg">
<rect y="15" width="244.146" height="288.989" rx="12.4564" fill="white"/>
<path fill-rule="evenodd" clip-rule="evenodd" d="M121.907 206.851C118.041 207.097 116.021 209.334 115.845 213.38H119.744C119.793 211.978 120.558 210.931 121.983 210.776C123.382 210.624 124.709 210.965 125.111 211.942C125.545 212.998 124.571 214.225 124.107 214.74C123.249 215.695 121.856 216.392 121.134 217.422C120.426 218.432 120.3 219.76 120.246 221.386H123.683C123.731 220.346 123.799 219.351 124.261 218.705C125.014 217.655 126.138 217.163 127.08 216.334C127.98 215.542 128.927 214.587 129.087 213.108C129.57 208.685 126.037 206.588 121.907 206.851Z" fill="#217BF4"/>
<path d="M121.995 227.198C123.193 227.198 124.165 226.22 124.165 225.014C124.165 223.808 123.193 222.83 121.995 222.83C120.797 222.83 119.825 223.808 119.825 225.014C119.825 226.22 120.797 227.198 121.995 227.198Z" fill="#217BF4"/>
<g filter="url(#filter0_d_164_46)">
<circle cx="112.898" cy="122.939" r="69.3006" fill="white"/>
<circle cx="112.898" cy="122.939" r="68.591" stroke="#217BF4" stroke-opacity="0.6" stroke-width="1.41924"/>
</g>
<mask id="mask0_164_46" style="mask-type:alpha" maskUnits="userSpaceOnUse" x="43" y="34" width="157" height="175">
<path d="M43.5977 123.242C43.5977 84.9683 74.6246 34.992 112.898 34.992C205.155 32.3932 202.592 112.594 197.358 153.02H175.493C164.355 176.391 140.513 192.543 112.898 192.543C103.708 192.543 94.9358 190.754 86.9105 187.505C86.3656 187.285 85.8242 187.057 85.2863 186.823C83.4816 191.256 79.9805 201.53 80.4136 207.161C71.751 214.199 50.519 200.555 52.2554 156.809C46.7389 146.865 43.5977 135.42 43.5977 123.242Z" fill="#C4C4C4"/>
</mask>
<g mask="url(#mask0_164_46)">
<path d="M192.351 139.662C188.112 140.975 182.854 142.831 178.952 141.862C175.825 141.086 176.06 140.077 175.707 137.959C176.698 136.24 180.887 132.937 188.998 131.252C199.136 129.146 199.805 137.351 192.351 139.662Z" fill="#FEBE9D"/>
<path d="M146.255 108.707C145.007 105.608 141.573 105.091 140.012 105.221C128.642 109.87 135.553 143.383 138.229 147.839C140.904 152.294 144.026 154.038 147.147 155.394C150.268 156.75 156.511 155.975 158.072 155.006C159.633 154.038 160.079 153.069 161.862 152.875C163.646 152.682 166.544 152.1 167.659 150.938C168.774 149.776 169.666 148.613 172.341 148.613C175.017 148.613 177.246 146.676 178.138 145.514C179.03 144.352 179.699 144.158 181.259 143.771C182.82 143.383 184.381 143.383 184.827 141.446C185.273 139.509 185.496 135.634 185.273 133.697C185.05 131.76 185.05 131.76 183.935 131.954C182.82 132.148 179.922 133.697 179.03 133.697C178.138 133.697 176.577 133.504 175.017 134.085C173.456 134.666 168.328 136.797 164.984 137.765C161.639 138.734 156.734 138.928 157.18 137.572C157.626 136.216 159.187 132.341 156.065 132.341C152.944 132.341 152.944 130.21 151.606 125.755C150.268 121.299 147.816 112.582 146.255 108.707Z" fill="#217BF4"/>
<path d="M179.254 142.222C180.22 142.157 182.42 141.757 183.49 140.672M180.146 135.829C180.814 135.248 182.554 134.086 184.159 134.086L180.146 135.829ZM181.706 136.798L183.49 136.023L181.706 136.798ZM179.477 139.51C180.517 139.381 182.866 138.89 183.936 137.96L179.477 139.51Z" stroke="#2068D9" stroke-width="0.765635"/>
<path d="M179.859 144.172C179.451 142.627 179.045 140.215 179.476 138.347C179.03 139.702 177.737 142.879 176.132 144.739C174.125 147.064 171.672 146.87 171.226 144.933C170.78 142.996 168.105 144.158 167.213 146.483C166.322 148.807 164.315 151.713 160.97 151.907C157.838 152.088 156.27 152.779 155.351 153.185C155.289 153.212 155.23 153.238 155.173 153.263C154.282 153.65 154.505 152.1 155.397 151.132C156.288 150.163 157.403 147.645 157.18 146.289C156.065 148.42 153.836 151.326 150.269 152.294C146.701 153.263 144.695 150.938 147.37 148.807C150.045 146.676 152.052 144.739 152.721 142.996C152.974 142.337 152.621 142.563 151.917 143.016C150.757 143.762 148.643 145.122 146.701 144.158C143.58 142.608 144.026 138.153 146.478 137.378C147.262 137.13 148.433 137.061 149.692 136.986C152.374 136.826 155.458 136.643 156.065 134.666C154.728 135.441 146.924 136.603 146.701 131.76C146.478 126.917 146.032 123.624 144.917 120.912C144.547 120.011 144.374 118.833 144.193 117.603C143.829 115.131 143.435 112.455 141.35 111.42C140.755 111.124 138.294 111.237 134.932 111.833C131.469 123.171 136.14 144.361 138.229 147.839C140.904 152.294 144.026 154.038 147.147 155.394C150.268 156.75 156.511 155.975 158.072 155.007C158.582 154.69 158.973 154.373 159.331 154.084C160.067 153.487 160.662 153.006 161.862 152.875C163.646 152.682 166.544 152.101 167.659 150.938C167.739 150.855 167.818 150.772 167.897 150.688C168.911 149.615 169.858 148.614 172.341 148.614C175.017 148.614 177.246 146.677 178.138 145.514C178.706 144.774 179.184 144.427 179.859 144.172Z" fill="#1771EA"/>
<path d="M140.389 150.795C141.498 149.536 143.38 147.767 145.141 147.257C147.816 146.483 146.478 146.095 144.249 146.87C142.019 147.645 141.573 147.063 141.35 144.545C141.127 142.027 142.019 137.571 143.357 134.472C144.695 131.372 146.478 121.687 142.688 118.006C140.945 116.313 137.267 116.505 133.825 118.244C132.964 129.785 136.491 144.944 138.229 147.838C138.922 148.992 139.645 149.964 140.389 150.795Z" fill="#2068D9"/>
<path d="M177.692 142.415C179.654 140.091 179.401 135.894 179.03 134.086C179.624 135.635 180.457 139.277 179.03 141.447C177.246 144.159 177.246 142.997 177.692 142.415Z" fill="#3881F2"/>
<path d="M123.961 198.399C130.561 195.764 139.345 197.043 142.912 198.011C143.358 198.127 143.804 198.011 144.696 195.3C145.588 192.588 144.919 185.808 144.696 185.226C144.473 184.645 144.473 184.258 144.696 183.289C145.811 176.897 141.575 161.593 139.791 153.069C138.007 144.546 140.46 136.603 142.912 130.792C145.365 124.98 143.358 117.426 142.689 109.677C142.02 101.928 134.44 101.347 124.184 99.2159C113.928 97.0851 100.774 97.0851 94.9766 109.87C89.1797 122.656 94.5306 139.316 94.9766 148.808C95.4224 158.3 90.9635 166.436 88.0649 174.766C85.1665 183.096 85.8354 189.294 84.9434 194.719C84.2299 199.058 85.6866 200.918 86.5043 201.305C86.5786 202.274 86.7271 204.869 86.7271 207.504C86.7271 210.797 88.0649 212.54 91.4092 212.347C94.7535 212.153 100.105 210.216 104.787 207.116C109.469 204.017 115.712 201.692 123.961 198.399Z" fill="#217BF4"/>
<path d="M124.184 161.787C118.12 166.436 110.658 165.532 107.686 164.498C107.686 165.338 109.113 167.443 114.82 169.148C121.955 171.279 126.86 166.436 128.866 162.561C130.472 159.462 133.994 155.071 135.555 153.263C134.292 154.167 130.249 157.137 124.184 161.787Z" fill="#3881F2"/>
<path d="M142.912 198.011C139.345 197.043 130.561 195.764 123.961 198.399C123.056 198.76 122.174 199.11 121.316 199.45C114.36 202.212 108.955 204.357 104.787 207.116C100.105 210.216 94.7535 212.153 91.4092 212.347C88.0649 212.54 86.7271 210.797 86.7271 207.504C86.7271 204.869 86.5786 202.273 86.5043 201.305C85.6866 200.917 84.2299 199.058 84.9434 194.718C85.2295 192.979 85.355 191.16 85.4891 189.217C85.773 185.1 86.0958 180.425 88.0649 174.765C88.7354 172.838 89.4896 170.922 90.2471 168.996C92.7641 162.598 95.3193 156.103 94.9766 148.807C94.8583 146.291 94.3956 143.272 93.8869 139.954C92.4771 130.755 90.7163 119.267 94.9766 109.87C95.0498 109.709 95.1241 109.55 95.1995 109.393C103.964 102.256 112.656 99.2166 119.942 98.5012C121.392 98.6842 122.814 98.9311 124.184 99.2157C125.282 99.4438 126.349 99.6542 127.38 99.8574C131.373 100.644 134.829 101.326 137.446 102.521C137.895 102.962 138.234 103.414 138.453 103.864C141.575 110.257 135.109 117.618 129.981 121.299C124.853 124.979 125.968 126.529 131.765 124.979C136.903 123.605 136.085 124.058 129.778 127.551C128.97 127.999 128.071 128.497 127.082 129.047C118.387 133.89 128.197 131.952 135.332 130.402C142.466 128.853 141.129 132.533 139.568 134.083C138.914 134.732 138.182 135.109 137.536 135.442C136.639 135.905 135.907 136.282 135.778 137.183C135.555 138.732 133.994 140.476 131.987 141.251C131.829 141.312 131.668 141.373 131.504 141.435C129.6 142.157 127.423 142.984 126.191 145.125C124.853 147.45 121.509 147.836 117.495 147.643C113.482 147.449 108.131 148.999 113.036 153.067C117.941 157.135 124.853 154.229 128.42 152.679C120.171 161.59 108.354 155.004 106.124 151.904C103.895 148.805 102.78 147.836 99.8815 148.611C96.9832 149.386 96.0915 153.066 98.767 153.841C99.9524 154.184 101.182 154.033 102.183 153.91C103.442 153.755 104.341 153.645 104.341 154.616C104.341 156.091 100.826 158.678 97.7187 160.964C97.155 161.379 96.6047 161.784 96.0915 162.171C92.7469 164.689 96.5372 166.82 98.9898 167.595C101.442 168.37 100.774 169.338 96.7604 173.213C91.1863 178.832 101.888 184.061 111.698 178.056C119.547 173.252 126.413 172.826 128.866 173.213C126.042 173.924 119.19 176.468 114.374 180.962C110.315 184.75 104.938 185.808 100.157 186.748C97.8475 187.202 95.6771 187.629 93.8618 188.323C88.2877 190.454 91.1863 194.716 95.8684 194.909C98.3659 195.013 102.766 192.581 107.818 189.789C112.237 187.347 117.154 184.63 121.731 183.093C131.541 179.8 138.23 182.318 141.798 183.675C136.001 183.287 119.725 188.13 111.252 192.973C107.155 195.315 104.1 196.208 101.433 196.987C98.585 197.819 96.1788 198.521 93.4158 200.722C88.0649 204.984 95.1995 207.889 100.328 207.115C102.619 206.768 105.844 204.876 109.526 202.715C114.087 200.038 119.349 196.951 124.407 195.879C131.172 194.445 139.731 195.996 143.976 197.156C143.525 198.061 143.219 198.091 142.912 198.011Z" fill="#1771EA"/>
<path d="M94.6885 145.558C95.611 144.417 96.94 142.685 97.6524 141.447C98.767 139.51 99.4358 138.735 100.997 140.091C102.557 141.447 105.01 141.253 106.348 139.703C106.321 139.81 106.295 139.915 106.269 140.02C105.634 142.564 105.194 144.33 109.692 143.771C111.337 143.567 113.697 143.841 115.98 144.106C120.196 144.596 124.148 145.055 122.847 142.415C120.84 138.347 119.502 128.468 123.515 124.981C126.726 122.191 129.461 118.265 130.427 116.651C132.211 112.97 132.032 105.803 117.05 106.578C111.102 106.885 104.615 105.61 98.5455 104.379C97.1747 105.871 95.9681 107.683 94.9766 109.87C90.7163 119.266 92.4774 130.755 93.8872 139.954C94.1923 141.944 94.4809 143.827 94.6885 145.558Z" fill="#2068D9"/>
<path d="M134.217 190.843C138.855 190.998 139.866 188.067 139.791 186.582C139.791 185.419 141.129 185.419 140.46 190.456C139.791 195.493 131.765 192.78 124.853 193.362C117.941 193.943 108.131 198.399 105.679 199.754C117.719 190.649 128.42 190.649 134.217 190.843Z" fill="#3881F2"/>
<path d="M139.343 184.451C139.863 186.453 140.814 191.502 140.458 195.687M90.0693 202.467C90.0693 203.887 90.2032 207.309 90.7382 209.634L90.0693 202.467ZM95.4205 199.948C95.9405 201.692 96.9365 205.566 96.7582 207.116L95.4205 199.948ZM98.9877 198.011C99.3594 199.367 100.103 203.125 100.103 207.309L98.9877 198.011ZM103.447 198.399V203.435V198.399ZM107.014 195.687C107.46 196.849 108.218 199.716 107.683 201.885L107.014 195.687ZM110.581 193.556C110.953 194.847 111.696 197.934 111.696 199.948L110.581 193.556ZM115.041 192.393V197.43V192.393ZM119.277 189.875C119.648 191.554 120.169 195.532 119.277 198.011V189.875ZM122.398 188.906C122.918 190.004 123.87 192.781 123.513 195.105L122.398 188.906ZM127.749 187.938C127.749 189.617 127.749 193.13 127.749 193.749V187.938ZM130.648 186.388C130.871 187.938 131.316 191.696 131.316 194.33L130.648 186.388ZM136.667 188.713C136.742 190.262 136.757 193.711 136.222 195.105L136.667 188.713Z" stroke="#2068D9" stroke-width="0.765635"/>
<path d="M92.3013 198.981C106.868 192.201 137.651 179.299 143.358 184.258" stroke="#3881F2" stroke-width="0.765635"/>
<path d="M84.9434 194.718C84.2299 199.057 85.6866 200.917 86.5043 201.304C86.5396 201.766 86.5921 202.599 86.637 203.629C88.6738 201.95 93.1929 198.36 94.9766 197.43C91.6323 198.399 87.2158 200.336 86.637 196.074C86.0583 191.812 88.2877 187.357 89.6254 185.032C90.9635 182.707 92.5633 175.734 90.8717 167.404C89.9107 169.867 88.9199 172.308 88.0649 174.765C85.1665 183.095 85.8354 189.294 84.9434 194.718Z" fill="#2068D9"/>
<path d="M68.6628 204.46C68.9676 199.944 69.7427 194.451 72.0153 191.067C73.8366 188.355 74.6764 188.939 76.7389 189.354C77.958 190.911 80.0609 196.113 78.7198 204.46C77.0437 214.894 68.127 212.402 68.6628 204.46Z" fill="#FEBE9D"/>
<path d="M67.5519 198.012C67.9086 197.237 68.1464 196.139 68.2207 195.687C68.8896 190.65 68.2207 185.808 68.2207 177.478C68.2207 169.148 70.2276 160.431 72.011 157.331C73.7948 154.232 73.3488 151.52 74.2408 149.97C75.1325 148.42 77.808 146.677 76.9162 141.446C76.0242 136.216 79.1457 135.635 79.3688 129.048C79.5917 122.462 80.9294 114.132 85.1657 108.32C89.4018 102.509 105.009 98.6346 106.57 109.677C108.13 120.718 102.333 128.08 99.8807 132.923C97.4284 137.765 94.3069 148.226 93.8609 150.938C93.4149 153.65 91.4083 161.399 91.4083 164.692C91.4083 167.985 90.5166 173.991 89.1789 179.221C87.8412 184.451 84.9426 190.844 84.0508 191.425C83.1591 192.006 82.7131 192.394 82.7131 193.362C82.7131 194.331 82.2671 197.624 82.0443 198.786C81.8211 199.949 81.5983 200.336 80.9294 199.949C80.2605 199.561 79.1457 199.561 77.1391 199.561C75.1325 199.561 71.7882 199.949 69.7816 199.755C67.775 199.561 67.1062 198.98 67.5519 198.012Z" fill="#217BF4"/>
<path d="M76.2484 192.782C71.9677 193.712 69.7083 192.911 69.1138 192.395C70.3772 192.782 73.38 193.097 75.8024 192.395C77.809 191.813 80.6333 191.878 81.5993 192.201C80.559 192.201 78.0321 192.317 76.2484 192.782Z" fill="#3881F2"/>
<path d="M79.3703 193.168C79.1474 193.943 78.88 195.687 79.5934 196.462C80.3069 197.236 79.742 197.947 79.3703 198.205M71.5668 194.912C71.7154 195.493 71.8343 196.965 71.1211 198.205L71.5668 194.912ZM74.6883 193.556L74.4654 197.818L74.6883 193.556Z" stroke="#2068D9" stroke-width="0.765635"/>
<path d="M79.3821 199.599C79.9622 198.556 80.6229 196.939 80.4845 195.493C80.2613 193.168 77.1399 192.394 75.3564 192.781C77.5859 191.812 82.4911 189.682 83.8288 184.839C85.1665 179.996 84.7205 177.09 80.4845 176.703C79.5925 176.703 78.7008 176.509 81.8222 174.184C84.9434 171.86 89.8486 167.404 85.1665 164.692C80.4845 161.98 77.363 159.849 76.6942 156.943C78.9236 158.493 81.5991 160.237 82.7139 160.43C83.6783 160.598 83.6415 160.476 83.1814 158.936C83.1094 158.695 83.0272 158.42 82.9368 158.106C82.2679 155.781 80.7074 149.97 80.7074 148.226C81.3762 150.357 82.4911 153.65 85.3894 155.006C88.288 156.362 89.1797 152.682 88.7337 150.163C88.288 147.645 88.0648 145.708 90.9634 143.577C93.8617 141.446 98.5438 133.891 95.1995 130.598C91.8552 127.305 85.8354 121.299 86.0582 116.65C86.2317 113.036 85.8659 111.88 84.2276 109.724C84.5234 109.242 84.836 108.774 85.1665 108.32C88.1939 104.167 97.0287 101.003 102.394 103.566C102.895 103.875 103.392 104.189 103.884 104.506C105.257 105.63 106.236 107.311 106.57 109.677C107.87 118.87 104.069 125.511 101.345 130.272C100.797 131.23 100.292 132.112 99.8815 132.923C97.4292 137.765 94.3077 148.226 93.8617 150.938C93.7239 151.778 93.4361 153.1 93.1047 154.623C92.3658 158.021 91.4091 162.418 91.4091 164.692C91.4091 167.985 90.5174 173.991 89.1797 179.221C87.842 184.451 84.9434 190.844 84.0517 191.425C83.1599 192.006 82.7139 192.394 82.7139 193.362C82.7139 194.331 82.2679 197.624 82.0451 198.786C81.8222 199.949 81.5991 200.336 80.9302 199.949C80.5684 199.739 80.0758 199.643 79.3821 199.599Z" fill="#1771EA"/>
<path d="M96.171 142.569C95.0036 146.19 94.0884 149.561 93.8622 150.938C93.724 151.777 93.4365 153.099 93.1052 154.623C92.3663 158.02 91.4096 162.418 91.4096 164.691C91.4096 165.719 91.3229 167.012 91.1624 168.462C89.9806 166.093 88.0814 163.485 85.6127 162.949C81.7529 162.11 84.0741 162.143 85.7799 162.167C86.0448 162.17 86.2948 162.174 86.5047 162.174C88.0652 162.174 88.7341 161.399 86.9504 160.43C85.5237 159.655 83.3832 155.458 82.4912 153.456C83.4575 155.458 86.2815 159.461 89.849 159.461C90.9636 159.461 91.8556 158.493 91.1867 156.556C90.5924 154.834 92.4623 147.455 96.171 142.569Z" fill="#2068D9"/>
<path d="M107.943 96.1564L109.494 87.1464L120.54 89.4968C120.281 90.672 120.307 94.3152 120.927 98.7028C121.547 103.09 123.382 105.428 124.415 106.146L107.943 96.1564Z" fill="#FEBE9D"/>
<path d="M109.589 87.1461L120.41 89.4899C120.221 90.3681 120.187 92.6273 120.438 95.5453C112.714 94.6076 109.987 89.5552 109.589 87.1461Z" fill="#F2AD8A"/>
<path d="M103.441 126.495C103.035 123.795 104.862 123.216 106.486 122.444C107.478 121.974 108.696 121.359 109.125 120.162C111.976 121.303 114.826 121.59 119.277 121.004C119.48 123.734 119.927 130.043 120.089 133.438C120.292 137.681 121.713 144.431 117.044 142.117C112.374 139.803 110.953 139.61 108.719 140.188C106.486 140.767 104.862 140.188 104.659 136.524C104.456 132.859 103.847 127.266 103.441 126.495Z" fill="#8CB9FF"/>
<path d="M108.328 140.296C107.707 138.934 106.768 135.862 107.066 132.296C107.469 127.468 108.678 123.606 110.088 127.275C111.215 130.211 111.498 133.648 111.498 134.999C112.304 134.549 113.955 132.643 114.116 128.627C114.318 123.606 114.519 123.799 115.124 126.695C115.728 129.592 115.929 129.978 116.534 126.695C116.614 126.257 116.681 125.86 116.741 125.5C117.123 123.211 117.254 122.427 119.231 122.081C119.202 121.681 119.175 121.319 119.152 121.005C114.736 121.592 111.908 121.304 109.08 120.162C108.654 121.36 107.446 121.976 106.462 122.447C106.328 122.512 106.192 122.575 106.056 122.638C104.564 123.331 103.071 124.024 103.44 126.503C103.843 127.275 104.447 132.875 104.649 136.544C104.84 140.018 106.294 140.722 108.328 140.296Z" fill="#7EAEFA"/>
<path opacity="0.5" d="M103.837 128.26C104.601 126.621 105.939 124.363 107.276 123.98C109.295 123.403 109.699 123.017 110.305 122.44C110.91 121.862 111.516 122.247 111.718 123.017C111.92 123.787 112.526 123.017 113.131 122.248C113.737 121.477 114.949 122.055 115.15 122.633C115.223 122.839 115.475 122.701 115.908 122.466C116.58 122.099 117.688 121.496 119.231 121.577C119.216 121.371 119.202 121.179 119.189 121.002C114.762 121.587 111.928 121.301 109.093 120.162C108.666 121.357 107.455 121.97 106.469 122.44C106.334 122.505 106.198 122.567 106.062 122.63C104.566 123.321 103.07 124.013 103.44 126.483C103.56 126.711 103.697 127.362 103.837 128.26Z" fill="#70A2F2"/>
<path d="M118.155 92.4408C110.797 91.5104 104.913 85.0529 102.956 82.0804C99.0425 83.05 98.2598 82.4675 98.0641 79.7533C97.8684 77.0391 102.956 75.6821 103.934 71.2231C104.913 66.7641 108.239 58.4282 117.632 54.5507C127.024 50.6734 135.047 63.2749 135.242 67.1524C135.438 71.0297 134.854 80.2553 132.503 85.5699C130.015 91.1952 127.351 93.6042 118.155 92.4408Z" fill="#FEBE9D"/>
<path d="M103.331 81.6948C99.4397 82.6616 98.5256 82.687 98.331 79.9818C94.6345 80.7549 86.6578 83.5713 84.323 88.6529C81.4047 95.0044 84.323 96.0189 86.2686 96.9851C88.2142 97.951 87.2414 100.656 84.7123 101.042C82.1831 101.429 81.9885 99.4969 81.7939 98.3375C80.6265 103.554 84.7123 103.554 86.4632 102.781C85.2958 105.873 85.685 108.192 88.4088 108.964C91.1325 109.737 88.4088 112.636 88.4088 115.341C88.4088 118.045 91.3272 119.591 91.5218 121.523C91.7164 123.456 94.0509 124.422 96.3854 125.195C98.7202 125.967 97.7475 126.934 96.7747 128.672C95.8019 130.411 97.3582 131.764 97.5528 134.083C97.7475 136.401 99.3038 136.594 101.249 136.981C99.3038 133.696 100.471 132.537 101.639 131.571L101.675 131.541C102.826 130.588 103.775 129.803 103.39 127.127C103 124.422 104.751 123.842 106.308 123.069C107.864 122.296 110.004 121.137 108.448 117.659C106.891 114.181 111.755 111.863 112.923 108.385C114.09 104.907 111.366 100.656 110.199 99.1103C109.032 97.5645 107.864 95.2461 107.475 94.2799C107.086 93.3139 107.475 93.3139 107.67 93.5071C108.642 94.4733 108.837 93.7002 109.032 92.7343C109.187 91.9612 109.356 89.6913 109.421 88.6529C106.454 86.4991 104.395 83.3158 103.331 81.6948Z" fill="#2B2B39"/>
<path d="M120.204 95.0528V92.5534C125.04 92.903 127.802 91.9951 129.776 90.0292C133.79 94.8597 130.236 99.1105 129.652 100.077C128.485 98.5308 126.151 97.9511 125.567 97.9511C124.983 97.9511 124.4 98.1443 123.816 97.1783C123.232 96.2121 123.038 95.0528 121.87 94.28C120.936 93.6616 120.37 94.5378 120.204 95.0528Z" fill="#2B2B39"/>
<path d="M98.061 90.5719C99.238 91.4527 101.26 93.9319 99.9303 96.8013" stroke="#151523" stroke-width="0.567695"/>
<path d="M103.33 92.7521C105.843 94.7304 110.284 99.6443 107.938 103.473C105.006 108.26 104.377 109.983 104.377 113.62" stroke="#151523" stroke-width="0.567695"/>
<path d="M98.3877 116.424C99.7297 115.848 101.971 113.468 100.2 108.554C98.4278 103.64 100.669 100.748 102.011 99.9164" stroke="#151523" stroke-width="0.567695"/>
<path d="M91.6353 101.785C90.0188 103.379 87.7557 106.912 91.6353 108.29C96.4848 110.012 97.6488 111.734 96.097 115.178" stroke="#151523" stroke-width="0.567695"/>
<path d="M90.8101 111.44C91.3075 112.035 92.0034 113.739 90.8101 115.801" stroke="#151523" stroke-width="0.567695"/>
<path d="M88.2859 90.3047C87.617 90.9505 86.7253 92.7068 88.5088 94.5665C90.7385 96.8912 90.5156 98.2472 89.4008 99.7968" stroke="#151523" stroke-width="0.567695"/>
<path opacity="0.5" d="M92.7785 82.2971C91.9037 83.4971 91.0399 84.8447 90.3683 86.1991C89.7316 87.4826 89.2627 88.7817 89.1249 89.9722C88.987 91.1624 89.1783 92.2643 89.8898 93.1298C90.0592 93.3356 90.2248 93.5348 90.3855 93.7279C91.0258 94.4973 91.5885 95.1739 91.9938 95.8162C92.498 96.6153 92.7372 97.3309 92.5833 98.0677C92.4282 98.8075 91.8684 99.6075 90.6733 100.556C89.8245 101.23 88.665 101.972 87.1262 102.813C87.044 103.008 86.9689 103.201 86.9014 103.39C88.6845 102.439 90.0152 101.604 90.9741 100.842C92.204 99.8661 92.8423 98.9952 93.022 98.1369C93.2022 97.2755 92.9121 96.4658 92.385 95.63C91.965 94.9643 91.3806 94.2623 90.7386 93.4906L90.7383 93.4903C90.5795 93.2995 90.4171 93.1044 90.2527 92.9046C89.6265 92.1431 89.437 91.1477 89.5686 90.0109C89.7002 88.8746 90.1508 87.6163 90.7778 86.3524C91.5396 84.8167 92.5545 83.2858 93.5488 81.9755C93.2917 82.0791 93.0347 82.1865 92.7785 82.2971Z" fill="#1C1C2A"/>
<path opacity="0.5" d="M104.764 83.9813C104.378 85.2974 104.084 87.0748 104.194 88.9761C104.336 91.4163 105.145 94.0736 107.295 96.2147C109.921 98.829 110.848 100.676 110.848 102.272C110.848 103.875 109.916 105.282 108.641 107.04C107.357 108.81 106.601 110.553 106.702 112.653C106.789 114.481 107.525 116.557 109.083 119.135C109.004 118.692 108.85 118.199 108.604 117.648C108.523 117.465 108.459 117.286 108.411 117.11C107.563 115.392 107.154 113.937 107.092 112.634C106.997 110.653 107.704 108.995 108.957 107.268C110.219 105.528 111.238 104.02 111.238 102.272C111.238 100.515 110.214 98.5721 107.571 95.9399C105.506 93.8833 104.722 91.3262 104.584 88.9536C104.483 87.2166 104.729 85.5855 105.069 84.337C104.964 84.2169 104.862 84.0985 104.764 83.9813Z" fill="#1C1C2A"/>
<path opacity="0.5" d="M100.879 136.98C100.493 136.524 100.127 135.991 99.841 135.397C99.2072 134.08 98.9742 132.475 99.8021 130.751C100.778 128.718 100.421 126.909 100.092 125.243C100.048 125.021 100.004 124.801 99.9645 124.584C99.7944 123.653 99.6908 122.767 99.8721 121.879C100.052 120.997 100.517 120.096 101.517 119.148C102.578 118.142 102.976 117.1 103.056 116.019C103.122 115.113 102.964 114.177 102.804 113.231C102.776 113.066 102.748 112.9 102.721 112.734C102.539 111.608 102.404 110.453 102.644 109.234C102.883 108.021 103.497 106.73 104.84 105.345L104.845 105.34L104.85 105.333C105.782 104.2 105.924 102.668 105.422 101.118C104.933 99.6101 103.832 98.0679 102.221 96.8038C102.683 95.9028 102.997 93.7502 101.356 90.9271C100.288 89.0894 99.6235 87.4705 99.5527 85.9145C99.501 84.7829 99.7625 83.6712 100.432 82.5208C100.281 82.5138 100.14 82.498 100.011 82.4731C99.3696 83.6293 99.1095 84.7661 99.1629 85.9321C99.238 87.5825 99.9399 89.2669 101.018 91.1217C102.679 93.9794 102.226 96.0417 101.824 96.7161C100.601 97.5339 98.9118 99.0974 97.7528 101.175C96.6365 103.176 96.0084 105.663 96.7769 108.417C96.712 108.389 96.6453 108.361 96.5775 108.334C93.9696 107.276 93.0801 106.057 92.9908 104.904C92.8996 103.723 93.6323 102.513 94.5085 101.447C95.392 100.371 96.5354 98.742 97.0097 96.9522C97.4873 95.1494 97.2856 93.1765 95.4672 91.4661C94.1173 90.1965 93.7679 88.5614 93.8885 87.0121C94.0094 85.4587 94.6023 84.0104 95.1107 83.1562L94.7749 82.9578C94.2424 83.8527 93.6258 85.3579 93.4993 86.982C93.3727 88.6099 93.7388 90.3752 95.1991 91.7487C96.893 93.342 97.0814 95.158 96.6323 96.8532C96.1795 98.5613 95.0791 100.138 94.2063 101.201C93.3264 102.272 92.498 103.588 92.6019 104.934C92.7078 106.306 93.7696 107.614 96.4303 108.694C96.6348 108.777 96.8255 108.862 97.0029 108.949C97.9641 109.421 98.5265 109.947 98.8202 110.488C99.1123 111.026 99.1507 111.602 99.0199 112.2C98.7539 113.416 97.802 114.683 96.9351 115.798L96.8255 115.939C96.6586 116.153 96.497 116.361 96.3479 116.559C95.4562 117.743 95.039 118.757 95.0649 119.789C95.0842 120.558 95.3485 121.316 95.8095 122.141C95.1774 121.661 94.5433 121.131 94.023 120.527C93.2812 119.666 92.7835 118.668 92.8502 117.464C92.8815 116.896 93.0386 116.275 93.3629 115.593C93.8049 114.664 94.1184 113.831 94.245 113.101C94.3715 112.369 94.313 111.722 93.9882 111.183C93.6634 110.644 93.0917 110.245 92.2604 109.969C91.5492 109.733 90.6354 109.582 89.4932 109.513C89.5796 109.636 89.6381 109.77 89.6737 109.915C90.6987 109.988 91.5099 110.13 92.137 110.338C92.9154 110.596 93.3928 110.95 93.6535 111.383C93.9139 111.815 93.9775 112.358 93.8603 113.035C93.7428 113.714 93.4465 114.509 93.0103 115.426C92.6705 116.141 92.4983 116.805 92.4615 117.424C92.2567 118.27 91.9523 119.624 91.698 120.963C91.6687 121.118 91.6399 121.272 91.6119 121.426C91.6175 121.462 91.6221 121.498 91.6254 121.534C91.6548 121.825 91.7322 122.094 91.8506 122.344C91.9181 121.924 91.9966 121.482 92.0813 121.035C92.2381 120.21 92.4141 119.379 92.5737 118.666C92.7714 119.467 93.1976 120.166 93.7269 120.78C94.5065 121.686 95.5228 122.424 96.3891 123.051L96.6662 122.786C95.892 121.629 95.4779 120.696 95.455 119.78C95.4321 118.869 95.7954 117.94 96.66 116.792C96.7227 116.709 96.7877 116.624 96.8546 116.537C96.8306 117.211 96.8501 118.089 96.9639 119.023C97.1181 120.29 97.4481 121.676 98.0907 122.796C98.6666 123.799 98.4392 124.985 97.8715 126.1C97.8709 126.101 97.8703 126.102 97.8695 126.103C97.9828 126.334 97.9729 126.587 97.8839 126.869C98.0034 126.676 98.1164 126.478 98.2195 126.275C98.8095 125.117 99.1027 123.776 98.4296 122.603C97.8234 121.547 97.5026 120.218 97.3512 118.976C97.2043 117.77 97.219 116.661 97.2783 115.991C98.1243 114.902 99.1168 113.583 99.4013 112.283C99.5473 111.615 99.5092 110.94 99.1634 110.303C98.8279 109.685 98.2141 109.124 97.2501 108.638C96.3699 105.875 96.9713 103.377 98.094 101.364C99.1931 99.3936 100.788 97.897 101.96 97.0939C103.531 98.3211 104.587 99.8087 105.05 101.238C105.523 102.697 105.374 104.077 104.554 105.081C103.168 106.512 102.516 107.867 102.261 109.16C102.007 110.449 102.152 111.662 102.336 112.796C102.364 112.967 102.392 113.137 102.421 113.304C102.581 114.253 102.729 115.135 102.666 115.99C102.594 116.98 102.235 117.93 101.248 118.867C100.198 119.862 99.6877 120.832 99.4897 121.802C99.2928 122.766 99.4089 123.713 99.5803 124.653C99.6213 124.877 99.6651 125.101 99.7091 125.324C100.037 126.994 100.367 128.674 99.4501 130.583C98.5609 132.435 98.8154 134.165 99.4891 135.565C99.7142 136.033 99.9865 136.466 100.279 136.854C100.473 136.898 100.673 136.939 100.879 136.98Z" fill="#1C1C2A"/>
<path d="M84.5513 88.7473C86.4819 87.4182 88.5297 86.4208 89.0398 87.5432C90.0092 89.6757 91.9477 88.3189 92.5293 86.7678C93.1109 85.217 93.3047 85.6047 94.2741 87.9309C94.689 88.9269 94.9619 88.4306 95.3361 87.7499C95.8358 86.8406 96.5162 85.6027 97.9573 87.1549C99.1719 88.4629 100.297 87.1596 101.353 85.935C102.488 84.6189 103.544 83.3943 104.549 85.6041C105.202 87.0409 105.679 88.5877 106.128 90.0443C106.568 91.4707 106.981 92.8108 107.507 93.8769C107.402 93.3656 107.687 93.3953 107.844 93.5527C108.814 94.5218 109.007 93.7464 109.201 92.777C109.357 92.0016 109.525 89.7239 109.589 88.6821C106.632 86.521 104.39 83.3213 103.33 81.6948C99.4524 82.6648 98.733 82.696 98.5389 79.9818C94.8556 80.7575 86.9073 83.5834 84.5809 88.6821C84.571 88.7037 84.5612 88.7256 84.5513 88.7473Z" fill="#1C1C2A"/>
<path d="M107.45 94.3029C107.06 93.3338 107.45 93.3338 107.644 93.5275C108.085 93.966 108.366 94.0474 108.56 93.9152C109.877 95.2073 112.901 98.1016 114.459 99.3418C116.016 100.582 120.04 101.926 121.857 102.443C121.199 101.086 119.945 97.7139 120.189 95.078C120.355 94.5612 120.922 93.6825 121.857 94.3029C123.025 95.078 123.22 96.2408 123.804 97.2099C124.388 98.179 124.972 97.9853 125.556 97.9853C126.14 97.9853 128.476 98.5667 129.644 100.117C129.969 100.376 130.89 100.97 131.981 101.28C133.343 101.668 135.096 103.606 134.511 105.544C133.928 107.482 131.591 109.42 130.423 111.552C129.255 113.684 127.503 120.08 121.467 121.243C120.416 121.445 119.447 121.609 118.547 121.733C114.279 122.322 111.546 122.034 108.812 120.887C109.075 120.119 109.03 119.113 108.423 117.754C106.866 114.265 111.733 111.94 112.901 108.451C114.069 104.962 111.344 100.699 110.175 99.1481C109.007 97.5976 107.839 95.2717 107.45 94.3029Z" fill="#8CB9FF"/>
<path d="M116.178 100.226C117.283 101.796 119.437 103.989 122.119 104.248C126.102 104.635 126.671 100.967 126.292 99.2291C124.584 100.581 121.549 101.739 121.739 99.0362C121.766 98.6598 121.795 98.3021 121.824 97.9618C121.959 96.3553 122.062 95.1307 121.596 94.1238C120.77 93.6858 120.268 94.4956 120.114 94.9829C119.876 97.6081 121.098 100.967 121.739 102.319C120.443 101.942 117.993 101.123 116.178 100.226Z" fill="#7EAEFA"/>
<path d="M114.489 121.28C113.924 121.131 113.369 120.954 112.813 120.751C113.114 119.983 113.062 118.978 112.367 117.619C111.275 115.484 112.942 113.784 114.706 111.986C115.822 110.849 116.977 109.672 117.495 108.321C118.445 105.844 117.146 102.976 115.834 100.967C117.501 101.917 120.081 103.308 121.954 104.059C124.853 105.221 124.184 107.352 120.394 105.415C118.833 104.64 118.833 107.159 121.954 108.515C125.076 109.871 130.873 109.677 132.879 105.028C134.886 100.379 137.338 100.96 135.778 105.415C134.217 109.871 131.095 114.713 128.643 116.263C127.455 117.014 125.744 117.219 123.991 117.429C122.125 117.653 120.212 117.883 118.833 118.782C116.781 120.119 116.204 121.207 116.16 121.636C115.809 121.578 115.465 121.512 115.126 121.435L114.489 121.28Z" fill="#7EAEFA"/>
<path opacity="0.5" d="M108.784 120.162C108.875 119.479 108.74 118.637 108.255 117.581C107.278 115.453 108.77 113.758 110.349 111.966C111.347 110.832 112.38 109.659 112.844 108.312C112.913 108.111 112.969 107.908 113.013 107.703L115.238 109.857C116.635 111.209 121.423 111.401 123.817 110.822C122.221 111.788 120.226 111.98 116.435 111.401C112.644 110.822 111.448 112.559 113.642 113.718C115.837 114.877 122.221 113.139 124.416 111.594C122.429 114.916 118.643 115.389 115.872 115.736C115.582 115.772 115.303 115.807 115.039 115.843C114.065 115.978 112.995 115.878 112.039 115.788C110.251 115.622 108.863 115.492 109.253 117.002C109.683 118.667 109.18 119.729 108.784 120.162Z" fill="#70A2F2"/>
<path d="M111.022 62.2282C112.255 57.7308 116.034 57.6405 117.769 58.1575C118.733 58.3425 117.962 56.0253 121.239 55.6376C124.516 55.2499 126.637 57.3824 127.601 58.9332C128.565 60.484 129.336 62.0348 130.878 63.3916C131.649 65.7178 134.156 68.2379 134.734 68.8193C134.734 69.401 134.957 73.254 134.957 74.9985C138.234 72.4786 136.854 70.1764 137.626 68.0439C138.243 66.3381 137.754 65.2654 137.433 64.9424C137.497 64.0376 137.549 61.9571 137.24 60.8717C136.854 59.5146 135.505 59.3209 134.927 59.3209C135.312 58.3515 134.927 57.3824 134.348 56.9944C133.77 56.6067 133.192 55.6376 132.42 54.0868C131.649 52.536 128.565 50.016 127.215 49.4344C125.866 48.8528 125.866 47.8836 125.48 47.4959C120.468 43.0374 116.034 44.9758 115.07 45.3636C114.106 45.7513 113.528 45.3636 113.142 45.1698C105.624 40.5174 100.804 47.1083 99.4546 49.0468C91.3576 52.5361 88.4658 56.9947 89.0443 63.1979C89.6225 69.401 87.8876 71.7272 86.538 73.0843C85.1885 74.4411 85.574 75.7982 86.7307 77.349C88.8514 80.4505 85.1885 80.8382 83.8392 81.6136C82.4896 82.389 83.4536 84.5212 82.8751 85.4906C82.2967 86.4597 82.4896 88.3982 84.0318 89.949C86.3451 85.4906 92.8999 83.5521 96.5628 82.7767C100.226 82.0013 103.696 76.7673 106.395 74.4411C109.094 72.1149 109.479 67.8499 111.022 62.2282Z" fill="#2B2B39"/>
<path opacity="0.5" d="M105.955 74.8704C106.253 70.1686 107.15 64.561 109.015 60.3171C110.162 57.7066 111.664 55.6402 113.592 54.6016C115.481 53.5842 117.815 53.5337 120.706 54.9996C120.669 55.2903 120.594 55.5658 120.493 55.823C120.632 55.7843 120.781 55.7499 120.941 55.7208C121.023 55.4636 121.081 55.191 121.106 54.905C121.192 53.931 120.895 52.8239 119.93 51.6649C118.892 50.4189 117.825 49.4632 116.876 48.6127C116.585 48.352 116.305 48.1011 116.04 47.8549C115.227 47.0987 114.556 46.3844 114.115 45.5481C113.927 45.5236 113.763 45.4706 113.617 45.4095C113.94 46.1338 114.414 46.7579 114.982 47.3581C114.058 46.9843 112.909 46.6427 111.673 46.4773C109.221 46.1488 106.393 46.5127 104.34 48.7525C102.188 51.1013 100.386 54.4667 98.9306 57.9367C97.4737 61.4095 96.3577 65.0016 95.5821 67.8145C94.8127 70.6043 93.5153 73.4368 91.7915 75.64C90.5089 77.2794 88.9986 78.5603 87.3021 79.2251C87.2781 79.3966 87.2247 79.5525 87.1473 79.6957C89.0502 79.0346 90.7151 77.6446 92.0966 75.8787C93.8585 73.6267 95.1753 70.7451 95.9552 67.9175C96.7286 65.1133 97.8398 61.5383 99.2877 58.0865C100.737 54.6313 102.518 51.3142 104.626 49.0142C106.313 47.1727 108.567 46.6622 110.7 46.7747C108.629 47.5713 105.128 49.6499 102.577 53.6212C100.765 56.443 99.7006 60.5487 98.6425 64.63L98.5586 64.9539C97.4667 69.1632 96.3603 73.3106 94.4475 76.0851C92.9259 78.2921 90.7992 79.6434 88.7517 80.4356C87.0199 81.1056 85.3523 81.3723 84.1716 81.42C84.0208 81.4846 83.8824 81.5502 83.7623 81.6189C83.6903 81.6601 83.6248 81.7052 83.5652 81.7537L83.5635 81.8123C84.7829 81.8452 86.7934 81.6088 88.8912 80.797C90.991 79.9846 93.1894 78.592 94.7661 76.3051C96.7261 73.4625 97.8468 69.2397 98.9335 65.0512L99.0072 64.7669C100.074 60.6529 101.125 56.5992 102.903 53.8305C105.797 49.3246 109.937 47.3169 111.659 46.8663C112.937 47.0414 114.119 47.4102 115.037 47.8001C112.695 47.9376 108.873 49.2121 107.206 53.6579C106.637 55.1763 105.872 57.6624 104.974 60.5842L104.906 60.8056C103.977 63.8263 102.907 67.298 101.758 70.6606C100.609 74.0237 99.3834 77.2716 98.1448 79.8458C97.6022 80.9737 97.0588 81.9687 96.5201 82.786C96.5278 82.7843 96.5354 82.7825 96.5433 82.7811C96.7207 82.7436 96.8978 82.6959 97.0743 82.6385C97.5491 81.8772 98.0234 80.9918 98.494 80.0138C99.7424 77.4188 100.974 74.1536 102.124 70.7858C103.275 67.4169 104.347 63.9398 105.276 60.9196L105.34 60.7118C106.242 57.7788 107.004 55.301 107.569 53.7938C109.367 48.9967 113.782 48.0577 115.826 48.1852C116.085 48.4243 116.354 48.6651 116.63 48.913C117.576 49.7607 118.614 50.6908 119.632 51.9129C120.44 52.8825 120.731 53.7872 120.733 54.5799C117.822 53.146 115.4 53.1879 113.409 54.2606C111.37 55.3588 109.822 57.5175 108.66 60.161C106.714 64.5896 105.815 70.4579 105.542 75.2696C105.681 75.1313 105.819 74.998 105.955 74.8704Z" fill="#1C1C2A"/>
<path opacity="0.5" d="M87.0243 77.9536C89.2617 77.1352 90.574 75.1511 91.4487 72.7253C91.9865 71.2337 92.3639 69.5634 92.691 67.872C92.8212 67.1991 92.9432 66.5248 93.0641 65.8565C93.2483 64.8383 93.4299 63.8343 93.6344 62.8695C94.5914 58.3566 97.4468 52.4234 99.2034 49.1826C99.0073 49.2682 98.8147 49.3543 98.6249 49.4411C96.8508 52.7729 94.1815 58.423 93.2556 62.7893C93.0503 63.7572 92.8664 64.7739 92.6811 65.7982C92.5602 66.4656 92.439 67.1362 92.3108 67.7984C91.9846 69.4849 91.6114 71.1315 91.0844 72.594C90.2206 74.9895 88.9566 76.8584 86.8325 77.6104C86.9051 77.729 86.969 77.8434 87.0243 77.9536Z" fill="#1C1C2A"/>
<path d="M134.751 69.3398C135.032 69.3623 135.315 69.377 135.597 69.3851C136.168 69.4016 136.739 69.3906 137.288 69.3617C137.303 69.2307 137.321 69.1005 137.342 68.9711C136.781 69.0023 136.193 69.015 135.608 68.9983C135.315 68.9899 135.023 68.974 134.737 68.9501C134.739 69.0491 134.744 69.181 134.751 69.3398Z" fill="#3A0A44"/>
<path d="M131.038 63.8225C133.533 65.0707 135.977 65.3556 137.591 65.2941C137.519 65.1556 137.442 65.0508 137.373 64.9809L137.375 64.9532L137.378 64.9131C135.696 64.9446 133.162 64.5909 130.635 63.1709C130.714 63.2451 130.794 63.3187 130.877 63.3915C130.925 63.5346 130.979 63.6784 131.038 63.8225Z" fill="#3A0A44"/>
<path opacity="0.5" d="M117.825 49.7556C118.693 48.7568 121.39 47.2812 125.818 48.1789C125.889 48.3227 125.971 48.4763 126.08 48.6307C121.553 47.6062 118.892 49.1153 118.114 50.0105L117.825 49.7556Z" fill="#1C1C2A"/>
<path opacity="0.5" d="M133.493 59.3771C133.98 59.4687 134.471 59.4002 134.962 59.0977C134.939 59.1872 134.91 59.2775 134.874 59.3676C134.972 59.3676 135.091 59.3731 135.224 59.389C134.64 59.7689 134.034 59.8725 133.422 59.7576C132.562 59.596 131.724 59.0071 130.946 58.2487C129.735 57.066 128.61 55.4058 127.724 54.0978C127.473 53.7282 127.242 53.387 127.033 53.0926C126.327 52.0971 125.141 51.8982 123.881 52.0923C122.624 52.2858 121.351 52.8642 120.564 53.3397L120.367 53.0077C121.181 52.5152 122.502 51.9129 123.823 51.7096C125.139 51.5069 126.515 51.6952 127.346 52.8677C127.564 53.1748 127.802 53.5256 128.057 53.902C128.942 55.2074 130.034 56.8189 131.214 57.9704C131.974 58.712 132.744 59.2363 133.493 59.3771Z" fill="#1C1C2A"/>
<path d="M120.767 50.3727C121.926 49.4621 124.823 48.3824 127.14 51.3483C129.458 54.3145 131.711 56.227 132.548 56.8125M123.471 54.2758C125.209 54.7311 128.956 56.266 130.037 58.7636C131.389 61.8857 133.9 63.8372 135.831 63.6421M134.286 65.5932C134.608 66.1137 135.522 66.9983 136.604 66.3738M119.802 46.4704C120.639 46.3403 122.544 46.1972 123.471 46.6655" stroke="#151523" stroke-width="0.567695"/>
<path d="M116.178 50.2889C113.613 50.2243 107.945 52.1503 105.79 60.3711M105.213 53.5851C103.739 56.364 100.52 63.0856 99.4427 67.7388C98.0959 73.5554 97.1341 80.9234 87.5161 82.4745M89.4399 72.5861C90.3376 71.1643 92.0174 67.4675 91.5558 64.055C90.9788 59.7894 91.7482 55.7179 95.2106 53.3911M110.984 45.4416C107.586 45.1831 100.404 46.3723 98.8656 53.1971C97.3265 60.0221 93.9923 68.7082 92.5176 72.1981" stroke="#151523" stroke-width="0.567695"/>
</g>
<path d="M41.1061 241.084H204.285C207.381 241.084 209.891 243.594 209.891 246.69V271.602C209.891 274.698 207.381 277.208 204.285 277.208H41.1061C38.0104 277.208 35.5008 274.698 35.5008 271.602V246.69C35.5008 243.594 38.0104 241.084 41.1061 241.084Z" fill="white" stroke="black" stroke-width="1.24564"/>
<path d="M51.7292 253.765V255.454H48.9489V264.198H46.8563V255.454H44.076V253.765H51.7292ZM61.1784 255.917L56.0513 268.115H53.8241L55.6178 263.989L52.2994 255.917H54.6462L56.7838 261.702L58.9512 255.917H61.1784ZM64.3991 257.113C64.6682 256.734 65.0369 256.42 65.5053 256.171C65.9836 255.912 66.5267 255.783 67.1346 255.783C67.8421 255.783 68.4799 255.957 69.0479 256.306C69.6259 256.655 70.0793 257.153 70.4081 257.801C70.7469 258.438 70.9164 259.181 70.9164 260.028C70.9164 260.875 70.7469 261.627 70.4081 262.285C70.0793 262.933 69.6259 263.436 69.0479 263.795C68.4799 264.153 67.8421 264.333 67.1346 264.333C66.5267 264.333 65.9886 264.208 65.5202 263.959C65.0618 263.71 64.6881 263.396 64.3991 263.017V268.144H62.3065V255.917H64.3991V257.113ZM68.7788 260.028C68.7788 259.53 68.6742 259.101 68.4649 258.742C68.2656 258.374 67.9966 258.095 67.6578 257.905C67.3289 257.716 66.9702 257.621 66.5815 257.621C66.2028 257.621 65.8441 257.721 65.5053 257.92C65.1764 258.11 64.9074 258.389 64.6981 258.757C64.4988 259.126 64.3991 259.559 64.3991 260.058C64.3991 260.556 64.4988 260.989 64.6981 261.358C64.9074 261.727 65.1764 262.011 65.5053 262.21C65.8441 262.4 66.2028 262.494 66.5815 262.494C66.9702 262.494 67.3289 262.395 67.6578 262.195C67.9966 261.996 68.2656 261.712 68.4649 261.343C68.6742 260.975 68.7788 260.536 68.7788 260.028ZM80.1351 259.878C80.1351 260.177 80.1152 260.446 80.0753 260.686H74.0215C74.0713 261.283 74.2806 261.752 74.6493 262.091C75.018 262.429 75.4714 262.599 76.0096 262.599C76.7868 262.599 77.3399 262.265 77.6687 261.597H79.9259C79.6867 262.395 79.2283 263.052 78.5507 263.57C77.873 264.079 77.0409 264.333 76.0544 264.333C75.2572 264.333 74.5397 264.158 73.9019 263.81C73.2741 263.451 72.7808 262.948 72.4221 262.3C72.0733 261.652 71.8989 260.905 71.8989 260.058C71.8989 259.201 72.0733 258.448 72.4221 257.801C72.7709 257.153 73.2592 256.655 73.887 256.306C74.5148 255.957 75.2373 255.783 76.0544 255.783C76.8416 255.783 77.5442 255.952 78.162 256.291C78.7898 256.63 79.2731 257.113 79.6119 257.741C79.9607 258.359 80.1351 259.071 80.1351 259.878ZM77.9677 259.28C77.9577 258.742 77.7634 258.314 77.3847 257.995C77.0061 257.666 76.5427 257.502 75.9946 257.502C75.4764 257.502 75.0379 257.661 74.6792 257.98C74.3304 258.289 74.1162 258.722 74.0365 259.28H77.9677ZM94.1481 264.198H92.0555L87.317 257.038V264.198H85.2243V253.75H87.317L92.0555 260.925V253.75H94.1481V264.198ZM95.6781 260.028C95.6781 259.191 95.8425 258.448 96.1713 257.801C96.5101 257.153 96.9636 256.655 97.5316 256.306C98.1095 255.957 98.7523 255.783 99.4598 255.783C100.078 255.783 100.616 255.907 101.074 256.156C101.543 256.406 101.916 256.719 102.195 257.098V255.917H104.303V264.198H102.195V262.987C101.926 263.376 101.553 263.7 101.074 263.959C100.606 264.208 100.063 264.333 99.4449 264.333C98.7473 264.333 98.1095 264.153 97.5316 263.795C96.9636 263.436 96.5101 262.933 96.1713 262.285C95.8425 261.627 95.6781 260.875 95.6781 260.028ZM102.195 260.058C102.195 259.55 102.096 259.116 101.896 258.757C101.697 258.389 101.428 258.11 101.089 257.92C100.75 257.721 100.387 257.621 99.9979 257.621C99.6093 257.621 99.2506 257.716 98.9217 257.905C98.5929 258.095 98.3238 258.374 98.1145 258.742C97.9152 259.101 97.8156 259.53 97.8156 260.028C97.8156 260.526 97.9152 260.965 98.1145 261.343C98.3238 261.712 98.5929 261.996 98.9217 262.195C99.2605 262.395 99.6193 262.494 99.9979 262.494C100.387 262.494 100.75 262.4 101.089 262.21C101.428 262.011 101.697 261.732 101.896 261.373C102.096 261.004 102.195 260.566 102.195 260.058ZM116.631 255.798C117.647 255.798 118.464 256.112 119.082 256.739C119.71 257.357 120.024 258.224 120.024 259.34V264.198H117.931V259.624C117.931 258.977 117.767 258.483 117.438 258.144C117.109 257.796 116.661 257.621 116.093 257.621C115.525 257.621 115.071 257.796 114.732 258.144C114.404 258.483 114.239 258.977 114.239 259.624V264.198H112.146V259.624C112.146 258.977 111.982 258.483 111.653 258.144C111.324 257.796 110.876 257.621 110.308 257.621C109.73 257.621 109.272 257.796 108.933 258.144C108.604 258.483 108.439 258.977 108.439 259.624V264.198H106.347V255.917H108.439V256.919C108.708 256.57 109.052 256.296 109.471 256.097C109.899 255.897 110.368 255.798 110.876 255.798C111.524 255.798 112.102 255.937 112.61 256.216C113.118 256.485 113.512 256.874 113.791 257.382C114.06 256.904 114.448 256.52 114.957 256.231C115.475 255.942 116.033 255.798 116.631 255.798ZM129.708 259.878C129.708 260.177 129.688 260.446 129.648 260.686H123.594C123.644 261.283 123.853 261.752 124.222 262.091C124.591 262.429 125.044 262.599 125.582 262.599C126.36 262.599 126.913 262.265 127.241 261.597H129.499C129.259 262.395 128.801 263.052 128.123 263.57C127.446 264.079 126.614 264.333 125.627 264.333C124.83 264.333 124.112 264.158 123.475 263.81C122.847 263.451 122.354 262.948 121.995 262.3C121.646 261.652 121.472 260.905 121.472 260.058C121.472 259.201 121.646 258.448 121.995 257.801C122.344 257.153 122.832 256.655 123.46 256.306C124.087 255.957 124.81 255.783 125.627 255.783C126.414 255.783 127.117 255.952 127.735 256.291C128.363 256.63 128.846 257.113 129.185 257.741C129.533 258.359 129.708 259.071 129.708 259.878ZM127.54 259.28C127.53 258.742 127.336 258.314 126.957 257.995C126.579 257.666 126.115 257.502 125.567 257.502C125.049 257.502 124.611 257.661 124.252 257.98C123.903 258.289 123.689 258.722 123.609 259.28H127.54ZM132.162 264.303C131.783 264.303 131.469 264.188 131.22 263.959C130.981 263.72 130.862 263.426 130.862 263.077C130.862 262.728 130.981 262.439 131.22 262.21C131.469 261.971 131.783 261.851 132.162 261.851C132.531 261.851 132.835 261.971 133.074 262.21C133.313 262.439 133.433 262.728 133.433 263.077C133.433 263.426 133.313 263.72 133.074 263.959C132.835 264.188 132.531 264.303 132.162 264.303ZM136.045 264.303C135.666 264.303 135.352 264.188 135.103 263.959C134.864 263.72 134.744 263.426 134.744 263.077C134.744 262.728 134.864 262.439 135.103 262.21C135.352 261.971 135.666 261.851 136.045 261.851C136.414 261.851 136.718 261.971 136.957 262.21C137.196 262.439 137.315 262.728 137.315 263.077C137.315 263.426 137.196 263.72 136.957 263.959C136.718 264.188 136.414 264.303 136.045 264.303ZM139.928 264.303C139.549 264.303 139.235 264.188 138.986 263.959C138.747 263.72 138.627 263.426 138.627 263.077C138.627 262.728 138.747 262.439 138.986 262.21C139.235 261.971 139.549 261.851 139.928 261.851C140.297 261.851 140.6 261.971 140.84 262.21C141.079 262.439 141.198 262.728 141.198 263.077C141.198 263.426 141.079 263.72 140.84 263.959C140.6 264.188 140.297 264.303 139.928 264.303Z" fill="#B3B7BC"/>
<rect x="167.539" y="241.084" width="42.3518" height="36.1236" rx="5.60539" fill="#EEEAEA" stroke="#1C1C2A" stroke-width="1.24564"/>
<g clip-path="url(#clip0_164_46)">
<path d="M209.268 272.71C209.268 273.737 208.772 274.723 207.89 275.45C207.007 276.177 205.81 276.585 204.562 276.585H171.622C170.374 276.585 167.799 277.312 166.916 276.585C166.034 275.858 166.916 273.737 166.916 272.71V245.582C166.916 244.554 166.034 242.434 166.916 241.707C167.799 240.98 170.374 241.707 171.622 241.707H204.562C205.81 241.707 207.007 242.115 207.89 242.842C208.772 243.569 209.268 244.554 209.268 245.582V272.71Z" fill="#B3B7BC"/>
<path d="M198.819 250.157C198.295 249.877 197.657 249.781 197.047 249.888C196.436 249.995 195.902 250.297 195.562 250.728L185.309 263.742L180.573 260.135C180.347 259.958 180.08 259.82 179.789 259.729C179.497 259.638 179.187 259.595 178.875 259.603C178.563 259.612 178.257 259.671 177.973 259.778C177.689 259.884 177.434 260.036 177.222 260.225C177.011 260.413 176.847 260.635 176.74 260.876C176.633 261.117 176.585 261.374 176.599 261.63C176.613 261.887 176.69 262.138 176.823 262.371C176.956 262.603 177.144 262.811 177.376 262.983L184.166 268.153C184.618 268.498 185.192 268.669 185.763 268.669C186.397 268.669 187.208 268.45 187.74 267.785C188.053 267.393 199.513 252.839 199.513 252.839C199.681 252.625 199.796 252.387 199.853 252.136C199.909 251.886 199.905 251.629 199.84 251.38C199.776 251.131 199.652 250.894 199.477 250.685C199.302 250.475 199.078 250.296 198.819 250.157V250.157Z" fill="white"/>
</g>
<defs>
<filter id="filter0_d_164_46" x="2.43979" y="0.416566" width="220.917" height="220.917" filterUnits="userSpaceOnUse" color-interpolation-filters="sRGB">
<feFlood flood-opacity="0" result="BackgroundImageFix"/>
<feColorMatrix in="SourceAlpha" type="matrix" values="0 0 0 0 0 0 0 0 0 0 0 0 0 0 0 0 0 0 127 0" result="hardAlpha"/>
<feOffset dy="-12.0635"/>
<feGaussianBlur stdDeviation="20.5789"/>
<feColorMatrix type="matrix" values="0 0 0 0 0.696557 0 0 0 0 0.836898 0 0 0 0 0.818186 0 0 0 0.05 0"/>
<feBlend mode="normal" in2="BackgroundImageFix" result="effect1_dropShadow_164_46"/>
<feBlend mode="normal" in="SourceGraphic" in2="effect1_dropShadow_164_46" result="shape"/>
</filter>
<clipPath id="clip0_164_46">
<rect width="42.3518" height="34.878" fill="white" transform="translate(166.917 241.707)"/>
</clipPath>
</defs>
</svg>
