<svg width="246" height="304" viewBox="0 0 246 304" fill="none" xmlns="http://www.w3.org/2000/svg">
<rect x="0.95752" y="15" width="244.146" height="288.989" rx="12.4564" fill="white"/>
<g filter="url(#filter0_d_164_113)">
<circle cx="113.856" cy="122.939" r="69.3006" fill="white"/>
<circle cx="113.856" cy="122.939" r="68.591" stroke="#217BF4" stroke-opacity="0.6" stroke-width="1.41924"/>
</g>
<mask id="mask0_164_113" style="mask-type:alpha" maskUnits="userSpaceOnUse" x="44" y="34" width="157" height="175">
<path d="M44.5552 123.242C44.5552 84.9683 75.5821 34.992 113.856 34.992C206.112 32.3932 203.55 112.594 198.316 153.02H176.451C165.312 176.391 141.47 192.543 113.856 192.543C104.666 192.543 95.8933 190.754 87.8681 187.505C87.3232 187.285 86.7817 187.057 86.2438 186.823C84.4391 191.256 80.938 201.53 81.3711 207.161C72.7085 214.199 51.4765 200.555 53.2129 156.809C47.6964 146.865 44.5552 135.42 44.5552 123.242Z" fill="#C4C4C4"/>
</mask>
<g mask="url(#mask0_164_113)">
<path d="M193.308 137.163C189.069 138.448 183.811 140.264 179.909 139.316C176.782 138.557 177.017 137.569 176.664 135.497C177.655 133.815 181.844 130.584 189.955 128.935C200.093 126.873 200.762 134.902 193.308 137.163Z" fill="#FEBE9D"/>
<path d="M147.213 106.876C145.964 103.843 142.531 103.338 140.97 103.464C129.599 108.013 136.511 140.804 139.186 145.164C141.862 149.523 144.983 151.229 148.105 152.556C151.226 153.883 157.469 153.125 159.029 152.177C160.59 151.229 161.036 150.281 162.82 150.092C164.603 149.902 167.502 149.334 168.616 148.196C169.731 147.059 170.623 145.922 173.299 145.922C175.974 145.922 178.204 144.027 179.095 142.889C179.987 141.752 180.656 141.562 182.217 141.183C183.778 140.804 185.338 140.804 185.784 138.909C186.23 137.013 186.453 133.222 186.23 131.327C186.007 129.432 186.007 129.432 184.892 129.621C183.778 129.811 180.879 131.327 179.987 131.327C179.095 131.327 177.535 131.138 175.974 131.706C174.413 132.275 169.285 134.36 165.941 135.308C162.597 136.255 157.692 136.445 158.138 135.118C158.584 133.791 160.144 130 157.023 130C153.902 130 153.902 127.915 152.564 123.556C151.226 119.196 148.773 110.667 147.213 106.876Z" fill="#217BF4"/>
<path d="M180.211 139.668C181.177 139.605 183.377 139.213 184.447 138.152M181.103 133.413C181.772 132.844 183.511 131.707 185.116 131.707L181.103 133.413ZM182.664 134.361L184.447 133.603L182.664 134.361ZM180.434 137.014C181.475 136.888 183.823 136.408 184.893 135.498L180.434 137.014Z" stroke="#2068D9" stroke-width="0.765635"/>
<path d="M180.816 141.576C180.409 140.065 180.003 137.705 180.433 135.876C179.987 137.203 178.694 140.311 177.089 142.131C175.083 144.406 172.63 144.216 172.184 142.321C171.738 140.425 169.063 141.562 168.171 143.837C167.279 146.111 165.272 148.955 161.928 149.144C158.795 149.322 157.228 149.998 156.309 150.395C156.247 150.421 156.187 150.447 156.131 150.471C155.239 150.85 155.462 149.334 156.354 148.386C157.246 147.438 158.361 144.974 158.138 143.647C157.023 145.732 154.793 148.576 151.226 149.523C147.659 150.471 145.652 148.196 148.328 146.111C151.003 144.027 153.01 142.131 153.678 140.425C153.931 139.78 153.579 140.002 152.874 140.446C151.714 141.175 149.6 142.506 147.659 141.562C144.537 140.046 144.983 135.687 147.436 134.928C148.219 134.686 149.39 134.618 150.65 134.545C153.332 134.389 156.416 134.209 157.023 132.275C155.685 133.033 147.882 134.17 147.659 129.432C147.436 124.693 146.99 121.471 145.875 118.817C145.505 117.936 145.331 116.783 145.15 115.58C144.786 113.161 144.392 110.542 142.308 109.53C141.712 109.241 139.252 109.351 135.889 109.934C132.427 121.028 137.097 141.761 139.186 145.164C141.862 149.523 144.983 151.23 148.105 152.556C151.226 153.883 157.469 153.125 159.03 152.177C159.54 151.867 159.931 151.557 160.288 151.274C161.025 150.691 161.619 150.22 162.82 150.092C164.603 149.903 167.502 149.334 168.617 148.197C168.697 148.115 168.776 148.034 168.854 147.952C169.869 146.902 170.815 145.922 173.299 145.922C175.974 145.922 178.204 144.027 179.095 142.89C179.663 142.165 180.141 141.825 180.816 141.576Z" fill="#1771EA"/>
<path d="M141.347 148.056C142.455 146.825 144.337 145.094 146.098 144.595C148.774 143.837 147.436 143.458 145.206 144.216C142.977 144.974 142.531 144.405 142.308 141.941C142.085 139.477 142.977 135.117 144.314 132.085C145.652 129.052 147.436 119.575 143.646 115.974C141.902 114.317 138.225 114.505 134.783 116.207C133.922 127.499 137.448 142.331 139.186 145.163C139.879 146.292 140.602 147.243 141.347 148.056Z" fill="#2068D9"/>
<path d="M178.65 139.857C180.612 137.583 180.359 133.476 179.988 131.707C180.582 133.224 181.415 136.787 179.988 138.91C178.204 141.563 178.204 140.426 178.65 139.857Z" fill="#3881F2"/>
<path d="M124.919 194.634C131.518 192.057 140.302 193.308 143.87 194.255C144.316 194.369 144.762 194.255 145.653 191.602C146.545 188.948 145.877 182.314 145.653 181.746C145.431 181.177 145.431 180.798 145.653 179.85C146.768 173.595 142.532 158.622 140.748 150.282C138.965 141.942 141.417 134.171 143.87 128.484C146.323 122.798 144.316 115.406 143.647 107.824C142.978 100.243 135.398 99.674 125.142 97.5888C114.885 95.504 101.731 95.504 95.9342 108.014C90.1373 120.524 95.4881 136.824 95.9342 146.112C96.3799 155.399 91.921 163.36 89.0224 171.511C86.1241 179.661 86.7929 185.726 85.9009 191.033C85.1874 195.279 86.6441 197.099 87.4618 197.478C87.5361 198.425 87.6847 200.965 87.6847 203.543C87.6847 206.765 89.0224 208.471 92.3667 208.282C95.711 208.092 101.062 206.197 105.744 203.164C110.426 200.132 116.669 197.857 124.919 194.634Z" fill="#217BF4"/>
<path d="M125.142 158.811C119.077 163.36 111.616 162.475 108.643 161.464C108.643 162.286 110.07 164.345 115.778 166.014C122.912 168.098 127.817 163.36 129.824 159.569C131.429 156.536 134.952 152.24 136.513 150.471C135.249 151.355 131.206 154.262 125.142 158.811Z" fill="#3881F2"/>
<path d="M143.87 194.255C140.302 193.307 131.518 192.056 124.918 194.634C124.013 194.988 123.132 195.33 122.274 195.663C115.317 198.365 109.912 200.464 105.744 203.164C101.062 206.196 95.711 208.092 92.3667 208.281C89.0224 208.471 87.6847 206.765 87.6847 203.543C87.6847 200.965 87.5361 198.425 87.4618 197.477C86.6441 197.098 85.1874 195.279 85.9009 191.033C86.1871 189.332 86.3125 187.552 86.4466 185.651C86.7305 181.622 87.0534 177.047 89.0224 171.51C89.6929 169.625 90.4471 167.749 91.2047 165.865C93.7216 159.605 96.2768 153.25 95.9342 146.111C95.8158 143.65 95.3531 140.695 94.8444 137.449C93.4347 128.449 91.6738 117.207 95.9342 108.013C96.0073 107.856 96.0816 107.7 96.157 107.546C104.921 100.563 113.613 97.5896 120.9 96.8896C122.349 97.0687 123.771 97.3102 125.142 97.5887C126.239 97.8119 127.306 98.0178 128.338 98.2166C132.331 98.9866 135.787 99.6532 138.404 100.823C138.852 101.255 139.191 101.697 139.411 102.137C142.532 108.392 136.066 115.595 130.938 119.196C125.81 122.797 126.925 124.313 132.722 122.797C137.86 121.453 137.043 121.896 130.736 125.313C129.927 125.752 129.028 126.239 128.04 126.777C119.345 131.516 129.155 129.62 136.289 128.103C143.424 126.587 142.086 130.188 140.526 131.705C139.872 132.34 139.14 132.709 138.494 133.035C137.597 133.487 136.865 133.856 136.735 134.737C136.512 136.254 134.952 137.959 132.945 138.718C132.787 138.778 132.625 138.838 132.462 138.898C130.558 139.605 128.38 140.414 127.148 142.508C125.81 144.783 122.466 145.162 118.453 144.972C114.439 144.783 109.089 146.299 113.994 150.279C118.899 154.26 125.81 151.416 129.378 149.9C121.128 158.619 109.311 152.174 107.082 149.142C104.853 146.109 103.738 145.162 100.839 145.92C97.9407 146.678 97.049 150.278 99.7245 151.037C100.91 151.373 102.139 151.225 103.141 151.104C104.399 150.953 105.298 150.845 105.298 151.795C105.298 153.239 101.784 155.769 98.6763 158.007C98.1125 158.413 97.5622 158.809 97.049 159.187C93.7044 161.651 97.4947 163.736 99.9473 164.494C102.4 165.252 101.731 166.2 97.7179 169.991C92.1438 175.489 102.846 180.606 112.656 174.73C120.504 170.029 127.371 169.612 129.824 169.991C127 170.687 120.147 173.176 115.331 177.573C111.272 181.28 105.895 182.314 101.114 183.234C98.8051 183.679 96.6346 184.097 94.8193 184.776C89.2452 186.861 92.1438 191.031 96.8259 191.22C99.3234 191.321 103.724 188.942 108.775 186.21C113.194 183.821 118.111 181.162 122.689 179.658C132.499 176.436 139.188 178.9 142.755 180.227C136.958 179.848 120.682 184.587 112.21 189.325C108.112 191.617 105.057 192.49 102.39 193.253C99.5426 194.066 97.1363 194.754 94.3733 196.907C89.0224 201.077 96.157 203.92 101.285 203.162C103.576 202.823 106.801 200.972 110.484 198.857C115.045 196.239 120.307 193.217 125.364 192.169C132.13 190.766 140.688 192.283 144.933 193.419C144.482 194.304 144.176 194.333 143.87 194.255Z" fill="#1771EA"/>
<path d="M95.646 142.932C96.5686 141.816 97.8975 140.121 98.6099 138.909C99.7245 137.014 100.393 136.256 101.954 137.583C103.515 138.91 105.967 138.72 107.305 137.204C107.279 137.308 107.253 137.411 107.227 137.513C106.592 140.003 106.152 141.73 110.649 141.184C112.294 140.984 114.654 141.252 116.937 141.512C121.153 141.991 125.106 142.44 123.804 139.857C121.797 135.877 120.459 126.21 124.473 122.799C127.683 120.069 130.418 116.228 131.384 114.648C133.168 111.047 132.99 104.034 118.007 104.792C112.06 105.093 105.573 103.846 99.503 102.64C98.1323 104.1 96.9256 105.874 95.9342 108.013C91.6738 117.207 93.435 128.449 94.8447 137.449C95.1498 139.396 95.4384 141.238 95.646 142.932Z" fill="#2068D9"/>
<path d="M135.174 187.241C139.812 187.393 140.823 184.525 140.748 183.072C140.748 181.934 142.086 181.934 141.417 186.862C140.748 191.791 132.722 189.137 125.81 189.705C118.898 190.274 109.088 194.634 106.636 195.96C118.676 187.052 129.377 187.052 135.174 187.241Z" fill="#3881F2"/>
<path d="M140.301 180.987C140.821 182.945 141.772 187.886 141.416 191.98M91.0273 198.614C91.0273 200.004 91.1612 203.353 91.6962 205.627L91.0273 198.614ZM96.3785 196.15C96.8985 197.856 97.8945 201.647 97.7162 203.163L96.3785 196.15ZM99.9457 194.255C100.317 195.581 101.061 199.259 101.061 203.353L99.9457 194.255ZM104.405 194.634V199.562V194.634ZM107.972 191.98C108.418 193.118 109.176 195.923 108.641 198.046L107.972 191.98ZM111.539 189.895C111.911 191.159 112.654 194.179 112.654 196.15L111.539 189.895ZM115.999 188.758V193.686V188.758ZM120.235 186.294C120.606 187.937 121.127 191.829 120.235 194.255V186.294ZM123.356 185.346C123.876 186.42 124.828 189.137 124.471 191.412L123.356 185.346ZM128.707 184.399C128.707 186.041 128.707 189.478 128.707 190.085V184.399ZM131.606 182.882C131.829 184.399 132.275 188.076 132.275 190.653L131.606 182.882ZM137.625 185.157C137.7 186.673 137.715 190.047 137.18 191.412L137.625 185.157Z" stroke="#2068D9" stroke-width="0.765635"/>
<path d="M93.2588 195.204C107.825 188.57 138.608 175.946 144.316 180.799" stroke="#3881F2" stroke-width="0.765635"/>
<path d="M85.9009 191.033C85.1874 195.278 86.6441 197.098 87.4618 197.477C87.4971 197.929 87.5496 198.744 87.5946 199.752C89.6314 198.109 94.1504 194.596 95.9341 193.686C92.5898 194.634 88.1733 196.529 87.5946 192.359C87.0158 188.19 89.2452 183.83 90.583 181.556C91.921 179.281 93.5208 172.457 91.8292 164.307C90.8682 166.718 89.8774 169.105 89.0224 171.51C86.1241 179.66 86.7929 185.726 85.9009 191.033Z" fill="#2068D9"/>
<path d="M69.6203 200.565C69.9251 196.146 70.7002 190.771 72.9729 187.461C74.7941 184.807 75.6339 185.378 77.6964 185.784C78.9155 187.308 81.0184 192.397 79.6773 200.565C78.0012 210.774 69.0845 208.336 69.6203 200.565Z" fill="#FEBE9D"/>
<path d="M68.5094 194.255C68.8661 193.497 69.104 192.423 69.1782 191.981C69.8471 187.053 69.1782 182.314 69.1782 174.164C69.1782 166.014 71.1851 157.484 72.9686 154.452C74.7523 151.419 74.3063 148.765 75.1983 147.249C76.09 145.733 78.7655 144.027 77.8737 138.909C76.9817 133.791 80.1032 133.223 80.3263 126.778C80.5492 120.334 81.8869 112.184 86.1232 106.497C90.3593 100.811 105.966 97.02 107.527 107.824C109.088 118.628 103.291 125.831 100.838 130.569C98.3859 135.308 95.2644 145.543 94.8184 148.196C94.3724 150.85 92.3659 158.432 92.3659 161.654C92.3659 164.876 91.4741 170.752 90.1364 175.87C88.7987 180.987 85.9001 187.242 85.0084 187.811C84.1166 188.38 83.6706 188.759 83.6706 189.706C83.6706 190.654 83.2246 193.876 83.0018 195.013C82.7786 196.151 82.5558 196.53 81.8869 196.151C81.218 195.772 80.1032 195.772 78.0966 195.772C76.09 195.772 72.7457 196.151 70.7391 195.961C68.7325 195.772 68.0637 195.203 68.5094 194.255Z" fill="#217BF4"/>
<path d="M77.2059 189.139C72.9253 190.048 70.6659 189.265 70.0713 188.759C71.3347 189.139 74.3375 189.446 76.7599 188.759C78.7665 188.19 81.5908 188.254 82.5568 188.57C81.5165 188.57 78.9896 188.684 77.2059 189.139Z" fill="#3881F2"/>
<path d="M80.3278 189.516C80.105 190.275 79.8375 191.981 80.551 192.739C81.2645 193.497 80.6995 194.192 80.3278 194.445M72.5243 191.223C72.6729 191.791 72.7918 193.232 72.0786 194.445L72.5243 191.223ZM75.6458 189.896L75.4229 194.065L75.6458 189.896Z" stroke="#2068D9" stroke-width="0.765635"/>
<path d="M80.3396 195.808C80.9197 194.788 81.5804 193.205 81.442 191.791C81.2189 189.517 78.0974 188.758 76.314 189.137C78.5434 188.19 83.4486 186.105 84.7863 181.366C86.124 176.628 85.678 173.785 81.442 173.406C80.55 173.406 79.6583 173.216 82.7797 170.941C85.9009 168.667 90.8061 164.308 86.124 161.654C81.442 159.001 78.3206 156.915 77.6517 154.072C79.8811 155.589 82.5566 157.294 83.6715 157.484C84.6358 157.648 84.599 157.528 84.1389 156.021C84.0669 155.786 83.9847 155.517 83.8943 155.21C83.2255 152.935 81.6649 147.249 81.6649 145.543C82.3337 147.628 83.4486 150.85 86.3469 152.177C89.2455 153.504 90.1372 149.902 89.6912 147.438C89.2455 144.974 89.0224 143.079 91.9209 140.994C94.8193 138.909 99.5013 131.517 96.157 128.294C92.8127 125.072 86.7929 119.196 87.0158 114.647C87.1892 111.111 86.8234 109.98 85.1852 107.87C85.4809 107.399 85.7936 106.941 86.124 106.497C89.1514 102.433 97.9862 99.3379 103.351 101.845C103.853 102.148 104.35 102.455 104.841 102.765C106.215 103.865 107.193 105.51 107.528 107.824C108.827 116.819 105.027 123.318 102.302 127.976C101.754 128.913 101.25 129.776 100.839 130.569C98.3867 135.308 95.2653 145.543 94.8193 148.196C94.6814 149.018 94.3936 150.312 94.0623 151.802C93.3234 155.126 92.3667 159.429 92.3667 161.654C92.3667 164.876 91.4749 170.752 90.1372 175.87C88.7995 180.987 85.9009 187.242 85.0092 187.811C84.1175 188.38 83.6715 188.759 83.6715 189.706C83.6715 190.654 83.2255 193.876 83.0026 195.013C82.7797 196.151 82.5566 196.53 81.8877 196.151C81.5259 195.946 81.0333 195.851 80.3396 195.808Z" fill="#1771EA"/>
<path d="M97.1285 140.008C95.9611 143.55 95.0459 146.849 94.8197 148.196C94.6816 149.017 94.394 150.311 94.0627 151.802C93.3238 155.126 92.3671 159.429 92.3671 161.653C92.3671 162.659 92.2804 163.924 92.1199 165.343C90.9381 163.025 89.0389 160.473 86.5702 159.949C82.7104 159.128 85.0316 159.16 86.7374 159.183C87.0023 159.187 87.2523 159.19 87.4622 159.19C89.0228 159.19 89.6916 158.431 87.9079 157.484C86.4812 156.726 84.3407 152.619 83.4487 150.66C84.415 152.619 87.239 156.536 90.8065 156.536C91.9211 156.536 92.8131 155.588 92.1442 153.693C91.5499 152.009 93.4198 144.788 97.1285 140.008Z" fill="#2068D9"/>
<path d="M108.901 94.5952L110.451 85.7794L121.497 88.0792C121.239 89.2291 121.265 92.7937 121.885 97.0868C122.505 101.38 124.339 103.667 125.373 104.369L108.901 94.5952Z" fill="#FEBE9D"/>
<path d="M110.546 85.7792L121.368 88.0725C121.178 88.9317 121.145 91.1422 121.395 93.9973C113.672 93.0799 110.944 88.1363 110.546 85.7792Z" fill="#F2AD8A"/>
<path d="M104.398 124.28C103.992 121.638 105.819 121.072 107.444 120.317C108.435 119.856 109.654 119.255 110.083 118.083C112.933 119.2 115.783 119.481 120.234 118.907C120.438 121.579 120.884 127.752 121.047 131.073C121.25 135.225 122.671 141.83 118.001 139.565C113.331 137.301 111.91 137.112 109.677 137.678C107.444 138.244 105.819 137.678 105.616 134.093C105.413 130.507 104.804 125.034 104.398 124.28Z" fill="#8CB9FF"/>
<path d="M109.286 137.783C108.665 136.451 107.726 133.445 108.024 129.956C108.426 125.232 109.635 121.453 111.045 125.043C112.173 127.915 112.455 131.278 112.455 132.601C113.261 132.16 114.913 130.296 115.074 126.366C115.275 121.453 115.477 121.642 116.081 124.476C116.685 127.31 116.887 127.688 117.491 124.476C117.572 124.047 117.638 123.658 117.698 123.306C118.081 121.067 118.212 120.299 120.188 119.961C120.159 119.57 120.133 119.216 120.11 118.908C115.694 119.482 112.866 119.201 110.038 118.083C109.612 119.256 108.403 119.858 107.419 120.32C107.285 120.383 107.149 120.444 107.014 120.506C105.521 121.184 104.028 121.863 104.398 124.288C104.801 125.043 105.405 130.523 105.606 134.113C105.797 137.511 107.251 138.201 109.286 137.783Z" fill="#7EAEFA"/>
<path opacity="0.5" d="M104.794 126.007C105.558 124.403 106.896 122.194 108.234 121.819C110.253 121.254 110.657 120.877 111.262 120.312C111.868 119.747 112.474 120.124 112.676 120.877C112.878 121.631 113.483 120.877 114.089 120.124C114.695 119.371 115.906 119.936 116.108 120.501C116.18 120.703 116.433 120.568 116.865 120.337C117.538 119.979 118.645 119.389 120.188 119.468C120.173 119.267 120.159 119.079 120.146 118.906C115.72 119.478 112.885 119.198 110.051 118.083C109.624 119.252 108.412 119.853 107.426 120.313C107.292 120.376 107.156 120.437 107.02 120.498C105.524 121.175 104.028 121.851 104.398 124.269C104.518 124.492 104.655 125.128 104.794 126.007Z" fill="#70A2F2"/>
<path d="M119.112 90.9598C111.754 90.0494 105.87 83.7311 103.913 80.8226C99.9996 81.7714 99.2169 81.2014 99.0211 78.5457C98.8254 75.89 103.913 74.5622 104.891 70.1993C105.87 65.8365 109.196 57.6802 118.589 53.8862C127.981 50.0925 136.004 62.4224 136.199 66.2164C136.395 70.0101 135.811 79.0369 133.46 84.237C130.972 89.7409 128.308 92.0981 119.112 90.9598Z" fill="#FEBE9D"/>
<path d="M104.288 80.4454C100.397 81.3913 99.4826 81.4162 99.288 78.7693C95.5915 79.5257 87.6149 82.2814 85.2801 87.2535C82.3617 93.4682 85.2801 94.4607 87.2256 95.4061C89.1712 96.3512 88.1984 98.9978 85.6693 99.3761C83.1402 99.7543 82.9455 97.8638 82.7509 96.7294C81.5835 101.834 85.6693 101.834 87.4202 101.078C86.2528 104.102 86.6421 106.371 89.3658 107.127C92.0896 107.883 89.3658 110.719 89.3658 113.366C89.3658 116.013 92.2842 117.525 92.4788 119.416C92.6734 121.306 95.0079 122.252 97.3425 123.008C99.6773 123.764 98.7045 124.709 97.7317 126.41C96.7589 128.112 98.3153 129.435 98.5099 131.704C98.7045 133.973 100.261 134.162 102.206 134.54C100.261 131.326 101.428 130.192 102.596 129.246L102.632 129.217C103.783 128.285 104.732 127.517 104.347 124.898C103.957 122.252 105.708 121.684 107.265 120.928C108.821 120.172 110.961 119.037 109.405 115.635C107.849 112.232 112.712 109.963 113.88 106.56C115.047 103.157 112.323 98.9979 111.156 97.4856C109.989 95.973 108.821 93.7046 108.432 92.7592C108.043 91.8141 108.432 91.8141 108.627 92.003C109.599 92.9484 109.794 92.192 109.989 91.2469C110.144 90.4905 110.313 88.2695 110.378 87.2535C107.411 85.1461 105.352 82.0314 104.288 80.4454Z" fill="#2B2B39"/>
<path d="M121.161 93.5156V91.07C125.997 91.4121 128.759 90.5238 130.733 88.6002C134.747 93.3266 131.193 97.4858 130.609 98.4312C129.442 96.9186 127.108 96.3515 126.524 96.3515C125.94 96.3515 125.357 96.5404 124.773 95.5953C124.189 94.6499 123.995 93.5156 122.827 92.7594C121.893 92.1544 121.327 93.0117 121.161 93.5156Z" fill="#2B2B39"/>
<path d="M99.0186 89.1311C100.196 89.9929 102.217 92.4186 100.888 95.2263" stroke="#151523" stroke-width="0.567695"/>
<path d="M104.288 91.2644C106.801 93.2001 111.242 98.0081 108.896 101.755C105.963 106.438 105.335 108.124 105.335 111.683" stroke="#151523" stroke-width="0.567695"/>
<path d="M99.3452 114.426C100.687 113.863 102.929 111.534 101.157 106.726C99.3853 101.918 101.627 99.0881 102.969 98.2743" stroke="#151523" stroke-width="0.567695"/>
<path d="M92.5933 100.102C90.9768 101.662 88.7137 105.119 92.5933 106.467C97.4428 108.152 98.6068 109.837 97.055 113.207" stroke="#151523" stroke-width="0.567695"/>
<path d="M91.7671 109.55C92.2645 110.131 92.9605 111.799 91.7671 113.816" stroke="#151523" stroke-width="0.567695"/>
<path d="M89.2434 88.8698C88.5745 89.5016 87.6828 91.2201 89.4663 93.0397C91.696 95.3143 91.4731 96.641 90.3583 98.1573" stroke="#151523" stroke-width="0.567695"/>
<path opacity="0.5" d="M93.736 81.0346C92.8612 82.2088 91.9975 83.5273 91.3258 84.8526C90.6891 86.1084 90.2202 87.3795 90.0824 88.5444C89.9445 89.7089 90.1358 90.7871 90.8473 91.6339C91.0168 91.8353 91.1823 92.0302 91.343 92.2191C91.9833 92.9719 92.546 93.634 92.9513 94.2625C93.4555 95.0443 93.6948 95.7445 93.5408 96.4653C93.3857 97.1893 92.8259 97.972 91.6308 98.9004C90.7821 99.56 89.6225 100.285 88.0837 101.108C88.0015 101.3 87.9264 101.488 87.8589 101.673C89.642 100.742 90.9727 99.9252 91.9317 99.1803C93.1615 98.2251 93.7998 97.3729 93.9795 96.5331C94.1597 95.6903 93.8696 94.898 93.3425 94.0803C92.9225 93.4289 92.3381 92.742 91.6961 91.987L91.6958 91.9867C91.5371 91.8 91.3746 91.609 91.2103 91.4136C90.584 90.6684 90.3945 89.6945 90.5261 88.5822C90.6578 87.4704 91.1083 86.2392 91.7354 85.0026C92.4971 83.4999 93.512 82.0021 94.5063 80.72C94.2492 80.8214 93.9922 80.9264 93.736 81.0346Z" fill="#1C1C2A"/>
<path opacity="0.5" d="M105.721 82.6826C105.335 83.9703 105.041 85.7094 105.151 87.5697C105.293 89.9573 106.102 92.5574 108.252 94.6524C110.878 97.2103 111.805 99.0172 111.805 100.579C111.805 102.147 110.873 103.524 109.598 105.244C108.314 106.976 107.558 108.682 107.659 110.736C107.746 112.525 108.482 114.556 110.04 117.079C109.961 116.645 109.807 116.163 109.561 115.623C109.48 115.445 109.416 115.27 109.368 115.098C108.52 113.416 108.111 111.993 108.049 110.718C107.954 108.78 108.661 107.158 109.914 105.467C111.176 103.765 112.195 102.29 112.195 100.579C112.195 98.8599 111.171 96.9589 108.528 94.3835C106.463 92.3712 105.679 89.8692 105.541 87.5477C105.44 85.8481 105.686 84.2522 106.026 83.0306C105.921 82.9131 105.819 82.7973 105.721 82.6826Z" fill="#1C1C2A"/>
<path opacity="0.5" d="M101.837 134.539C101.451 134.093 101.085 133.571 100.799 132.991C100.165 131.702 99.9322 130.131 100.76 128.444C101.736 126.455 101.379 124.685 101.05 123.055C101.006 122.838 100.962 122.623 100.922 122.41C100.752 121.5 100.649 120.632 100.83 119.763C101.01 118.9 101.475 118.019 102.475 117.091C103.536 116.107 103.934 115.087 104.014 114.029C104.08 113.143 103.922 112.227 103.762 111.302C103.734 111.14 103.706 110.978 103.679 110.815C103.497 109.714 103.362 108.583 103.602 107.391C103.841 106.204 104.455 104.941 105.798 103.586L105.803 103.58L105.808 103.574C106.74 102.465 106.882 100.967 106.38 99.4501C105.891 97.9745 104.79 96.4656 103.179 95.2287C103.641 94.3472 103.955 92.2409 102.314 89.4787C101.246 87.6806 100.582 86.0965 100.511 84.5741C100.459 83.4669 100.721 82.3791 101.39 81.2535C101.239 81.2467 101.098 81.2312 100.969 81.2069C100.328 82.3382 100.067 83.4505 100.121 84.5913C100.196 86.2061 100.898 87.8543 101.976 89.6691C103.637 92.4651 103.184 94.483 102.782 95.1429C101.559 95.9431 99.8698 97.4729 98.7108 99.5057C97.5946 101.464 96.9664 103.897 97.7349 106.592C97.67 106.564 97.6033 106.537 97.5355 106.51C94.9276 105.475 94.0381 104.283 93.9489 103.154C93.8576 101.999 94.5903 100.815 95.4665 99.7715C96.3501 98.7193 97.4934 97.1252 97.9677 95.3739C98.4453 93.61 98.2436 91.6796 96.4252 90.0061C95.0753 88.7638 94.7259 87.164 94.8465 85.648C94.9674 84.1281 95.5603 82.711 96.0687 81.8752L95.7329 81.6812C95.2004 82.5568 94.5838 84.0295 94.4573 85.6186C94.3308 87.2114 94.6968 88.9387 96.1571 90.2826C97.851 91.8415 98.0394 93.6184 97.5903 95.277C97.1375 96.9483 96.0371 98.4914 95.1643 99.5309C94.2844 100.579 93.456 101.867 93.5599 103.183C93.6658 104.526 94.7276 105.806 97.3884 106.862C97.5929 106.944 97.7835 107.027 97.9609 107.112C98.9221 107.574 99.4845 108.089 99.7782 108.618C100.07 109.145 100.109 109.708 99.9779 110.293C99.7119 111.483 98.76 112.722 97.8931 113.814L97.7835 113.951C97.6166 114.161 97.455 114.364 97.3059 114.558C96.4142 115.717 95.997 116.709 96.023 117.719C96.0422 118.471 96.3065 119.213 96.7675 120.02C96.1354 119.55 95.5013 119.032 94.981 118.441C94.2392 117.598 93.7415 116.621 93.8082 115.443C93.8395 114.888 93.9966 114.28 94.3209 113.613C94.7629 112.704 95.0764 111.889 95.203 111.175C95.3295 110.459 95.271 109.826 94.9462 109.298C94.6214 108.77 94.0497 108.38 93.2184 108.11C92.5072 107.879 91.5934 107.732 90.4512 107.664C90.5376 107.784 90.5961 107.915 90.6317 108.057C91.6567 108.128 92.4679 108.267 93.095 108.471C93.8735 108.724 94.3508 109.07 94.6115 109.493C94.8719 109.917 94.9355 110.448 94.8183 111.11C94.7008 111.775 94.4045 112.552 93.9684 113.45C93.6286 114.149 93.4563 114.799 93.4195 115.405C93.2148 116.232 92.9103 117.557 92.6561 118.867C92.6267 119.019 92.5979 119.17 92.5699 119.32C92.5756 119.355 92.5801 119.391 92.5835 119.426C92.6128 119.711 92.6902 119.974 92.8086 120.219C92.8761 119.808 92.9546 119.375 93.0393 118.938C93.1961 118.131 93.3721 117.318 93.5317 116.62C93.7294 117.403 94.1556 118.087 94.6849 118.688C95.4645 119.574 96.4808 120.296 97.3471 120.91L97.6242 120.651C96.85 119.519 96.4359 118.606 96.413 117.71C96.3901 116.818 96.7534 115.91 97.618 114.786C97.6807 114.705 97.7457 114.621 97.8126 114.536C97.7886 115.196 97.8081 116.055 97.9219 116.969C98.0762 118.209 98.4061 119.565 99.0487 120.661C99.6246 121.643 99.3972 122.803 98.8295 123.893C98.8289 123.895 98.8283 123.896 98.8275 123.897C98.9408 124.123 98.9309 124.37 98.8419 124.646C98.9614 124.458 99.0744 124.264 99.1775 124.065C99.7675 122.931 100.061 121.62 99.3876 120.472C98.7814 119.438 98.4606 118.139 98.3092 116.924C98.1623 115.743 98.177 114.658 98.2363 114.002C99.0823 112.937 100.075 111.646 100.359 110.374C100.505 109.72 100.467 109.061 100.121 108.437C99.7859 107.833 99.1721 107.283 98.2081 106.808C97.3279 104.104 97.9293 101.66 99.052 99.6902C100.151 97.7627 101.746 96.2984 102.918 95.5126C104.489 96.7133 105.545 98.1688 106.008 99.567C106.481 100.995 106.332 102.346 105.512 103.328C104.126 104.728 103.474 106.053 103.219 107.318C102.965 108.58 103.11 109.767 103.294 110.876C103.322 111.044 103.35 111.21 103.379 111.374C103.539 112.301 103.687 113.165 103.624 114.001C103.552 114.97 103.193 115.9 102.206 116.816C101.156 117.79 100.646 118.739 100.448 119.688C100.251 120.631 100.367 121.558 100.538 122.478C100.579 122.697 100.623 122.916 100.667 123.135C100.995 124.768 101.325 126.412 100.408 128.28C99.519 130.092 99.7734 131.785 100.447 133.155C100.672 133.613 100.945 134.036 101.237 134.416C101.431 134.459 101.631 134.499 101.837 134.539Z" fill="#1C1C2A"/>
<path d="M85.5088 87.3459C87.4394 86.0454 89.4872 85.0695 89.9973 86.1677C90.9667 88.2542 92.9053 86.9267 93.4868 85.409C94.0684 83.8917 94.2622 84.271 95.2316 86.5471C95.6465 87.5216 95.9194 87.036 96.2936 86.37C96.7933 85.4802 97.4738 84.269 98.9149 85.7878C100.129 87.0676 101.254 85.7923 102.31 84.5941C103.445 83.3064 104.502 82.1082 105.506 84.2705C106.159 85.6762 106.636 87.1897 107.086 88.6149C107.526 90.0106 107.939 91.3217 108.465 92.3649C108.36 91.8646 108.645 91.8937 108.802 92.0477C109.771 92.9959 109.965 92.2372 110.159 91.2887C110.314 90.53 110.482 88.3014 110.547 87.282C107.59 85.1675 105.348 82.0368 104.287 80.4454C100.41 81.3945 99.6905 81.425 99.4964 78.7693C95.8132 79.5283 87.8648 82.2932 85.5384 87.282C85.5286 87.3032 85.5187 87.3247 85.5088 87.3459Z" fill="#1C1C2A"/>
<path d="M108.408 92.7818C108.018 91.8336 108.408 91.8336 108.602 92.0231C109.043 92.4521 109.324 92.5318 109.518 92.4024C110.835 93.6667 113.859 96.4986 115.417 97.7121C116.974 98.9258 120.998 100.241 122.815 100.746C122.157 99.419 120.903 96.1193 121.147 93.5402C121.313 93.0346 121.88 92.1748 122.815 92.7818C123.983 93.5402 124.178 94.6779 124.762 95.6261C125.346 96.5743 125.93 96.3848 126.514 96.3848C127.098 96.3848 129.434 96.9537 130.602 98.4708C130.927 98.7236 131.848 99.3052 132.939 99.6085C134.301 99.9879 136.054 101.884 135.469 103.78C134.886 105.677 132.549 107.573 131.381 109.659C130.213 111.745 128.461 118.003 122.425 119.141C121.374 119.339 120.405 119.499 119.505 119.621C115.237 120.197 112.504 119.915 109.77 118.793C110.033 118.042 109.988 117.057 109.381 115.728C107.824 112.314 112.691 110.039 113.859 106.625C115.027 103.212 112.302 99.0397 111.133 97.5226C109.965 96.0055 108.797 93.7297 108.408 92.7818Z" fill="#8CB9FF"/>
<path d="M117.136 98.5774C118.241 100.114 120.394 102.259 123.076 102.513C127.06 102.891 127.629 99.3019 127.249 97.6018C125.542 98.9243 122.507 100.058 122.697 97.4131C122.723 97.0448 122.753 96.6948 122.782 96.3618C122.917 94.7899 123.02 93.5918 122.553 92.6065C121.728 92.178 121.225 92.9703 121.072 93.4471C120.834 96.0158 122.056 99.3025 122.697 100.625C121.4 100.256 118.95 99.4547 117.136 98.5774Z" fill="#7EAEFA"/>
<path d="M115.447 119.177C114.882 119.031 114.326 118.859 113.77 118.66C114.072 117.909 114.02 116.925 113.325 115.596C112.232 113.506 113.9 111.843 115.664 110.084C116.78 108.971 117.934 107.82 118.453 106.498C119.403 104.074 118.103 101.268 116.791 99.3026C118.458 100.232 121.039 101.593 122.912 102.328C125.81 103.465 125.141 105.55 121.351 103.654C119.791 102.896 119.791 105.361 122.912 106.687C126.033 108.014 131.83 107.824 133.837 103.275C135.843 98.7264 138.296 99.295 136.735 103.654C135.174 108.014 132.053 112.752 129.601 114.269C128.413 115.003 126.701 115.204 124.949 115.41C123.083 115.629 121.17 115.853 119.791 116.733C117.738 118.041 117.162 119.106 117.118 119.526C116.767 119.469 116.423 119.404 116.083 119.33L115.447 119.177Z" fill="#7EAEFA"/>
<path opacity="0.5" d="M109.741 118.083C109.833 117.416 109.698 116.592 109.213 115.558C108.235 113.476 109.728 111.818 111.306 110.064C112.305 108.955 113.338 107.807 113.802 106.489C113.871 106.293 113.927 106.094 113.97 105.893L116.196 108.001C117.592 109.323 122.381 109.511 124.775 108.945C123.178 109.89 121.183 110.078 117.393 109.511C113.602 108.944 112.405 110.645 114.6 111.779C116.794 112.912 123.178 111.212 125.373 109.7C123.386 112.95 119.601 113.413 116.829 113.752C116.539 113.788 116.26 113.822 115.996 113.857C115.023 113.989 113.952 113.891 112.996 113.804C111.209 113.641 109.82 113.514 110.21 114.991C110.64 116.62 110.137 117.66 109.741 118.083Z" fill="#70A2F2"/>
<path d="M111.979 61.3983C113.212 56.9979 116.991 56.9095 118.726 57.4153C119.69 57.5964 118.919 55.3291 122.196 54.9498C125.473 54.5704 127.594 56.6569 128.558 58.1743C129.522 59.6917 130.293 61.2091 131.835 62.5366C132.606 64.8127 135.113 67.2785 135.691 67.8474C135.691 68.4166 135.914 72.1865 135.914 73.8934C139.191 71.4278 137.811 69.1752 138.583 67.0887C139.2 65.4197 138.711 64.37 138.39 64.054C138.454 63.1687 138.506 61.1331 138.197 60.071C137.811 58.7432 136.462 58.5537 135.884 58.5537C136.269 57.6052 135.884 56.6569 135.305 56.2773C134.727 55.898 134.149 54.9498 133.377 53.4324C132.606 51.915 129.522 49.4493 128.172 48.8802C126.823 48.3112 126.823 47.3629 126.437 46.9835C121.425 42.6211 116.991 44.5178 116.027 44.8971C115.063 45.2765 114.485 44.8971 114.099 44.7075C106.581 40.1554 101.761 46.6042 100.412 48.501C92.3147 51.9151 89.4229 56.2776 90.0014 62.3471C90.5795 68.4165 88.8447 70.6926 87.4951 72.0204C86.1455 73.348 86.5311 74.6758 87.6877 76.1932C89.8084 79.2279 86.1455 79.6073 84.7962 80.366C83.4466 81.1246 84.4106 83.2109 83.8322 84.1594C83.2537 85.1076 83.4466 87.0043 84.9888 88.5217C87.3022 84.1594 93.8569 82.2627 97.5198 81.504C101.183 80.7453 104.653 75.6241 107.352 73.348C110.051 71.0719 110.436 66.8989 111.979 61.3983Z" fill="#2B2B39"/>
<path opacity="0.5" d="M106.912 73.768C107.211 69.1676 108.107 63.6809 109.973 59.5284C111.12 56.9742 112.622 54.9523 114.55 53.936C116.438 52.9407 118.773 52.8912 121.664 54.3256C121.627 54.61 121.552 54.8795 121.45 55.1311C121.589 55.0933 121.738 55.0597 121.898 55.0311C121.98 54.7795 122.038 54.5128 122.064 54.2329C122.149 53.2799 121.853 52.1967 120.887 51.0627C119.849 49.8435 118.783 48.9085 117.833 48.0762C117.542 47.8212 117.262 47.5757 116.998 47.3348C116.185 46.5949 115.513 45.896 115.073 45.0777C114.884 45.0537 114.72 45.0019 114.575 44.9421C114.897 45.6508 115.372 46.2614 115.94 46.8487C115.016 46.483 113.866 46.1487 112.631 45.9869C110.178 45.6655 107.35 46.0215 105.298 48.213C103.145 50.5112 101.343 53.8041 99.8882 57.1993C98.4312 60.5973 97.3152 64.1119 96.5396 66.8642C95.7702 69.5939 94.4729 72.3653 92.749 74.5211C91.4664 76.1252 89.9561 77.3784 88.2596 78.0289C88.2356 78.1967 88.1822 78.3492 88.1048 78.4893C90.0078 77.8425 91.6726 76.4825 93.0541 74.7547C94.8161 72.5512 96.1329 69.7317 96.9127 66.965C97.6861 64.2212 98.7973 60.7232 100.245 57.3459C101.694 53.9651 103.475 50.7195 105.583 48.4691C107.271 46.6673 109.525 46.1678 111.657 46.2778C109.587 47.0573 106.085 49.0911 103.535 52.9768C101.722 55.7379 100.658 59.755 99.6001 63.7484L99.5162 64.0653C98.4242 68.1838 97.3178 72.2419 95.405 74.9566C93.8834 77.116 91.7567 78.4382 89.7092 79.2133C87.9774 79.8689 86.3098 80.1299 85.1291 80.1765C84.9783 80.2397 84.8399 80.3039 84.7198 80.3711C84.6478 80.4115 84.5823 80.4555 84.5227 80.503L84.521 80.5603C85.7404 80.5925 87.7509 80.3612 89.8487 79.5669C91.9485 78.7721 94.1469 77.4095 95.7236 75.1719C97.6836 72.3905 98.8044 68.2587 99.891 64.1605L99.9647 63.8823C101.031 59.8569 102.082 55.8907 103.86 53.1816C106.754 48.7728 110.894 46.8084 112.617 46.3675C113.895 46.5389 115.077 46.8997 115.995 47.2812C113.652 47.4157 109.83 48.6628 108.164 53.0127C107.594 54.4984 106.83 56.931 105.931 59.7897L105.863 60.0064C104.934 62.962 103.864 66.3589 102.716 69.6489C101.567 72.9396 100.341 76.1175 99.1024 78.6362C98.5598 79.7398 98.0163 80.7134 97.4777 81.5131C97.4853 81.5114 97.4929 81.5097 97.5008 81.5083C97.6782 81.4715 97.8553 81.4249 98.0318 81.3687C98.5067 80.6239 98.9809 79.7576 99.4515 78.8006C100.7 76.2616 101.931 73.0667 103.082 69.7715C104.233 66.4752 105.305 63.073 106.234 60.1179L106.297 59.9146C107.199 57.0448 107.961 54.6204 108.526 53.1457C110.325 48.452 114.74 47.5332 116.784 47.658C117.042 47.8919 117.311 48.1275 117.588 48.3701C118.534 49.1995 119.572 50.1096 120.59 51.3053C121.398 52.254 121.689 53.1392 121.69 53.9149C118.78 52.5119 116.357 52.5528 114.366 53.6025C112.327 54.6769 110.78 56.7892 109.618 59.3756C107.671 63.7088 106.773 69.4507 106.5 74.1587C106.639 74.0234 106.776 73.8929 106.912 73.768Z" fill="#1C1C2A"/>
<path opacity="0.5" d="M87.9818 76.7849C90.2192 75.9841 91.5315 74.0427 92.4063 71.6692C92.9441 70.2098 93.3214 68.5755 93.6485 66.9205C93.7787 66.2621 93.9008 65.6023 94.0216 64.9484C94.2058 63.9522 94.3874 62.9698 94.5919 62.0258C95.5489 57.6101 98.4043 51.8048 100.161 48.6339C99.9649 48.7176 99.7722 48.8019 99.5824 48.8868C97.8083 52.1468 95.139 57.6751 94.2131 61.9473C94.0078 62.8944 93.8239 63.8892 93.6386 64.8914C93.5177 65.5444 93.3966 66.2006 93.2683 66.8485C92.9421 68.4986 92.569 70.1098 92.0419 71.5407C91.1781 73.8846 89.9141 75.7132 87.79 76.449C87.8626 76.5651 87.9265 76.677 87.9818 76.7849Z" fill="#1C1C2A"/>
<path d="M135.708 68.3567C135.989 68.3787 136.273 68.3931 136.555 68.401C137.125 68.4171 137.697 68.4064 138.245 68.3781C138.261 68.2499 138.278 68.1225 138.3 67.996C137.738 68.0265 137.151 68.0389 136.566 68.0225C136.272 68.0143 135.981 67.9988 135.694 67.9753C135.697 68.0722 135.702 68.2013 135.708 68.3567Z" fill="#3A0A44"/>
<path d="M131.995 62.9582C134.49 64.1795 136.934 64.4583 138.548 64.3982C138.476 64.2626 138.399 64.1601 138.33 64.0917L138.332 64.0646L138.335 64.0253C136.653 64.0561 134.119 63.7101 131.592 62.3207C131.671 62.3933 131.751 62.4653 131.834 62.5365C131.882 62.6766 131.936 62.8172 131.995 62.9582Z" fill="#3A0A44"/>
<path opacity="0.5" d="M118.783 49.1945C119.65 48.2172 122.347 46.7734 126.776 47.6518C126.847 47.7924 126.929 47.9427 127.038 48.0939C122.511 47.0914 119.849 48.568 119.072 49.4439L118.783 49.1945Z" fill="#1C1C2A"/>
<path opacity="0.5" d="M134.45 58.6087C134.937 58.6982 135.429 58.6313 135.92 58.3353C135.897 58.4228 135.868 58.5112 135.832 58.5994C135.929 58.5994 136.048 58.6047 136.181 58.6203C135.598 58.992 134.992 59.0934 134.38 58.981C133.519 58.8228 132.681 58.2466 131.904 57.5046C130.692 56.3473 129.567 54.7229 128.681 53.4431C128.431 53.0815 128.2 52.7477 127.991 52.4596C127.285 51.4855 126.099 51.291 124.838 51.4809C123.581 51.6702 122.308 52.2361 121.522 52.7013L121.324 52.3765C122.139 51.8946 123.46 51.3053 124.78 51.1064C126.097 50.9081 127.472 51.0923 128.304 52.2395C128.521 52.5401 128.759 52.8832 129.014 53.2516C129.899 54.5289 130.991 56.1055 132.171 57.2323C132.931 57.9579 133.702 58.4708 134.45 58.6087Z" fill="#1C1C2A"/>
<path d="M121.725 49.7983C122.884 48.9073 125.781 47.8509 128.098 50.7529C130.416 53.6552 132.669 55.5265 133.506 56.0993M124.429 53.6173C126.167 54.0627 129.914 55.5646 130.995 58.0084C132.347 61.0632 134.858 62.9726 136.789 62.7817M135.244 64.6908C135.566 65.2001 136.48 66.0656 137.562 65.4546M120.76 45.9801C121.597 45.8528 123.502 45.7128 124.429 46.171" stroke="#151523" stroke-width="0.567695"/>
<path d="M117.135 49.7163C114.571 49.6531 108.902 51.5376 106.748 59.5813M106.171 52.9415C104.696 55.6605 101.477 62.2372 100.4 66.7902C99.0534 72.4814 98.0916 79.6906 88.4736 81.2083M90.3975 71.5329C91.2951 70.1418 92.9749 66.5247 92.5134 63.1857C91.9363 59.0121 92.7057 55.0283 96.1681 52.7517M111.942 44.9735C108.543 44.7206 101.362 45.8842 99.8231 52.5619C98.284 59.2398 94.9498 67.7387 93.4751 71.1533" stroke="#151523" stroke-width="0.567695"/>
</g>
<path d="M79.9746 251.982H75.8191L75.1315 253.97H72.9342L76.6861 243.522H79.1226L82.8744 253.97H80.6622L79.9746 251.982ZM79.4066 250.308L77.8968 245.943L76.3871 250.308H79.4066ZM88.8658 245.569C89.8523 245.569 90.6495 245.883 91.2574 246.511C91.8653 247.129 92.1692 247.996 92.1692 249.112V253.97H90.0765V249.396C90.0765 248.738 89.9121 248.235 89.5833 247.886C89.2544 247.528 88.806 247.348 88.238 247.348C87.66 247.348 87.2016 247.528 86.8628 247.886C86.5339 248.235 86.3695 248.738 86.3695 249.396V253.97H84.2768V245.689H86.3695V246.72C86.6485 246.362 87.0023 246.083 87.4308 245.883C87.8693 245.674 88.3476 245.569 88.8658 245.569ZM98.7482 245.569C99.7348 245.569 100.532 245.883 101.14 246.511C101.748 247.129 102.052 247.996 102.052 249.112V253.97H99.959V249.396C99.959 248.738 99.7945 248.235 99.4657 247.886C99.1368 247.528 98.6884 247.348 98.1204 247.348C97.5424 247.348 97.084 247.528 96.7452 247.886C96.4164 248.235 96.2519 248.738 96.2519 249.396V253.97H94.1593V245.689H96.2519V246.72C96.531 246.362 96.8847 246.083 97.3132 245.883C97.7517 245.674 98.23 245.569 98.7482 245.569ZM105.103 244.702C104.734 244.702 104.425 244.588 104.176 244.359C103.937 244.119 103.817 243.825 103.817 243.477C103.817 243.128 103.937 242.839 104.176 242.61C104.425 242.371 104.734 242.251 105.103 242.251C105.472 242.251 105.776 242.371 106.015 242.61C106.264 242.839 106.388 243.128 106.388 243.477C106.388 243.825 106.264 244.119 106.015 244.359C105.776 244.588 105.472 244.702 105.103 244.702ZM106.134 245.689V253.97H104.042V245.689H106.134ZM115.9 249.65C115.9 249.949 115.88 250.218 115.84 250.457H109.786C109.836 251.055 110.045 251.524 110.414 251.862C110.783 252.201 111.236 252.371 111.774 252.371C112.552 252.371 113.105 252.037 113.434 251.369H115.691C115.452 252.166 114.993 252.824 114.316 253.342C113.638 253.85 112.806 254.105 111.819 254.105C111.022 254.105 110.305 253.93 109.667 253.581C109.039 253.223 108.546 252.719 108.187 252.072C107.838 251.424 107.664 250.676 107.664 249.829C107.664 248.972 107.838 248.22 108.187 247.572C108.536 246.925 109.024 246.426 109.652 246.078C110.28 245.729 111.002 245.554 111.819 245.554C112.607 245.554 113.309 245.724 113.927 246.063C114.555 246.401 115.038 246.885 115.377 247.513C115.726 248.13 115.9 248.843 115.9 249.65ZM113.733 249.052C113.723 248.514 113.528 248.086 113.15 247.767C112.771 247.438 112.308 247.273 111.759 247.273C111.241 247.273 110.803 247.433 110.444 247.752C110.095 248.061 109.881 248.494 109.801 249.052H113.733ZM120.481 248.738C120.481 247.712 120.71 246.795 121.169 245.988C121.637 245.171 122.27 244.538 123.067 244.09C123.874 243.631 124.776 243.402 125.773 243.402C126.938 243.402 127.96 243.701 128.837 244.299C129.714 244.897 130.327 245.724 130.675 246.78H128.269C128.03 246.282 127.691 245.908 127.252 245.659C126.824 245.41 126.326 245.285 125.758 245.285C125.15 245.285 124.607 245.43 124.128 245.719C123.66 245.998 123.291 246.396 123.022 246.915C122.763 247.433 122.633 248.041 122.633 248.738C122.633 249.426 122.763 250.034 123.022 250.562C123.291 251.08 123.66 251.484 124.128 251.773C124.607 252.052 125.15 252.191 125.758 252.191C126.326 252.191 126.824 252.067 127.252 251.818C127.691 251.558 128.03 251.18 128.269 250.681H130.675C130.327 251.748 129.714 252.58 128.837 253.178C127.97 253.766 126.948 254.06 125.773 254.06C124.776 254.06 123.874 253.835 123.067 253.387C122.27 252.929 121.637 252.296 121.169 251.489C120.71 250.681 120.481 249.765 120.481 248.738ZM131.925 249.8C131.925 248.962 132.089 248.22 132.418 247.572C132.757 246.925 133.21 246.426 133.778 246.078C134.356 245.729 134.999 245.554 135.706 245.554C136.324 245.554 136.862 245.679 137.321 245.928C137.789 246.177 138.163 246.491 138.442 246.87V245.689H140.549V253.97H138.442V252.759C138.173 253.148 137.799 253.472 137.321 253.731C136.852 253.98 136.309 254.105 135.691 254.105C134.994 254.105 134.356 253.925 133.778 253.566C133.21 253.208 132.757 252.704 132.418 252.057C132.089 251.399 131.925 250.647 131.925 249.8ZM138.442 249.829C138.442 249.321 138.342 248.888 138.143 248.529C137.944 248.16 137.675 247.881 137.336 247.692C136.997 247.493 136.633 247.393 136.245 247.393C135.856 247.393 135.497 247.488 135.168 247.677C134.839 247.866 134.57 248.145 134.361 248.514C134.162 248.873 134.062 249.301 134.062 249.8C134.062 250.298 134.162 250.736 134.361 251.115C134.57 251.484 134.839 251.768 135.168 251.967C135.507 252.166 135.866 252.266 136.245 252.266C136.633 252.266 136.997 252.171 137.336 251.982C137.675 251.783 137.944 251.504 138.143 251.145C138.342 250.776 138.442 250.338 138.442 249.829ZM144.686 246.974C144.955 246.536 145.304 246.192 145.732 245.943C146.171 245.694 146.669 245.569 147.227 245.569V247.767H146.674C146.016 247.767 145.518 247.921 145.179 248.23C144.85 248.539 144.686 249.077 144.686 249.844V253.97H142.593V245.689H144.686V246.974ZM151.073 247.408V251.414C151.073 251.693 151.138 251.897 151.267 252.027C151.407 252.146 151.636 252.206 151.955 252.206H152.927V253.97H151.611C149.847 253.97 148.966 253.113 148.966 251.399V247.408H147.979V245.689H148.966V243.641H151.073V245.689H152.927V247.408H151.073ZM162.13 249.65C162.13 249.949 162.11 250.218 162.07 250.457H156.016C156.066 251.055 156.275 251.524 156.644 251.862C157.013 252.201 157.466 252.371 158.004 252.371C158.782 252.371 159.335 252.037 159.664 251.369H161.921C161.681 252.166 161.223 252.824 160.545 253.342C159.868 253.85 159.036 254.105 158.049 254.105C157.252 254.105 156.534 253.93 155.897 253.581C155.269 253.223 154.776 252.719 154.417 252.072C154.068 251.424 153.894 250.676 153.894 249.829C153.894 248.972 154.068 248.22 154.417 247.572C154.766 246.925 155.254 246.426 155.882 246.078C156.51 245.729 157.232 245.554 158.049 245.554C158.836 245.554 159.539 245.724 160.157 246.063C160.785 246.401 161.268 246.885 161.607 247.513C161.955 248.13 162.13 248.843 162.13 249.65ZM159.962 249.052C159.953 248.514 159.758 248.086 159.38 247.767C159.001 247.438 158.537 247.273 157.989 247.273C157.471 247.273 157.033 247.433 156.674 247.752C156.325 248.061 156.111 248.494 156.031 249.052H159.962ZM165.75 246.974C166.019 246.536 166.368 246.192 166.796 245.943C167.235 245.694 167.733 245.569 168.291 245.569V247.767H167.738C167.08 247.767 166.582 247.921 166.243 248.23C165.914 248.539 165.75 249.077 165.75 249.844V253.97H163.657V245.689H165.75V246.974ZM33.4748 275.075C32.7474 275.075 32.0897 274.95 31.5017 274.701C30.9237 274.452 30.4653 274.093 30.1265 273.625C29.7877 273.156 29.6133 272.603 29.6034 271.965H31.8455C31.8754 272.394 32.0249 272.733 32.2939 272.982C32.573 273.231 32.9516 273.356 33.43 273.356C33.9183 273.356 34.3019 273.241 34.5809 273.012C34.86 272.773 34.9995 272.464 34.9995 272.085C34.9995 271.776 34.9048 271.522 34.7155 271.323C34.5261 271.123 34.287 270.969 33.998 270.859C33.719 270.74 33.3303 270.61 32.8321 270.471C32.1544 270.271 31.6014 270.077 31.1729 269.888C30.7543 269.688 30.3906 269.394 30.0817 269.006C29.7827 268.607 29.6333 268.079 29.6333 267.421C29.6333 266.804 29.7877 266.265 30.0966 265.807C30.4056 265.349 30.839 265 31.3971 264.761C31.9551 264.512 32.5929 264.387 33.3104 264.387C34.3866 264.387 35.2586 264.651 35.9262 265.179C36.6039 265.697 36.9776 266.425 37.0473 267.362H34.7454C34.7254 267.003 34.571 266.709 34.282 266.48C34.003 266.241 33.6293 266.121 33.1609 266.121C32.7523 266.121 32.4235 266.226 32.1744 266.435C31.9352 266.644 31.8156 266.948 31.8156 267.347C31.8156 267.626 31.9053 267.86 32.0847 268.049C32.274 268.229 32.5032 268.378 32.7723 268.498C33.0513 268.607 33.4399 268.737 33.9382 268.886C34.6158 269.086 35.1689 269.285 35.5974 269.484C36.0259 269.683 36.3946 269.982 36.7035 270.381C37.0124 270.78 37.1669 271.303 37.1669 271.951C37.1669 272.509 37.0224 273.027 36.7334 273.505C36.4444 273.983 36.0209 274.367 35.4629 274.656C34.9048 274.935 34.2421 275.075 33.4748 275.075ZM46.6793 270.65C46.6793 270.949 46.6593 271.218 46.6195 271.457H40.5656C40.6155 272.055 40.8247 272.524 41.1934 272.862C41.5622 273.201 42.0156 273.371 42.5537 273.371C43.331 273.371 43.884 273.037 44.2129 272.369H46.47C46.2308 273.166 45.7724 273.824 45.0948 274.342C44.4172 274.85 43.5851 275.105 42.5985 275.105C41.8013 275.105 41.0838 274.93 40.4461 274.581C39.8183 274.223 39.325 273.719 38.9662 273.072C38.6175 272.424 38.4431 271.676 38.4431 270.829C38.4431 269.972 38.6175 269.22 38.9662 268.572C39.315 267.925 39.8033 267.426 40.4311 267.078C41.0589 266.729 41.7814 266.554 42.5985 266.554C43.3858 266.554 44.0883 266.724 44.7062 267.063C45.334 267.401 45.8173 267.885 46.1561 268.513C46.5049 269.13 46.6793 269.843 46.6793 270.65ZM44.5118 270.052C44.5019 269.514 44.3075 269.086 43.9289 268.767C43.5502 268.438 43.0868 268.273 42.5387 268.273C42.0205 268.273 41.5821 268.433 41.2233 268.752C40.8746 269.061 40.6603 269.494 40.5806 270.052H44.5118ZM52.7957 266.569C53.7822 266.569 54.5794 266.883 55.1873 267.511C55.7952 268.129 56.0991 268.996 56.0991 270.112V274.97H54.0064V270.396C54.0064 269.738 53.842 269.235 53.5132 268.886C53.1843 268.528 52.7359 268.348 52.1679 268.348C51.5899 268.348 51.1315 268.528 50.7927 268.886C50.4638 269.235 50.2994 269.738 50.2994 270.396V274.97H48.2067V266.689H50.2994V267.72C50.5784 267.362 50.9322 267.083 51.3607 266.883C51.7992 266.674 52.2775 266.569 52.7957 266.569ZM59.1504 265.702C58.7817 265.702 58.4728 265.588 58.2237 265.359C57.9845 265.119 57.8649 264.825 57.8649 264.477C57.8649 264.128 57.9845 263.839 58.2237 263.61C58.4728 263.371 58.7817 263.251 59.1504 263.251C59.5191 263.251 59.8231 263.371 60.0622 263.61C60.3114 263.839 60.4359 264.128 60.4359 264.477C60.4359 264.825 60.3114 265.119 60.0622 265.359C59.8231 265.588 59.5191 265.702 59.1504 265.702ZM60.1818 266.689V274.97H58.0891V266.689H60.1818ZM65.9265 275.105C65.1293 275.105 64.4118 274.93 63.7741 274.581C63.1363 274.223 62.6331 273.719 62.2643 273.072C61.9056 272.424 61.7262 271.676 61.7262 270.829C61.7262 269.982 61.9106 269.235 62.2793 268.587C62.658 267.94 63.1712 267.441 63.8189 267.093C64.4666 266.734 65.1891 266.554 65.9863 266.554C66.7835 266.554 67.506 266.734 68.1537 267.093C68.8015 267.441 69.3097 267.94 69.6784 268.587C70.0571 269.235 70.2464 269.982 70.2464 270.829C70.2464 271.676 70.0521 272.424 69.6635 273.072C69.2848 273.719 68.7666 274.223 68.1089 274.581C67.4612 274.93 66.7337 275.105 65.9265 275.105ZM65.9265 273.281C66.3052 273.281 66.659 273.191 66.9878 273.012C67.3266 272.822 67.5957 272.543 67.795 272.175C67.9943 271.806 68.0939 271.358 68.0939 270.829C68.0939 270.042 67.8847 269.439 67.4661 269.021C67.0576 268.592 66.5543 268.378 65.9564 268.378C65.3585 268.378 64.8553 268.592 64.4467 269.021C64.0481 269.439 63.8488 270.042 63.8488 270.829C63.8488 271.617 64.0431 272.225 64.4318 272.653C64.8304 273.072 65.3286 273.281 65.9265 273.281ZM73.8742 267.974C74.1432 267.536 74.492 267.192 74.9205 266.943C75.359 266.694 75.8572 266.569 76.4153 266.569V268.767H75.8622C75.2045 268.767 74.7062 268.921 74.3674 269.23C74.0386 269.539 73.8742 270.077 73.8742 270.844V274.97H71.7815V266.689H73.8742V267.974ZM88.9949 267.765C88.9949 268.323 88.8604 268.846 88.5914 269.335C88.3323 269.823 87.9187 270.217 87.3507 270.516C86.7926 270.815 86.0851 270.964 85.2281 270.964H83.4792V274.97H81.3866V264.536H85.2281C86.0353 264.536 86.7229 264.676 87.2909 264.955C87.8589 265.234 88.2824 265.618 88.5615 266.106C88.8504 266.594 88.9949 267.147 88.9949 267.765ZM85.1384 269.275C85.7164 269.275 86.1449 269.145 86.4239 268.886C86.703 268.617 86.8425 268.244 86.8425 267.765C86.8425 266.749 86.2745 266.241 85.1384 266.241H83.4792V269.275H85.1384ZM92.5734 267.974C92.8425 267.536 93.1912 267.192 93.6197 266.943C94.0582 266.694 94.5565 266.569 95.1145 266.569V268.767H94.5614C93.9037 268.767 93.4055 268.921 93.0667 269.23C92.7378 269.539 92.5734 270.077 92.5734 270.844V274.97H90.4807V266.689H92.5734V267.974ZM100.201 275.105C99.404 275.105 98.6865 274.93 98.0487 274.581C97.4109 274.223 96.9077 273.719 96.539 273.072C96.1802 272.424 96.0009 271.676 96.0009 270.829C96.0009 269.982 96.1852 269.235 96.5539 268.587C96.9326 267.94 97.4458 267.441 98.0935 267.093C98.7413 266.734 99.4637 266.554 100.261 266.554C101.058 266.554 101.781 266.734 102.428 267.093C103.076 267.441 103.584 267.94 103.953 268.587C104.332 269.235 104.521 269.982 104.521 270.829C104.521 271.676 104.327 272.424 103.938 273.072C103.559 273.719 103.041 274.223 102.384 274.581C101.736 274.93 101.008 275.105 100.201 275.105ZM100.201 273.281C100.58 273.281 100.934 273.191 101.262 273.012C101.601 272.822 101.87 272.543 102.07 272.175C102.269 271.806 102.369 271.358 102.369 270.829C102.369 270.042 102.159 269.439 101.741 269.021C101.332 268.592 100.829 268.378 100.231 268.378C99.6332 268.378 99.1299 268.592 98.7213 269.021C98.3227 269.439 98.1234 270.042 98.1234 270.829C98.1234 271.617 98.3178 272.225 98.7064 272.653C99.105 273.072 99.6033 273.281 100.201 273.281ZM105.518 270.8C105.518 269.962 105.682 269.22 106.011 268.572C106.35 267.925 106.808 267.426 107.386 267.078C107.964 266.729 108.607 266.554 109.315 266.554C109.853 266.554 110.366 266.674 110.854 266.913C111.343 267.142 111.731 267.451 112.02 267.84V263.909H114.143V274.97H112.02V273.744C111.761 274.153 111.397 274.482 110.929 274.731C110.461 274.98 109.918 275.105 109.3 275.105C108.602 275.105 107.964 274.925 107.386 274.566C106.808 274.208 106.35 273.704 106.011 273.057C105.682 272.399 105.518 271.647 105.518 270.8ZM112.035 270.829C112.035 270.321 111.936 269.888 111.736 269.529C111.537 269.16 111.268 268.881 110.929 268.692C110.59 268.493 110.227 268.393 109.838 268.393C109.449 268.393 109.091 268.488 108.762 268.677C108.433 268.866 108.164 269.145 107.954 269.514C107.755 269.873 107.656 270.301 107.656 270.8C107.656 271.298 107.755 271.736 107.954 272.115C108.164 272.484 108.433 272.768 108.762 272.967C109.1 273.166 109.459 273.266 109.838 273.266C110.227 273.266 110.59 273.171 110.929 272.982C111.268 272.783 111.537 272.504 111.736 272.145C111.936 271.776 112.035 271.338 112.035 270.829ZM124.004 266.689V274.97H121.897V273.924C121.628 274.282 121.274 274.566 120.835 274.776C120.407 274.975 119.939 275.075 119.43 275.075C118.783 275.075 118.21 274.94 117.711 274.671C117.213 274.392 116.819 273.988 116.53 273.46C116.251 272.922 116.112 272.284 116.112 271.547V266.689H118.205V271.248C118.205 271.906 118.369 272.414 118.698 272.773C119.027 273.121 119.475 273.296 120.043 273.296C120.621 273.296 121.075 273.121 121.403 272.773C121.732 272.414 121.897 271.906 121.897 271.248V266.689H124.004ZM125.531 270.829C125.531 269.972 125.705 269.225 126.054 268.587C126.403 267.94 126.886 267.441 127.504 267.093C128.122 266.734 128.829 266.554 129.627 266.554C130.653 266.554 131.5 266.814 132.168 267.332C132.845 267.84 133.299 268.557 133.528 269.484H131.271C131.151 269.125 130.947 268.846 130.658 268.647C130.379 268.438 130.03 268.333 129.612 268.333C129.014 268.333 128.54 268.552 128.192 268.991C127.843 269.419 127.669 270.032 127.669 270.829C127.669 271.617 127.843 272.23 128.192 272.668C128.54 273.097 129.014 273.311 129.612 273.311C130.459 273.311 131.012 272.932 131.271 272.175H133.528C133.299 273.072 132.845 273.784 132.168 274.312C131.49 274.84 130.643 275.105 129.627 275.105C128.829 275.105 128.122 274.93 127.504 274.581C126.886 274.223 126.403 273.724 126.054 273.087C125.705 272.439 125.531 271.686 125.531 270.829ZM137.498 268.408V272.414C137.498 272.693 137.562 272.897 137.692 273.027C137.831 273.146 138.061 273.206 138.379 273.206H139.351V274.97H138.036C136.272 274.97 135.39 274.113 135.39 272.399V268.408H134.403V266.689H135.39V264.641H137.498V266.689H139.351V268.408H137.498ZM155.793 264.536V274.97H153.701V268.184L150.905 274.97H149.321L146.511 268.184V274.97H144.418V264.536H146.795L150.113 272.294L153.431 264.536H155.793ZM157.324 270.8C157.324 269.962 157.489 269.22 157.817 268.572C158.156 267.925 158.61 267.426 159.178 267.078C159.756 266.729 160.398 266.554 161.106 266.554C161.724 266.554 162.262 266.679 162.72 266.928C163.189 267.177 163.562 267.491 163.841 267.87V266.689H165.949V274.97H163.841V273.759C163.572 274.148 163.199 274.472 162.72 274.731C162.252 274.98 161.709 275.105 161.091 275.105C160.393 275.105 159.756 274.925 159.178 274.566C158.61 274.208 158.156 273.704 157.817 273.057C157.489 272.399 157.324 271.647 157.324 270.8ZM163.841 270.829C163.841 270.321 163.742 269.888 163.542 269.529C163.343 269.16 163.074 268.881 162.735 268.692C162.396 268.493 162.033 268.393 161.644 268.393C161.255 268.393 160.897 268.488 160.568 268.677C160.239 268.866 159.97 269.145 159.761 269.514C159.561 269.873 159.462 270.301 159.462 270.8C159.462 271.298 159.561 271.736 159.761 272.115C159.97 272.484 160.239 272.768 160.568 272.967C160.907 273.166 161.265 273.266 161.644 273.266C162.033 273.266 162.396 273.171 162.735 272.982C163.074 272.783 163.343 272.504 163.542 272.145C163.742 271.776 163.841 271.338 163.841 270.829ZM172.582 266.569C173.568 266.569 174.365 266.883 174.973 267.511C175.581 268.129 175.885 268.996 175.885 270.112V274.97H173.792V270.396C173.792 269.738 173.628 269.235 173.299 268.886C172.97 268.528 172.522 268.348 171.954 268.348C171.376 268.348 170.918 268.528 170.579 268.886C170.25 269.235 170.085 269.738 170.085 270.396V274.97H167.993V266.689H170.085V267.72C170.364 267.362 170.718 267.083 171.147 266.883C171.585 266.674 172.064 266.569 172.582 266.569ZM177.337 270.8C177.337 269.962 177.502 269.22 177.83 268.572C178.169 267.925 178.623 267.426 179.191 267.078C179.769 266.729 180.411 266.554 181.119 266.554C181.737 266.554 182.275 266.679 182.733 266.928C183.202 267.177 183.575 267.491 183.854 267.87V266.689H185.962V274.97H183.854V273.759C183.585 274.148 183.212 274.472 182.733 274.731C182.265 274.98 181.722 275.105 181.104 275.105C180.406 275.105 179.769 274.925 179.191 274.566C178.623 274.208 178.169 273.704 177.83 273.057C177.502 272.399 177.337 271.647 177.337 270.8ZM183.854 270.829C183.854 270.321 183.755 269.888 183.555 269.529C183.356 269.16 183.087 268.881 182.748 268.692C182.409 268.493 182.046 268.393 181.657 268.393C181.268 268.393 180.91 268.488 180.581 268.677C180.252 268.866 179.983 269.145 179.774 269.514C179.574 269.873 179.475 270.301 179.475 270.8C179.475 271.298 179.574 271.736 179.774 272.115C179.983 272.484 180.252 272.768 180.581 272.967C180.92 273.166 181.278 273.266 181.657 273.266C182.046 273.266 182.409 273.171 182.748 272.982C183.087 272.783 183.356 272.504 183.555 272.145C183.755 271.776 183.854 271.338 183.854 270.829ZM191.249 266.554C191.867 266.554 192.41 266.679 192.879 266.928C193.347 267.167 193.716 267.481 193.985 267.87V266.689H196.093V275.03C196.093 275.797 195.938 276.48 195.629 277.078C195.32 277.685 194.857 278.164 194.239 278.513C193.621 278.871 192.874 279.051 191.997 279.051C190.821 279.051 189.854 278.777 189.097 278.229C188.35 277.68 187.926 276.933 187.826 275.986H189.904C190.014 276.365 190.248 276.664 190.607 276.883C190.975 277.112 191.419 277.227 191.937 277.227C192.545 277.227 193.038 277.043 193.417 276.674C193.796 276.315 193.985 275.767 193.985 275.03V273.744C193.716 274.133 193.342 274.457 192.864 274.716C192.395 274.975 191.857 275.105 191.249 275.105C190.552 275.105 189.914 274.925 189.336 274.566C188.758 274.208 188.3 273.704 187.961 273.057C187.632 272.399 187.468 271.647 187.468 270.8C187.468 269.962 187.632 269.22 187.961 268.572C188.3 267.925 188.753 267.426 189.321 267.078C189.899 266.729 190.542 266.554 191.249 266.554ZM193.985 270.829C193.985 270.321 193.885 269.888 193.686 269.529C193.487 269.16 193.218 268.881 192.879 268.692C192.54 268.493 192.176 268.393 191.788 268.393C191.399 268.393 191.04 268.488 190.711 268.677C190.382 268.866 190.113 269.145 189.904 269.514C189.705 269.873 189.605 270.301 189.605 270.8C189.605 271.298 189.705 271.736 189.904 272.115C190.113 272.484 190.382 272.768 190.711 272.967C191.05 273.166 191.409 273.266 191.788 273.266C192.176 273.266 192.54 273.171 192.879 272.982C193.218 272.783 193.487 272.504 193.686 272.145C193.885 271.776 193.985 271.338 193.985 270.829ZM205.834 270.65C205.834 270.949 205.815 271.218 205.775 271.457H199.721C199.771 272.055 199.98 272.524 200.349 272.862C200.717 273.201 201.171 273.371 201.709 273.371C202.486 273.371 203.039 273.037 203.368 272.369H205.625C205.386 273.166 204.928 273.824 204.25 274.342C203.572 274.85 202.74 275.105 201.754 275.105C200.957 275.105 200.239 274.93 199.601 274.581C198.973 274.223 198.48 273.719 198.121 273.072C197.773 272.424 197.598 271.676 197.598 270.829C197.598 269.972 197.773 269.22 198.121 268.572C198.47 267.925 198.958 267.426 199.586 267.078C200.214 266.729 200.937 266.554 201.754 266.554C202.541 266.554 203.244 266.724 203.861 267.063C204.489 267.401 204.972 267.885 205.311 268.513C205.66 269.13 205.834 269.843 205.834 270.65ZM203.667 270.052C203.657 269.514 203.463 269.086 203.084 268.767C202.705 268.438 202.242 268.273 201.694 268.273C201.176 268.273 200.737 268.433 200.379 268.752C200.03 269.061 199.815 269.494 199.736 270.052H203.667ZM209.455 267.974C209.724 267.536 210.072 267.192 210.501 266.943C210.939 266.694 211.438 266.569 211.996 266.569V268.767H211.443C210.785 268.767 210.287 268.921 209.948 269.23C209.619 269.539 209.455 270.077 209.455 270.844V274.97H207.362V266.689H209.455V267.974Z" fill="black"/>
<g clip-path="url(#clip0_164_113)">
<path d="M117.594 209.282L124.553 216.241L131.511 223.199L119.592 228.16L107.673 233.12L112.633 221.202L117.594 209.282Z" fill="#F1B31C"/>
<path d="M125.245 217.486L117.323 209.552L112.174 221.66L107.025 233.768L125.245 217.486Z" fill="#FCEA2B"/>
<path d="M111.529 223.18L117.653 229.304L114.591 230.551L110.274 226.234L111.529 223.18Z" fill="#EA5A47"/>
<path d="M112.702 228.696L114.591 230.55L117.653 229.304L114.995 226.646L112.702 228.696Z" fill="#D22F27"/>
<path d="M114.619 215.916L118.326 219.623L124.803 226.099L121.33 227.685L116.806 223.161L113.149 219.504L114.619 215.916Z" fill="#EA5A47"/>
<path d="M117.792 224.147L121.33 227.685L124.802 226.099L120.463 221.76L117.792 224.147Z" fill="#D22F27"/>
<path d="M119.872 207.205C120.483 207.205 120.979 206.716 120.979 206.114C120.979 205.511 120.483 205.023 119.872 205.023C119.26 205.023 118.765 205.511 118.765 206.114C118.765 206.716 119.26 207.205 119.872 207.205Z" fill="#8967AA"/>
<path d="M136.481 209.419C137.092 209.419 137.588 208.931 137.588 208.328C137.588 207.726 137.092 207.237 136.481 207.237C135.869 207.237 135.374 207.726 135.374 208.328C135.374 208.931 135.869 209.419 136.481 209.419Z" fill="#F1B31C"/>
<path d="M134.82 221.045C135.432 221.045 135.927 220.557 135.927 219.954C135.927 219.352 135.432 218.863 134.82 218.863C134.209 218.863 133.713 219.352 133.713 219.954C133.713 220.557 134.209 221.045 134.82 221.045Z" fill="#D22F27"/>
<path d="M133.451 220.543L133.544 220.637L121.437 225.786L109.329 230.935L114.478 218.827L119.627 206.719" stroke="black" stroke-width="2.49129" stroke-miterlimit="10" stroke-linecap="round" stroke-linejoin="round"/>
<path d="M119.687 206.78L126.586 213.678L133.451 220.543M119.627 206.719L119.687 206.78M131.141 199.355C131.271 199.604 131.364 199.877 131.412 200.171C131.662 201.691 130.611 203.168 129.066 203.468" stroke="black" stroke-width="2.49129" stroke-miterlimit="10" stroke-linecap="round" stroke-linejoin="round"/>
<path d="M129.172 203.457C128.884 203.479 128.602 203.547 128.336 203.658C126.914 204.252 126.217 205.924 126.78 207.395M139.613 210.068C139.556 210.35 139.455 210.622 139.312 210.873C138.553 212.214 136.808 212.705 135.417 211.969" stroke="black" stroke-width="2.49129" stroke-miterlimit="10" stroke-linecap="round" stroke-linejoin="round"/>
<path d="M135.506 212.027C135.268 211.864 135.006 211.74 134.729 211.66C133.249 211.229 131.657 212.096 131.174 213.594" stroke="black" stroke-width="2.49129" stroke-miterlimit="10" stroke-linecap="round" stroke-linejoin="round"/>
</g>
<defs>
<filter id="filter0_d_164_113" x="3.39731" y="0.416566" width="220.917" height="220.917" filterUnits="userSpaceOnUse" color-interpolation-filters="sRGB">
<feFlood flood-opacity="0" result="BackgroundImageFix"/>
<feColorMatrix in="SourceAlpha" type="matrix" values="0 0 0 0 0 0 0 0 0 0 0 0 0 0 0 0 0 0 127 0" result="hardAlpha"/>
<feOffset dy="-12.0635"/>
<feGaussianBlur stdDeviation="20.5789"/>
<feColorMatrix type="matrix" values="0 0 0 0 0.696557 0 0 0 0 0.836898 0 0 0 0 0.818186 0 0 0 0.05 0"/>
<feBlend mode="normal" in2="BackgroundImageFix" result="effect1_dropShadow_164_113"/>
<feBlend mode="normal" in="SourceGraphic" in2="effect1_dropShadow_164_113" result="shape"/>
</filter>
<clipPath id="clip0_164_113">
<rect width="39.8606" height="39.8606" fill="white" transform="translate(103.1 198.109)"/>
</clipPath>
</defs>
</svg>
