<svg width="71" height="71" viewBox="0 0 71 71" fill="none" xmlns="http://www.w3.org/2000/svg">
<path d="M25.8166 19.9009L38.2111 32.2953L50.6055 44.6897L29.3745 53.5263L8.14453 62.3618L16.9801 41.1319L25.8166 19.9009Z" fill="#F1B31C"/>
<path d="M39.4431 34.514L25.3339 20.3821L16.1621 41.9483L6.99023 63.5146L39.4431 34.514Z" fill="#FCEA2B"/>
<path d="M15.0128 44.656L25.9212 55.5644L20.467 57.7841L12.7783 50.0954L15.0128 44.656Z" fill="#EA5A47"/>
<path d="M17.1016 54.4807L20.4662 57.7841L25.9204 55.5644L21.186 50.8301L17.1016 54.4807Z" fill="#D22F27"/>
<path d="M20.5166 31.7163L27.1196 38.3193L38.6561 49.8558L32.4702 52.68L24.4127 44.6215L17.8984 38.1083L20.5166 31.7163Z" fill="#EA5A47"/>
<path d="M26.1689 46.3778L32.4702 52.6801L38.6561 49.8558L30.9269 42.1267L26.1689 46.3778Z" fill="#D22F27"/>
<path d="M29.8746 16.201C30.9638 16.201 31.8468 15.3308 31.8468 14.2573C31.8468 13.1839 30.9638 12.3137 29.8746 12.3137C28.7853 12.3137 27.9023 13.1839 27.9023 14.2573C27.9023 15.3308 28.7853 16.201 29.8746 16.201Z" fill="#8967AA"/>
<path d="M59.4566 20.1453C60.5458 20.1453 61.4288 19.2751 61.4288 18.2017C61.4288 17.1282 60.5458 16.2581 59.4566 16.2581C58.3674 16.2581 57.4844 17.1282 57.4844 18.2017C57.4844 19.2751 58.3674 20.1453 59.4566 20.1453Z" fill="#F1B31C"/>
<path d="M56.4996 40.8538C57.5888 40.8538 58.4718 39.9836 58.4718 38.9102C58.4718 37.8367 57.5888 36.9666 56.4996 36.9666C55.4103 36.9666 54.5273 37.8367 54.5273 38.9102C54.5273 39.9836 55.4103 40.8538 56.4996 40.8538Z" fill="#D22F27"/>
<path d="M54.0606 39.9594L54.2263 40.126L32.66 49.2979L11.0928 58.4697L20.2646 36.9024L29.4364 15.3362" stroke="black" stroke-width="2.56" stroke-miterlimit="10" stroke-linecap="round" stroke-linejoin="round"/>
<path d="M29.544 15.4437L41.8319 27.7307L54.0607 39.9594M29.4365 15.3362L29.544 15.4437M49.9457 2.21899C50.1774 2.66176 50.3431 3.1489 50.4289 3.67154C50.8736 6.38038 49.002 9.01034 46.2487 9.5458" stroke="black" stroke-width="2.56" stroke-miterlimit="10" stroke-linecap="round" stroke-linejoin="round"/>
<path d="M46.4387 9.52515C45.9264 9.56445 45.4237 9.68563 44.9497 9.88409C42.4164 10.9412 41.1759 13.9202 42.1787 16.5403M65.0368 21.3003C64.936 21.8038 64.7553 22.2878 64.5013 22.7341C63.1484 25.1235 60.0412 25.9981 57.5621 24.6866" stroke="black" stroke-width="2.56" stroke-miterlimit="10" stroke-linecap="round" stroke-linejoin="round"/>
<path d="M57.7192 24.7901C57.2959 24.4997 56.8289 24.279 56.3357 24.1363C53.6999 23.3691 50.8638 24.9124 50.0029 27.5808" stroke="black" stroke-width="2.56" stroke-miterlimit="10" stroke-linecap="round" stroke-linejoin="round"/>
</svg>
