<svg width="295" height="260" viewBox="0 0 295 260" fill="none" xmlns="http://www.w3.org/2000/svg">
<path opacity="0.7" d="M63.3303 92.0614L168.839 229.767L249.204 75.7995L63.3303 92.0614Z" stroke="#2B2B39" stroke-width="0.436173" stroke-linecap="round" stroke-linejoin="round" stroke-dasharray="1.31 1.31"/>
<circle cx="236.183" cy="79.9005" r="42.0555" transform="rotate(-5 236.183 79.9005)" fill="white"/>
<circle cx="236.183" cy="79.9005" r="41.6193" transform="rotate(-5 236.183 79.9005)" stroke="#FFAF2E" stroke-opacity="0.6" stroke-width="0.872345"/>
<mask id="mask0_164_387" style="mask-type:alpha" maskUnits="userSpaceOnUse" x="159" y="23" width="124" height="116">
<path d="M278.079 76.2351C276.055 53.0969 254.356 21.1146 231.218 23.139C209.721 25.0197 194.545 55.5906 194.123 78.4735C172.541 77.6381 143.026 69.6663 170.756 86.9865C181.756 93.8572 189.093 104.561 201.503 103.702C209.809 115.781 224.203 123.165 239.849 121.796C251.363 120.789 261.386 115.231 268.301 107.05L267.955 125.984C271.117 162.136 291.009 109.966 278.079 76.2351Z" fill="#C4C4C4"/>
</mask>
<g mask="url(#mask0_164_387)">
<path d="M232.229 57.4216C221.742 67.401 224.564 86.4197 224.793 96.8861C224.952 104.208 224.366 114.773 223.937 120.827L245.332 122.089L242.13 85.4854C241.062 73.2843 240.6 58.2147 243.646 54.6936C241.305 54.6396 239.263 54.8846 237.877 55.1983C236.763 55.2868 235.386 55.5963 233.915 56.347C233.279 56.8036 232.802 57.025 232.229 57.4216Z" fill="white"/>
<path opacity="0.5" d="M232.229 57.4215C221.742 67.4009 224.564 86.4196 224.793 96.8861C224.952 104.208 224.367 114.773 223.937 120.827C232.229 123.08 235.811 123.476 245.332 122.089L242.13 85.4854C241.305 76.0534 240.841 64.9072 242.081 58.707C240.445 61.9244 239.095 76.8802 240.268 85.6483C241.441 94.4163 242.673 111.589 240.541 116.588C238.406 121.587 224.937 119.156 225.82 115.336C226.703 111.516 225.647 99.4441 225.502 85.4215C225.386 74.203 229.939 62.0804 232.229 57.4215Z" fill="#FFB83B"/>
<path d="M240.541 116.588C238.407 121.587 224.938 119.156 225.821 115.336C229.325 119.842 236.582 117.736 237.627 115.773C238.673 113.811 240.148 109.003 239.463 101.176C238.916 94.9149 239.476 82.7731 239.825 77.4849C239.817 80.4231 239.95 83.2644 240.269 85.6483C241.442 94.4164 242.674 111.589 240.541 116.588Z" fill="#FFF9EF"/>
<path d="M225.502 85.4217C225.413 76.6559 228.171 67.3382 230.475 61.4603C229.194 65.0033 226.838 74.0765 227.641 82.0264C228.445 89.9763 226.914 100.136 226.047 104.222C225.876 98.9704 225.575 92.4405 225.502 85.4217Z" fill="#FFF9EF"/>
<path d="M223.118 135.49L218.36 135.238C218.648 130.265 221.526 105.846 222.207 89.8803C222.354 86.3973 222.505 82.7534 222.653 78.9931C223.221 64.4292 229.177 59.6289 233.914 56.3473C223.426 66.3267 224.562 86.4199 224.792 96.8864C224.95 104.209 224.365 114.773 223.935 120.827C223.874 121.696 223.171 134.829 223.118 135.49Z" fill="#FFAF2E"/>
<path d="M222.207 89.8801C222.355 86.3971 222.505 82.7532 222.653 78.9929C222.909 83.5135 223.223 90.9508 222.971 98.6089C222.497 113.013 221.758 126.118 218.361 135.237C218.648 130.265 221.526 105.846 222.207 89.8801Z" fill="#F3A00D"/>
<path d="M268.192 131.145C265.039 121.395 258.258 82.5556 258.258 82.5556C258.258 82.5556 259.756 68.5095 254.714 62.1465C251.491 58.0764 243.646 54.6935 243.646 54.6935C240.6 58.2145 241.063 73.2841 242.13 85.4853L245.333 122.089L246.443 134.785C252.336 135.473 262.049 135.158 268.192 131.145Z" fill="#FFAF2E"/>
<path d="M241.705 61.1461C240.958 67.5623 241.404 77.1873 242.13 85.4854L244.865 116.744C245.026 112.096 244.979 99.9451 243.495 88.5257C242.012 77.1062 241.684 65.5143 241.705 61.1461Z" fill="#F9A319"/>
<path d="M268.192 131.145C265.04 121.395 258.258 82.5556 258.258 82.5556C258.258 82.5556 259.756 68.5095 254.714 62.1465C255.341 69.3098 252.699 79.299 255.559 88.8068C259.407 101.593 262.707 113.312 260.946 122.555C259.538 129.951 250.689 133.79 246.444 134.785C252.336 135.473 262.049 135.158 268.192 131.145Z" fill="#F9A319"/>
<path d="M279.679 90.8408C279.764 82.5455 270.655 71.1784 260.737 62.9565C256.326 59.2997 247.621 55.2817 243.645 54.6938L258.257 82.5559C258.257 82.5559 262.372 86.3663 267.776 93.1258C268.972 89.7665 275.024 87.1041 279.679 90.8408Z" fill="#FFAF2E"/>
<path d="M279.679 90.8406C279.765 82.5454 270.654 71.1784 260.738 62.9563C258.434 61.0473 254.961 59.0397 251.6 57.4731C252.785 59.1518 255.356 62.9995 256.177 64.9593C257.203 67.4095 275.403 75.9694 275.058 89.0359C276.608 89.1208 278.212 89.663 279.679 90.8406Z" fill="#F9A319"/>
<path d="M266.04 89.8235C266.074 87.2968 268.333 85.6272 269.988 85.0616C273.707 83.79 277.607 84.6054 279.755 87.2568C281.629 89.5688 280.074 93.3278 278.502 94.8324C278.408 90.1084 276.469 88.5957 272.614 89.5639C268.762 90.5318 267.811 93.0337 267.783 95.1391C266.768 94.492 265.996 92.982 266.04 89.8235Z" fill="#F9A319"/>
<path d="M272.614 89.5643C268.761 90.5322 267.81 93.0341 267.78 95.1397C268.514 99.457 270.048 109.621 270.327 115.738C270.679 123.383 270.483 126.029 269.403 129.489C268.322 132.948 270.441 136.258 273.026 135.401C275.612 134.544 277.5 131.304 276.649 128.855C275.795 126.406 276.21 123.845 277.109 121.979C278.011 120.113 279.36 104.642 278.501 94.8328C278.408 90.1088 276.466 88.5963 272.614 89.5643Z" fill="#FFD0B7"/>
<path d="M222.654 78.993C223.222 64.4291 229.178 59.6288 233.915 56.3472C229.941 58.9308 220.767 62.3096 214.967 74.9648C210.04 85.7135 205.852 88.7972 204.076 89.4347C206.45 91.2761 210.789 97.0581 210.769 101.013C212.983 99.0839 219.254 92.7102 222.208 89.8802C222.355 86.3972 222.506 82.7533 222.654 78.993Z" fill="#FFAF2E"/>
<path d="M222.207 89.8801C222.355 86.3971 222.506 82.7532 222.654 78.9929C221.927 85.6124 217.37 89.8756 214.767 91.0391C212.682 91.9699 210.877 96.2362 210.237 98.2526C210.574 99.2193 210.772 100.159 210.768 101.013C212.982 99.0837 219.253 92.71 222.207 89.8801Z" fill="#F9A319"/>
<path d="M208.21 95.4979C206.3 90.9853 203.968 89.7339 203.012 89.6615C203.3 89.3243 204.072 88.5361 205.082 88.1668C206.343 87.7056 210.016 87.7351 211.895 90.2618C213.486 92.4013 215.351 95.926 212.728 99.7823C210.63 102.867 205.553 103.023 203.276 102.715C205.716 102.19 209.93 99.5591 208.21 95.4979Z" fill="#F9A319"/>
<path d="M203.276 102.715C205.716 102.19 209.929 99.5594 208.209 95.4982C206.836 92.2528 205.208 90.0042 203.011 89.6615C202.52 89.8933 201.558 90.3942 197.464 89.0676C192.347 87.4095 175.61 81.5031 174.343 80.561C173.077 79.619 170.177 76.2459 166.545 76.6805C162.913 77.1154 164.784 83.6202 169.233 84.4009C173.682 85.1817 177.599 87.9978 179.917 90.135C182.235 92.2719 194.617 102.537 203.276 102.715Z" fill="#FFD0B7"/>
<path d="M233.802 56.362L233.172 49.1603L242.67 43.5506L243.645 54.6937C239.938 63.2207 233.861 61.6647 233.802 56.362Z" fill="#FFD0B7"/>
<path d="M234.223 48.5404L242.67 43.5506L243.645 54.6936C243.639 54.7104 243.631 54.7272 243.625 54.744C243.252 55.5936 242.857 56.342 242.445 56.9962C240.592 54.6996 235.924 51.2926 233.213 49.6242L233.181 49.2502L234.223 48.5404Z" fill="url(#paint0_linear_164_387)"/>
<path d="M226.664 31.4373C227.034 35.664 229.224 35.9904 230.783 35.6292L241.345 45.1587C241.477 45.3719 242.638 46.1971 242.828 48.3673C243.02 50.5682 244.373 45.8472 245.588 44.7874C248.106 42.5934 249.929 42.3754 250.498 39.0703C250.987 36.2331 249.783 34.3603 248.902 34.044C248.375 33.8654 247.792 33.4331 246.967 33.3704C246.143 33.3074 245.818 31.9535 245.759 31.2841C245.659 30.7872 245.379 30.1083 244.012 29.4136C243.163 28.9823 241.062 28.9411 240.335 29.7354C239.852 30.0588 238.725 30.4496 238.09 29.4261C237.454 28.4026 236.338 28.9049 235.859 29.2838C234.418 29.9493 230.827 28.6789 229.125 24.684C227.7 26.9474 226.41 28.5306 226.664 31.4373Z" fill="#2B2B39"/>
<path d="M248.903 34.0442C248.376 33.8653 247.793 33.433 246.968 33.3703C251.425 36.0833 248.482 41.3123 245.914 42.8734C243.859 44.1223 243.002 47.0563 242.829 48.3675C243.021 50.5681 244.374 45.8472 245.589 44.7874C248.107 42.5933 249.93 42.3753 250.499 39.0705C250.988 36.2333 249.784 34.3602 248.903 34.0442Z" fill="#13131C"/>
<path d="M235.86 29.2837C234.418 29.9493 230.828 28.6786 229.126 24.6839C229.367 27.1554 231.003 31.8095 235.624 30.6535C236.334 30.3471 237.146 29.7901 238.207 30.6692C239.267 31.5484 241.544 29.1237 244.013 29.4136C243.164 28.982 241.063 28.9408 240.336 29.7353C239.852 30.0585 238.726 30.4493 238.091 29.4258C237.455 28.4023 236.341 28.9044 235.86 29.2837Z" fill="#13131C"/>
<path d="M236.927 49.2548C240.75 47.7063 242.054 44.8159 242.229 43.5642C242.3 43.0521 242.459 41.6333 242.349 41.0247C241.836 39.8557 240.755 41.6698 240.28 42.7232C239.643 44.1278 239.096 39.4546 239.884 38.2055C240.962 36.4925 239.028 36.233 238.14 35.8291C237.725 35.6404 236.598 35.357 235.402 35.7314C234.205 36.1058 233.501 35.4479 233.296 35.0725C232.781 34.3871 231.518 33.4746 230.587 35.3095C228.352 39.4168 229.284 44.472 230.03 46.4862C230.736 48.0542 233.103 50.8032 236.927 49.2548Z" fill="#FFD0B7"/>
</g>
<g filter="url(#filter0_d_164_387)">
<circle cx="68.2208" cy="91.7007" r="42.5962" transform="rotate(-5 68.2208 91.7007)" fill="white"/>
<circle cx="68.2208" cy="91.7007" r="42.16" transform="rotate(-5 68.2208 91.7007)" stroke="#217BF4" stroke-opacity="0.6" stroke-width="0.872345"/>
</g>
<mask id="mask1_164_387" style="mask-type:alpha" maskUnits="userSpaceOnUse" x="25" y="37" width="97" height="110">
<path d="M25.8027 95.599C23.7524 72.1633 40.0735 39.8997 63.5092 37.8494C119.86 31.3158 122.588 80.5617 121.549 105.595L108.16 106.767C102.592 121.674 88.8582 132.841 71.9493 134.321C66.322 134.813 60.8547 134.188 55.7667 132.628C55.4212 132.522 55.0775 132.412 54.7356 132.298C53.868 135.109 52.2746 141.587 52.8414 145.012C47.9142 149.786 34.1826 142.569 32.9023 115.689C28.9917 109.895 26.4551 103.056 25.8027 95.599Z" fill="#C4C4C4"/>
</mask>
<g mask="url(#mask1_164_387)">
<path d="M117.633 96.1542C115.106 97.1684 111.984 98.5618 109.544 98.1906C107.588 97.8929 107.679 97.2756 107.352 96.0256C107.869 94.9431 110.261 92.7397 115.139 91.2955C121.236 89.4903 122.076 94.3705 117.633 96.1542Z" fill="#FEBE9D"/>
<path d="M87.7856 80.0782C86.8586 78.288 84.7291 78.1626 83.7803 78.3235C77.0614 81.7181 83.0502 101.426 84.922 103.953C86.7938 106.479 88.7965 107.356 90.7789 108.001C92.7611 108.646 96.5431 107.848 97.448 107.184C98.3529 106.52 98.5753 105.916 99.6571 105.704C100.739 105.492 102.484 104.989 103.105 104.233C103.727 103.477 104.212 102.733 105.85 102.589C107.489 102.446 108.752 101.166 109.237 100.422C109.723 99.6776 110.122 99.5258 111.057 99.21C111.993 98.8943 112.948 98.8107 113.12 97.6263C113.291 96.4417 113.225 94.1085 112.987 92.96C112.749 91.8112 112.749 91.8112 112.076 91.9872C111.404 92.1629 109.71 93.2466 109.164 93.2944C108.618 93.3422 107.652 93.3097 106.727 93.7415C105.802 94.1733 102.773 95.7247 100.776 96.4842C98.7794 97.2436 95.7861 97.6224 95.9881 96.7861C96.1901 95.9499 96.9426 93.545 95.0313 93.7123C93.1201 93.8795 93.0084 92.6027 91.9558 90.005C90.9029 87.4073 88.9444 82.3158 87.7856 80.0782Z" fill="#217BF4"/>
<path d="M109.748 98.3895C110.336 98.299 111.662 97.9414 112.26 97.2341M109.959 94.5118C110.338 94.1278 111.342 93.3381 112.325 93.2521L109.959 94.5118ZM110.965 95.0084L112.017 94.4487L110.965 95.0084ZM109.742 96.7528C110.372 96.6195 111.785 96.1997 112.391 95.5853L109.742 96.7528Z" stroke="#2068D9" stroke-width="0.470604"/>
<path d="M110.22 99.5258C109.89 98.6221 109.515 97.1988 109.681 96.0561C109.479 96.8923 108.853 98.865 107.968 100.065C106.861 101.565 105.349 101.581 104.975 100.444C104.6 99.3073 103.023 100.147 102.598 101.588C102.174 103.028 101.098 104.876 99.0601 105.172C97.1515 105.448 96.2279 105.946 95.6865 106.238C95.6499 106.258 95.6149 106.277 95.5816 106.295C95.0559 106.574 95.1112 105.634 95.6066 105.006C96.1018 104.378 96.6525 102.809 96.4447 102.009C95.874 103.345 94.661 105.206 92.5275 105.977C90.3938 106.748 89.0433 105.463 90.5699 104.043C92.0964 102.623 93.2235 101.355 93.5417 100.275C93.662 99.8664 93.4582 100.021 93.0504 100.33C92.3793 100.839 91.156 101.767 89.9166 101.294C87.9241 100.532 87.9636 97.8391 89.4247 97.2433C89.8916 97.0531 90.6048 96.9487 91.3721 96.8363C93.0059 96.5971 94.885 96.3221 95.153 95.105C94.3745 95.6409 89.6572 96.7552 89.2667 93.8657C88.8764 90.9761 88.4307 89.027 87.6059 87.462C87.3321 86.942 87.164 86.2453 86.9889 85.5185C86.6364 84.057 86.2548 82.4745 84.9241 81.9659C84.5441 81.8209 83.0434 82.0203 81.0157 82.5575C79.4898 89.5361 83.4604 101.981 84.9218 103.953C86.7935 106.479 88.7963 107.356 90.7787 108.001C92.7609 108.647 96.5429 107.848 97.4479 107.184C97.7437 106.967 97.9666 106.756 98.1704 106.564C98.59 106.167 98.9287 105.847 99.6569 105.704C100.739 105.493 102.483 104.989 103.105 104.233C103.15 104.179 103.194 104.125 103.237 104.071C103.802 103.373 104.329 102.723 105.85 102.59C107.488 102.446 108.752 101.166 109.237 100.422C109.546 99.9481 109.82 99.7145 110.22 99.5258Z" fill="#1771EA"/>
<path d="M86.3997 105.608C87.0124 104.794 88.072 103.634 89.1236 103.234C90.7212 102.626 89.8818 102.466 88.5571 103.05C87.2326 103.633 86.929 103.309 86.6605 101.812C86.3921 100.315 86.7046 97.598 87.3612 95.6693C88.0179 93.7408 88.6024 87.8422 86.0886 85.8401C84.9323 84.9191 82.6905 85.2313 80.6741 86.4574C80.752 93.4179 83.7057 102.311 84.9218 103.952C85.4066 104.606 85.9001 105.15 86.3997 105.608Z" fill="#2068D9"/>
<path d="M108.802 98.5892C109.881 97.0915 109.506 94.5903 109.184 93.5269C109.629 94.4237 110.33 96.5609 109.57 97.9373C108.62 99.6578 108.559 98.9613 108.802 98.5892Z" fill="#3881F2"/>
<path d="M78.8357 135.009C82.7385 133.077 88.1844 133.372 90.4196 133.761C90.6988 133.807 90.9656 133.714 91.3695 132.041C91.7735 130.369 91.0086 126.342 90.8415 126.006C90.6746 125.67 90.6543 125.438 90.7399 124.845C91.0875 120.956 87.6915 112.014 86.1526 107.003C84.6136 101.992 85.699 97.1018 86.8962 93.4886C88.0933 89.8753 86.4685 85.4566 85.6528 80.85C84.837 76.2433 80.165 76.3013 73.7733 75.5739C67.3816 74.8468 59.3269 75.5515 56.4476 83.522C53.5682 91.4926 57.7179 101.187 58.4885 106.85C59.259 112.513 56.9552 117.627 55.6169 122.773C54.2789 127.918 55.0133 131.596 54.7515 134.894C54.542 137.532 55.5314 138.568 56.0524 138.756C56.1487 139.333 56.3757 140.88 56.5138 142.458C56.6865 144.431 57.5969 145.404 59.6346 145.109C61.6722 144.814 64.8473 143.367 67.5517 141.259C70.2562 139.151 73.957 137.424 78.8357 135.009Z" fill="#217BF4"/>
<path d="M77.0532 113.061C73.5835 116.172 68.9672 116.03 67.0928 115.57C67.1368 116.073 68.1209 117.258 71.7052 117.973C76.1856 118.868 78.9351 115.704 79.9607 113.275C80.7813 111.332 82.708 108.512 83.569 107.346C82.8428 107.955 80.5228 109.951 77.0532 113.061Z" fill="#3881F2"/>
<path d="M90.4193 133.761C88.1841 133.372 82.7382 133.077 78.8352 135.009C78.2998 135.274 77.7783 135.531 77.2709 135.78C73.1561 137.807 69.9591 139.382 67.5514 141.259C64.847 143.366 61.6719 144.814 59.6342 145.109C57.5966 145.404 56.6861 144.431 56.5135 142.458C56.3754 140.88 56.1484 139.333 56.0521 138.756C55.5311 138.568 54.5417 137.532 54.7511 134.894C54.8352 133.837 54.8166 132.74 54.7969 131.569C54.7549 129.087 54.7075 126.268 55.6166 122.772C55.9262 121.582 56.2875 120.393 56.6504 119.199C57.8563 115.231 59.0804 111.203 58.4881 106.85C58.2838 105.349 57.8422 103.565 57.3568 101.604C56.0115 96.1687 54.3311 89.3797 56.4472 83.5218C56.4836 83.4214 56.5207 83.3219 56.5586 83.2238C61.5512 78.4783 66.714 76.192 71.1382 75.3731C72.0353 75.4051 72.919 75.4768 73.773 75.5739C74.457 75.6517 75.1215 75.7207 75.7636 75.7872C78.2501 76.0447 80.4019 76.2678 82.0668 76.844C82.3646 77.0842 82.5958 77.3367 82.754 77.5946C85.0004 81.2573 81.4271 86.014 78.48 88.4939C75.533 90.9736 76.2968 91.8423 79.7652 90.6032C82.8392 89.505 82.3626 89.82 78.6837 92.2504C78.212 92.5622 77.6876 92.9085 77.1113 93.2913C72.0409 96.6586 77.9462 94.972 82.2337 93.6614C86.5211 92.3507 85.8949 94.6276 85.0206 95.6396C84.6542 96.0636 84.2259 96.3287 83.8476 96.5629C83.3227 96.8878 82.8943 97.1531 82.8622 97.6997C82.8068 98.64 81.9426 99.7681 80.7545 100.34C80.6607 100.385 80.5652 100.43 80.4682 100.476C79.3404 101.011 78.0502 101.623 77.408 102.972C76.7108 104.436 74.6833 104.847 72.2158 104.946C69.7481 105.045 66.5529 106.26 69.7696 108.434C72.9862 110.609 77.0661 108.498 79.1691 107.378C74.5851 113.159 67.0041 109.846 65.4765 108.108C63.9489 106.371 63.2155 105.85 61.4812 106.47C59.7472 107.089 59.394 109.342 61.0729 109.663C61.8168 109.805 62.5615 109.649 63.1684 109.521C63.931 109.361 64.4755 109.247 64.5264 109.828C64.6038 110.713 62.5874 112.45 60.8044 113.987C60.481 114.265 60.1652 114.537 59.8713 114.797C57.9553 116.485 60.3879 117.558 61.9303 117.891C63.4727 118.224 63.1139 118.84 60.8596 121.377C57.741 125.041 64.5683 127.601 70.2604 123.478C74.8141 120.179 78.9965 119.556 80.5185 119.657C78.8266 120.234 74.7642 122.125 72.0509 125.075C69.7639 127.562 66.527 128.484 63.6489 129.304C62.2586 129.7 60.952 130.071 59.8768 130.585C56.5754 132.16 58.5736 134.558 61.4507 134.423C62.9854 134.351 65.5524 132.659 68.4991 130.715C71.077 129.015 73.9454 127.124 76.6677 125.958C82.502 123.459 86.7298 124.61 88.9851 125.232C85.4153 125.31 75.7031 129.083 70.7692 132.439C68.3827 134.062 66.559 134.76 64.9666 135.37C63.2666 136.02 61.8301 136.57 60.2536 138.037C57.2005 140.877 61.7215 142.235 64.8209 141.497C66.2055 141.166 68.0812 139.86 70.2229 138.368C72.8753 136.52 75.9356 134.388 78.9762 133.475C83.0435 132.254 88.3653 132.724 91.0254 133.192C90.7968 133.758 90.6109 133.792 90.4193 133.761Z" fill="#1771EA"/>
<path d="M58.1416 104.918C58.6466 104.186 59.3696 103.076 59.7409 102.297C60.3218 101.076 60.6908 100.576 61.7176 101.305C62.7442 102.034 64.2359 101.787 64.9737 100.786C64.9633 100.852 64.9527 100.916 64.9422 100.98C64.687 102.538 64.5099 103.62 67.2348 103.044C68.2312 102.834 69.6908 102.872 71.1025 102.908C73.7096 102.976 76.1539 103.039 75.2185 101.527C73.7765 99.1976 72.4395 93.3503 74.7142 91.0461C76.5338 89.2029 78.0028 86.7042 78.5097 85.6853C79.4089 83.3845 78.9239 79.1 69.7905 80.3668C66.1649 80.8696 62.126 80.4534 58.3448 80.0405C57.5836 81.0078 56.9398 82.1584 56.4473 83.5217C54.3312 89.3796 56.0118 96.1685 57.3571 101.604C57.6482 102.78 57.9237 103.892 58.1416 104.918Z" fill="#2068D9"/>
<path d="M84.7195 129.932C87.5673 129.777 88.0325 127.966 87.9092 127.081C87.8482 126.384 88.6673 126.312 88.5218 129.366C88.3763 132.419 83.3192 131.224 79.1177 131.943C74.9159 132.661 69.1426 135.857 67.7119 136.8C74.6068 130.7 81.1597 130.127 84.7195 129.932Z" fill="#3881F2"/>
<path d="M87.5232 125.828C87.9467 126.999 88.7939 129.974 88.7947 132.5M58.2964 139.261C58.3708 140.112 58.6322 142.156 59.0816 143.52L58.2964 139.261ZM61.441 137.466C61.8508 138.483 62.6637 140.75 62.6358 141.688L61.441 137.466ZM63.5237 136.114C63.8224 136.907 64.4744 139.118 64.6937 141.625L63.5237 136.114ZM66.2745 136.107L66.5385 139.125L66.2745 136.107ZM68.3165 134.291C68.6506 134.964 69.265 136.641 69.051 137.97L68.3165 134.291ZM70.3893 132.824C70.6846 133.578 71.3014 135.387 71.407 136.594L70.3893 132.824ZM73.0588 131.888L73.3228 134.906L73.0588 131.888ZM75.5206 130.153C75.8362 131.139 76.3633 133.494 75.9471 135.027L75.5206 130.153ZM77.3811 129.405C77.7573 130.035 78.4853 131.648 78.3887 133.059L77.3811 129.405ZM80.6068 128.538C80.6948 129.544 80.879 131.649 80.9114 132.02L80.6068 128.538ZM82.3005 127.454C82.5182 128.371 82.9882 130.599 83.1263 132.177L82.3005 127.454ZM86.1083 128.525C86.235 129.449 86.425 131.514 86.1705 132.378L86.1083 128.525Z" stroke="#2068D9" stroke-width="0.470604"/>
<path d="M59.4802 137.053C68.0441 132.211 86.2168 122.832 89.9718 125.497" stroke="#3881F2" stroke-width="0.470604"/>
<path d="M54.7513 134.893C54.5418 137.531 55.5312 138.568 56.0523 138.756C56.0981 139.031 56.1739 139.527 56.2554 140.142C57.4146 139.027 59.9935 136.633 61.037 135.981C59.04 136.74 56.4372 138.137 55.8594 135.615C55.2816 133.093 56.4132 130.304 57.1105 128.84C57.8079 127.375 58.422 123.111 56.9495 118.211C56.4903 119.739 56.0115 121.254 55.6167 122.772C54.2787 127.918 55.0132 131.596 54.7513 134.893Z" fill="#2068D9"/>
<path d="M45.293 141.603C45.2429 138.88 45.4295 135.548 46.6438 133.399C47.6169 131.677 48.1616 131.981 49.4463 132.119C50.2744 132.987 51.8347 135.991 51.4511 141.064C50.9717 147.405 45.3812 146.39 45.293 141.603Z" fill="#FEBE9D"/>
<path d="M44.2749 137.799C44.4528 137.315 44.5409 136.645 44.5626 136.37C44.7082 133.317 44.0448 130.451 43.6082 125.46C43.1716 120.47 43.9435 115.14 44.8731 113.187C45.8028 111.235 45.3876 109.634 45.8525 108.657C46.3173 107.681 47.8642 106.493 47.044 103.407C46.2236 100.321 48.1045 99.8061 47.8959 95.8482C47.6871 91.8901 48.0696 86.8278 50.3589 83.1189C52.6481 79.4103 62.0015 76.2529 63.536 82.7848C65.0704 89.3166 61.9067 94.0375 60.6588 97.0704C59.411 100.103 58.048 106.538 57.9171 108.186C57.7861 109.835 56.9636 114.585 57.1362 116.558C57.3089 118.531 57.0776 122.177 56.5327 125.382C55.9877 128.587 54.5479 132.573 54.0323 132.969C53.5168 133.365 53.264 133.621 53.3148 134.201C53.3655 134.781 53.2651 136.778 53.1895 137.486C53.1138 138.195 52.9977 138.439 52.5678 138.242C52.1379 138.046 51.4553 138.106 50.2266 138.213C48.9979 138.321 46.9705 138.732 45.7316 138.724C44.4928 138.715 44.0528 138.403 44.2749 137.799Z" fill="#217BF4"/>
<path d="M49.3255 134.2C46.7531 134.986 45.3277 134.627 44.9365 134.349C45.7305 134.514 47.5856 134.542 49.0321 133.991C50.2303 133.535 51.9631 133.423 52.5715 133.565C51.9345 133.62 50.3933 133.825 49.3255 134.2Z" fill="#3881F2"/>
<path d="M51.2572 134.264C51.1614 134.74 51.089 135.799 51.5665 136.225C52.044 136.651 51.7353 137.107 51.5212 137.281M46.5704 135.726C46.6918 136.067 46.8418 136.942 46.4701 137.723L46.5704 135.726ZM48.4106 134.747L48.4975 137.312L48.4106 134.747Z" stroke="#2068D9" stroke-width="0.470604"/>
<path d="M51.6017 138.116C51.9023 137.46 52.222 136.455 52.0615 135.597C51.803 134.216 49.8511 133.919 48.7794 134.247C50.0937 133.547 52.9856 132.008 53.5508 129.035C54.1161 126.061 53.6907 124.344 51.0766 124.339C50.5304 124.387 49.9742 124.319 51.7637 122.759C53.553 121.199 56.323 118.267 53.3139 116.892C50.3049 115.519 48.2819 114.409 47.72 112.704C49.1664 113.513 50.896 114.414 51.5888 114.471C52.188 114.519 52.1591 114.448 51.7967 113.55C51.7399 113.41 51.6752 113.249 51.6034 113.066C51.072 111.709 49.8118 108.311 49.7204 107.266C50.2417 108.507 51.0969 110.42 52.9427 111.078C54.7886 111.735 55.1417 109.482 54.7366 107.997C54.3317 106.512 54.0935 105.363 55.7567 103.931C57.4197 102.499 59.8906 97.7223 57.6702 95.9284C55.4498 94.1346 51.449 90.8591 51.3418 88.0617C51.2585 85.8869 50.974 85.2141 49.8578 84.0101C50.0136 83.7056 50.1805 83.4081 50.3591 83.1189C51.9952 80.4684 57.239 78.0997 60.6584 79.3476C60.9818 79.506 61.3025 79.6672 61.6201 79.8311C62.5201 80.431 63.2075 81.3855 63.5362 82.7848C64.8137 88.223 62.8347 92.4057 61.4159 95.4042C61.1306 96.0073 60.8679 96.5625 60.6589 97.0703C59.4112 100.103 58.0482 106.538 57.9173 108.186C57.8769 108.697 57.7699 109.504 57.6469 110.435C57.3725 112.51 57.0172 115.196 57.1364 116.558C57.309 118.531 57.0778 122.177 56.5328 125.382C55.9879 128.587 54.5481 132.573 54.0325 132.969C53.517 133.365 53.2642 133.621 53.315 134.201C53.3657 134.781 53.2653 136.778 53.1897 137.486C53.1142 138.195 52.9978 138.439 52.568 138.242C52.3354 138.136 52.0288 138.105 51.6017 138.116Z" fill="#1771EA"/>
<path d="M58.893 103.049C58.3679 105.28 57.9843 107.349 57.9179 108.186C57.8773 108.696 57.7705 109.504 57.6475 110.434C57.3732 112.509 57.0179 115.195 57.137 116.558C57.1909 117.173 57.2056 117.952 57.1833 118.83C56.3355 117.474 55.0359 116.013 53.4962 115.824C51.0888 115.528 52.5118 115.424 53.5575 115.346C53.72 115.335 53.8732 115.323 54.0017 115.312C54.9573 115.228 55.3262 114.728 54.1832 114.243C53.269 113.855 51.7384 111.455 51.0872 110.304C51.7838 111.451 53.7229 113.699 55.9073 113.508C56.5898 113.448 57.0852 112.82 56.5741 111.695C56.12 110.696 56.8782 106.174 58.893 103.049Z" fill="#2068D9"/>
<path d="M63.6681 74.611L64.1451 69.1298L71.0319 69.9463C70.9354 70.6642 71.1421 72.8455 71.7518 75.4411C72.3615 78.0364 73.6074 79.3385 74.2779 79.7135L63.6681 74.611Z" fill="#FEBE9D"/>
<path d="M64.2041 69.1245L70.953 69.949C70.883 70.4853 70.981 71.8406 71.2874 73.5754C66.5088 73.4275 64.5741 70.5465 64.2041 69.1245Z" fill="#F2AD8A"/>
<path d="M62.5013 93.0285C62.1113 91.4326 63.1998 90.9879 64.1538 90.4388C64.7362 90.1036 65.4501 89.6701 65.6503 88.9298C67.4554 89.4608 69.2157 89.48 71.9104 88.8903C72.1778 90.5153 72.782 94.2714 73.0594 96.2963C73.4061 98.8277 74.6303 102.796 71.6495 101.659C68.6689 100.523 67.7887 100.484 66.4514 100.95C65.1142 101.416 64.0894 101.156 63.773 98.9718C63.4565 96.7872 62.7905 93.4688 62.5013 93.0285Z" fill="#8CB9FF"/>
<path d="M66.2177 101.035C65.7658 100.252 65.03 98.4622 65.0254 96.3101C65.019 93.396 65.5566 91.0173 66.6123 93.14C67.4568 94.8382 67.8097 96.8823 67.8806 97.6921C68.3504 97.3789 69.2618 96.149 69.15 93.7338C69.0101 90.7148 69.1436 90.8198 69.6655 92.5228C70.1873 94.2259 70.3309 94.4465 70.5289 92.4473C70.5554 92.1802 70.5752 91.9387 70.593 91.7198C70.7073 90.3285 70.7464 89.8512 71.9385 89.5385C71.8999 89.3005 71.8648 89.085 71.8341 88.8975C69.1607 89.4859 67.4142 89.4653 65.6227 88.9322C65.4247 89.6732 64.7167 90.1067 64.139 90.4418C64.0603 90.4876 63.9804 90.5325 63.9007 90.5777C63.0231 91.0729 62.1454 91.5683 62.5015 93.0333C62.7886 93.4746 63.4521 96.7974 63.7679 98.9848C64.0668 101.056 64.9942 101.4 66.2177 101.035Z" fill="#7EAEFA"/>
<path opacity="0.5" d="M62.8363 94.0649C63.2184 93.0417 63.9192 91.6174 64.7182 91.3164C65.9242 90.8623 66.1514 90.6099 66.4919 90.2314C66.8324 89.8529 67.2236 90.0512 67.3875 90.5018C67.5515 90.9522 67.8821 90.4585 68.2126 89.9648C68.543 89.4709 69.3151 89.7521 69.4691 90.0874C69.524 90.207 69.6714 90.1111 69.924 89.9467C70.3164 89.6913 70.9631 89.2705 71.9121 89.2363C71.8921 89.114 71.8734 88.9995 71.8562 88.8942C69.1765 89.4819 67.426 89.4622 65.6307 88.9315C65.4318 89.6703 64.7222 90.1027 64.143 90.4373C64.0641 90.4829 63.984 90.5279 63.9041 90.5727C63.0242 91.0671 62.1445 91.5612 62.5005 93.0217C62.5858 93.152 62.704 93.5344 62.8363 94.0649Z" fill="#70A2F2"/>
<path d="M69.7261 71.8376C65.1723 71.6743 61.2307 68.1207 59.8766 66.4446C57.5312 67.2352 57.0214 66.9281 56.7593 65.3125C56.4971 63.6969 59.5413 62.6112 59.9067 59.8874C60.2721 57.1635 61.8718 51.9911 67.4198 49.1648C72.9677 46.3386 78.5407 53.4587 78.8638 55.7713C79.1869 58.0838 79.3126 63.6424 78.1517 66.9524C76.923 70.4559 75.4184 72.0419 69.7261 71.8376Z" fill="#FEBE9D"/>
<path d="M60.0858 66.1941C57.7539 66.9818 57.1955 67.0459 56.9346 65.4356C54.7116 66.0968 49.975 68.2115 48.8117 71.3811C47.3577 75.3428 49.1978 75.7942 50.4398 76.2688C51.6817 76.7433 51.2278 78.416 49.6995 78.7831C48.1711 79.1502 47.9506 78.003 47.7707 77.3189C47.3293 80.5069 49.8311 80.288 50.8628 79.7312C50.31 81.6459 50.6698 83.0142 52.3782 83.3313C54.0865 83.6484 52.5706 85.5308 52.7124 87.1514C52.8542 88.7719 54.7222 89.5418 54.9426 90.6889C55.163 91.8361 56.6432 92.2899 58.1131 92.6279C59.5833 92.9658 59.0383 93.5968 58.5338 94.6906C58.0293 95.7846 59.0531 96.5115 59.2938 97.8902C59.5345 99.269 60.4976 99.3013 61.7092 99.4287C60.3457 97.565 60.9998 96.8079 61.664 96.1665L61.6847 96.1465C62.3396 95.5143 62.8792 94.9932 62.5032 93.4102C62.1231 91.8105 63.1648 91.3694 64.0775 90.8228C64.9899 90.2765 66.2396 89.4672 65.1042 87.467C63.9689 85.4666 66.8257 83.8169 67.358 81.6708C67.8905 79.5245 65.9999 77.1236 65.2041 76.2602C64.4084 75.3965 63.5721 74.0701 63.2831 73.512C62.9943 72.9542 63.2324 72.9333 63.3617 73.0386C64.008 73.5654 64.0867 73.0918 64.1552 72.5026C64.21 72.0311 64.1943 70.6622 64.1794 70.0366C62.2498 68.9051 60.8225 67.1082 60.0858 66.1941Z" fill="#2B2B39"/>
<path d="M71.1178 73.2929L70.9868 71.7955C73.9668 71.7458 75.61 71.0539 76.7156 69.7704C79.4266 72.4494 77.4735 75.1865 77.1668 75.7967C76.371 74.933 74.9111 74.7108 74.5536 74.7421C74.1963 74.7733 73.8491 74.9203 73.441 74.3729C73.033 73.8252 72.8531 73.1411 72.0977 72.7406C71.4935 72.4202 71.1927 72.9754 71.1178 73.2929Z" fill="#2B2B39"/>
<path d="M57.3247 71.7944C58.0916 72.2591 59.4595 73.6361 58.7958 75.4265" stroke="#151523" stroke-width="0.348938"/>
<path d="M60.665 72.8184C62.3077 73.869 65.2845 76.5752 64.0486 78.9949C62.5039 82.0196 62.2094 83.0857 62.4 85.2651" stroke="#151523" stroke-width="0.348938"/>
<path d="M58.8794 87.2657C59.671 86.8487 60.9188 85.3026 59.5764 82.4535C58.2339 79.6044 59.4549 77.7515 60.233 77.1813" stroke="#151523" stroke-width="0.348938"/>
<path d="M53.9782 78.8567C53.0719 79.8985 51.8714 82.1365 54.3191 82.754C57.3789 83.5259 58.1819 84.4952 57.4122 86.6417" stroke="#151523" stroke-width="0.348938"/>
<path d="M53.9785 84.6857C54.3143 85.0153 54.8298 85.9992 54.2071 87.2982" stroke="#151523" stroke-width="0.348938"/>
<path d="M51.3247 72.1582C50.949 72.5809 50.495 73.6809 51.6845 74.6996C53.1717 75.9729 53.1063 76.7972 52.5049 77.7854" stroke="#151523" stroke-width="0.348938"/>
<path opacity="0.5" d="M53.6561 67.1199C53.1833 67.8857 52.7251 68.7394 52.3848 69.5868C52.0622 70.3899 51.8432 71.1933 51.8212 71.914C51.7992 72.6344 51.974 73.2844 52.4551 73.7648C52.5696 73.879 52.6814 73.9895 52.7899 74.0966C53.2224 74.5232 53.6024 74.8985 53.8842 75.2616C54.2348 75.7133 54.4188 76.1292 54.3632 76.5789C54.307 77.0305 54.0061 77.5397 53.3241 78.1722C52.8397 78.6216 52.1686 79.1278 51.2704 79.7141C51.2303 79.8357 51.1944 79.9553 51.163 80.0722C52.205 79.4064 52.976 78.835 53.5233 78.3275C54.2252 77.6767 54.5704 77.1207 54.6354 76.5969C54.7006 76.0711 54.4805 75.6015 54.114 75.1291C53.8219 74.7527 53.4273 74.3634 52.9937 73.9355L52.9935 73.9353C52.8863 73.8295 52.7766 73.7213 52.6655 73.6104C52.2421 73.1877 52.0739 72.6015 52.0949 71.9134C52.116 71.2256 52.3259 70.4475 52.6436 69.6567C53.0295 68.6958 53.5707 67.7243 54.1108 66.886C53.9589 66.9618 53.8071 67.0399 53.6561 67.1199Z" fill="#1C1C2A"/>
<path opacity="0.5" d="M61.0833 67.487C60.9158 68.2962 60.8291 69.3768 60.9964 70.5099C61.2111 71.9643 61.8459 73.513 63.2745 74.6807C65.0192 76.1063 65.6838 77.163 65.7674 78.1191C65.8515 79.0795 65.3547 79.9726 64.6659 81.0942C63.9728 82.2234 63.6012 83.3084 63.7728 84.5609C63.9221 85.6515 64.4814 86.8556 65.5704 88.317C65.4991 88.0559 65.379 87.7686 65.1994 87.4514C65.1401 87.3466 65.0916 87.2428 65.0532 87.1399C64.4439 86.1557 64.1168 85.306 64.0105 84.5289C63.8485 83.347 64.1949 82.316 64.8716 81.2137C65.553 80.1039 66.0981 79.146 66.0065 78.0982C65.9144 77.0458 65.1856 75.9366 63.4291 74.5012C62.0568 73.3797 61.4425 71.8897 61.2337 70.4756C61.0809 69.4403 61.1463 68.4499 61.2885 67.6837C61.2183 67.6174 61.1498 67.5519 61.0833 67.487Z" fill="#1C1C2A"/>
<path opacity="0.5" d="M61.4828 99.448C61.2228 99.1954 60.9706 98.8954 60.7646 98.5553C60.3074 97.8001 60.0806 96.8508 60.4972 95.7735C60.9884 94.5033 60.6746 93.4385 60.3858 92.4584C60.3471 92.3276 60.309 92.1981 60.2734 92.07C60.1205 91.5217 60.0105 90.9961 60.075 90.4543C60.1391 89.9163 60.3766 89.3516 60.939 88.7301C61.536 88.0703 61.7251 87.4248 61.7172 86.7728C61.7106 86.2265 61.5647 85.6743 61.4172 85.1162C61.3914 85.0186 61.3654 84.9207 61.3403 84.8227C61.1697 84.1579 61.0265 83.473 61.1095 82.7303C61.1922 81.9904 61.5007 81.1842 62.2503 80.2826L62.2533 80.2788L62.2561 80.2747C62.7671 79.5458 62.7738 78.6207 62.385 77.7188C62.0068 76.8415 61.2518 75.9765 60.1988 75.3055C60.4345 74.7409 60.5142 73.4344 59.3612 71.831C58.6109 70.7872 58.1193 69.8528 57.9943 68.9244C57.9033 68.2492 58.0052 67.5691 58.355 66.844C58.2618 66.848 58.1751 66.846 58.0946 66.838C57.7624 67.5651 57.6627 68.2601 57.7565 68.9558C57.8891 69.9406 58.4071 70.9122 59.1647 71.9656C60.3316 73.5887 60.1623 74.8486 59.9512 75.2742C59.2454 75.8297 58.2929 76.8569 57.6921 78.1637C57.1135 79.4224 56.8592 80.9463 57.4742 82.5549C57.4329 82.5416 57.3907 82.5286 57.3477 82.5156C55.6953 82.0214 55.0868 81.3391 54.9717 80.6529C54.854 79.9504 55.2392 79.1861 55.7198 78.5003C56.2045 77.8087 56.8192 76.7713 57.0157 75.6735C57.2137 74.5679 56.9868 73.3967 55.7837 72.4693C54.8906 71.781 54.5909 70.8201 54.5836 69.8854C54.5762 68.9482 54.8633 68.0488 55.1298 67.5098L54.9138 67.4089C54.6347 67.9736 54.336 68.9084 54.3437 69.8883C54.3515 70.8703 54.6682 71.9083 55.6344 72.653C56.7551 73.5168 56.9656 74.5948 56.7795 75.6344C56.5918 76.6821 56.0006 77.6859 55.5219 78.3691C55.0392 79.0579 54.601 79.891 54.7351 80.6915C54.872 81.5083 55.5906 82.235 57.2765 82.7392C57.406 82.778 57.5272 82.8188 57.6404 82.8616C58.2538 83.093 58.6257 83.378 58.8339 83.6864C59.0409 83.993 59.0946 84.3356 59.0459 84.7013C58.9467 85.4441 58.4303 86.2538 57.9579 86.9686L57.8982 87.0587C57.8072 87.1959 57.7192 87.3291 57.6382 87.4558C57.1543 88.213 56.952 88.8428 57.022 89.46C57.074 89.9194 57.2757 90.3594 57.6012 90.829C57.1889 90.5754 56.7729 90.292 56.4226 89.9579C55.9233 89.4816 55.5662 88.9101 55.5439 88.1852C55.5334 87.8433 55.597 87.4628 55.7598 87.0368C55.9818 86.4567 56.1301 85.9411 56.1693 85.4969C56.2085 85.0517 56.1387 84.6671 55.9116 84.3614C55.6844 84.0557 55.3134 83.8475 54.79 83.7267C54.3421 83.6233 53.7747 83.582 53.0716 83.6018C53.131 83.6705 53.1738 83.7478 53.2032 83.8327C53.8347 83.8214 54.3389 83.863 54.7337 83.9542C55.2239 84.0672 55.5348 84.2539 55.7171 84.499C55.8992 84.7441 55.9666 85.0661 55.9303 85.4779C55.8939 85.891 55.7542 86.3832 55.5352 86.956C55.3646 87.4023 55.2939 87.8093 55.3039 88.1825C55.2228 88.7002 55.1074 89.5278 55.0219 90.3436C55.012 90.4377 55.0025 90.532 54.9934 90.6257C54.9988 90.6468 55.0034 90.668 55.0073 90.6893C55.0406 90.8622 55.1021 91.0194 55.1877 91.1629C55.207 90.9078 55.2319 90.6384 55.2604 90.3663C55.3131 89.8636 55.3773 89.3563 55.4377 88.9205C55.6007 89.3897 55.8983 89.7854 56.2546 90.1253C56.7795 90.6261 57.4404 91.0137 58.0038 91.3431L58.1596 91.1697C57.6249 90.5181 57.3223 89.9808 57.2603 89.4334C57.1986 88.889 57.3723 88.3129 57.8416 87.5788C57.8756 87.5254 57.9109 87.4711 57.9473 87.4155C57.968 87.8204 58.0259 88.3457 58.1446 88.8993C58.3054 89.6499 58.5801 90.4626 59.0323 91.0993C59.4375 91.6696 59.3605 92.3921 59.0713 93.0905C59.071 93.0912 59.0707 93.0919 59.0702 93.0926C59.1517 93.2248 59.1589 93.3768 59.1192 93.5507C59.1822 93.4288 59.241 93.3039 59.2935 93.177C59.5941 92.4511 59.7033 91.6322 59.2297 90.9656C58.8032 90.365 58.5371 89.5864 58.3793 88.8505C58.2261 88.1358 58.177 87.4705 58.1782 87.0657C58.6391 86.3678 59.1777 85.5246 59.2837 84.7304C59.3381 84.3222 59.2794 83.9203 59.0343 83.5572C58.7965 83.2048 58.3912 82.9015 57.7754 82.6617C57.0917 81.0535 57.329 79.5247 57.9109 78.2584C58.4806 77.0193 59.3785 76.0372 60.0542 75.4933C61.0809 76.1443 61.8055 76.979 62.1639 77.8103C62.5297 78.6591 62.5109 79.4943 62.0611 80.1396C61.2878 81.071 60.9592 81.9177 60.871 82.706C60.7831 83.4923 60.9358 84.2113 61.1076 84.8803C61.1337 84.9817 61.1601 85.0819 61.1862 85.1807C61.3337 85.7401 61.4712 86.2609 61.4774 86.7765C61.4847 87.3733 61.3152 87.9619 60.7594 88.576C60.1691 89.2284 59.9072 89.8367 59.8368 90.4285C59.7668 91.0167 59.8876 91.5783 60.0418 92.1322C60.0786 92.2641 60.1171 92.3956 60.1558 92.5273C60.4442 93.5101 60.7342 94.4987 60.2729 95.6919C59.8255 96.8488 60.072 97.8721 60.5579 98.6747C60.7203 98.9431 60.9097 99.1875 61.1094 99.4046C61.23 99.4207 61.3546 99.4345 61.4828 99.448Z" fill="#1C1C2A"/>
<path d="M48.9565 71.4254C50.069 70.5257 51.2706 69.8185 51.6418 70.4636C52.3472 71.6893 53.4631 70.7725 53.7379 69.8121C54.0127 68.8518 54.1517 69.0737 54.8672 70.4155C55.1735 70.9899 55.3145 70.678 55.508 70.2501C55.7663 69.6785 56.1181 68.9005 57.0819 69.7532C57.8941 70.4718 58.5145 69.6307 59.097 68.8404C59.7231 67.9911 60.3058 67.2008 61.0366 68.471C61.5118 69.2968 61.885 70.198 62.2364 71.0466C62.5806 71.8776 62.9039 72.6583 63.2818 73.2689C63.1908 72.9682 63.3667 72.9708 63.4711 73.0566C64.1155 73.5853 64.1935 73.1103 64.2615 72.5192C64.3158 72.0463 64.2994 70.6727 64.2842 70.045C62.3606 68.9087 60.8199 67.1118 60.0852 66.1942C57.7619 66.983 57.3231 67.0402 57.062 65.4245C54.8473 66.0865 50.1285 68.2054 48.9713 71.3848C48.9663 71.3983 48.9614 71.4119 48.9565 71.4254Z" fill="#1C1C2A"/>
<path d="M63.2696 73.5269C62.9803 72.9672 63.2188 72.9463 63.3481 73.052C63.6409 73.2911 63.8173 73.3248 63.9288 73.2352C64.8032 73.9388 66.8066 75.5108 67.8252 76.1704C68.8439 76.8302 71.3781 77.4197 72.5178 77.632C72.0441 76.8545 71.0994 74.9012 71.1106 73.3089C71.1854 72.9904 71.4865 72.4335 72.0912 72.7552C72.8471 73.157 73.0272 73.8432 73.4357 74.3925C73.8442 74.9418 74.1915 74.7945 74.5492 74.7632C74.9068 74.7319 76.3678 74.9551 77.1645 75.8214C77.3765 75.9589 77.9721 76.2656 78.6559 76.393C79.5107 76.5522 80.6852 77.6196 80.4291 78.8119C80.1732 80.0044 78.8441 81.2908 78.2407 82.6306C77.6371 83.9705 76.8995 87.8963 73.2649 88.9163C72.6316 89.0941 72.0471 89.2437 71.5024 89.3664C68.9198 89.9481 67.2312 89.9217 65.4974 89.3812C65.6181 88.907 65.5376 88.3067 65.0948 87.525C63.9583 85.5182 66.8166 83.8642 67.349 81.7114C67.8815 79.5587 65.989 77.1502 65.1924 76.2838C64.396 75.4174 63.5587 74.0865 63.2696 73.5269Z" fill="#8CB9FF"/>
<path d="M68.9236 76.6084C69.6825 77.4899 71.116 78.688 72.7719 78.7C75.2313 78.718 75.3874 76.4899 75.064 75.4692C74.0895 76.3705 72.2918 77.227 72.2662 75.5976C72.2627 75.3706 72.2623 75.1548 72.2621 74.9493C72.2606 73.9796 72.2595 73.2404 71.9209 72.6621C71.3927 72.4439 71.1273 72.956 71.0587 73.2562C71.0509 74.8418 71.9752 76.7888 72.4383 77.5641C71.6246 77.4077 70.0817 77.0484 68.9236 76.6084Z" fill="#7EAEFA"/>
<path d="M68.9936 89.3123C68.6397 89.2532 68.2903 89.1773 67.9394 89.0851C68.0836 88.6093 67.999 88.0097 67.5024 87.233C66.7214 86.012 67.6535 84.9043 68.6393 83.7328C69.2631 82.9916 69.9083 82.2248 70.155 81.3874C70.607 79.8525 69.6609 78.204 68.752 77.0707C69.8228 77.5502 71.4758 78.2456 72.6619 78.5952C74.4976 79.1362 74.1998 80.4488 71.7773 79.4911C70.7812 79.1105 70.9132 80.6194 72.8954 81.2646C74.8778 81.9097 78.4172 81.4831 79.4022 78.5902C80.3871 75.6972 81.9194 75.914 81.1973 78.667C80.4751 81.42 78.8176 84.4887 77.3973 85.5487C76.7092 86.062 75.6722 86.2766 74.6098 86.4965C73.4792 86.7306 72.3198 86.9704 71.5224 87.5829C70.336 88.494 70.04 89.1767 70.0353 89.4361C69.8175 89.4205 69.6033 89.399 69.3915 89.3715L68.9936 89.3123Z" fill="#7EAEFA"/>
<path opacity="0.5" d="M65.4409 88.9479C65.4614 88.5343 65.3346 88.0371 64.9822 87.4304C64.2721 86.2074 65.0971 85.1122 65.9697 83.9539C66.5216 83.2212 67.0928 82.463 67.3062 81.6311C67.3381 81.5072 67.3615 81.3825 67.3775 81.2572L68.8532 82.4285C69.7791 83.1635 72.7211 83.022 74.1567 82.5473C73.23 83.2114 72.0185 83.4333 69.667 83.2892C67.3155 83.1453 66.6738 84.2506 68.0782 84.8273C69.4828 85.4038 73.3008 84.0206 74.5637 82.9774C73.5212 85.074 71.2279 85.5605 69.5491 85.9165C69.3735 85.9536 69.2046 85.9895 69.0446 86.0255C68.4557 86.1584 67.7951 86.1557 67.205 86.1535C66.1018 86.1493 65.2448 86.146 65.5627 87.0296C65.9132 88.004 65.6609 88.6676 65.4409 88.9479Z" fill="#70A2F2"/>
<path d="M63.7748 54.1188C64.2945 51.3582 66.6034 51.1017 67.693 51.3185C68.2928 51.3777 67.6993 50.0307 69.6856 49.6229C71.6721 49.215 73.0824 50.379 73.754 51.2565C74.4254 52.134 74.9789 53.0218 75.9943 53.7521C76.5884 55.1044 78.2551 56.4801 78.6398 56.7974C78.6703 57.1459 79.0087 59.4424 79.1002 60.4876C80.9749 58.8023 80.0093 57.4969 80.3699 56.1779C80.6582 55.1229 80.3029 54.5064 80.0892 54.33C80.0812 53.7846 80.0036 52.5353 79.7577 51.9015C79.4505 51.1091 78.6141 51.0654 78.2599 51.0964C78.4452 50.4949 78.1583 49.935 77.7839 49.7335C77.4094 49.5322 77.0045 48.9826 76.4509 48.0948C75.8975 47.207 73.8767 45.8624 73.0198 45.5862C72.1632 45.3101 72.1124 44.7294 71.8559 44.5178C68.553 42.1151 65.9395 43.514 65.3698 43.798C64.7998 44.0819 64.4254 43.8806 64.1792 43.7851C59.3314 41.4005 56.7258 45.6075 56.0012 46.8412C51.2261 49.3655 49.6891 52.1916 50.3685 55.8771C51.0477 59.5626 50.1073 61.0492 49.3521 61.9345C48.5968 62.8197 48.904 63.6121 49.6936 64.4793C51.1547 66.2239 48.9321 66.6524 48.1466 67.1893C47.3608 67.7261 48.0629 68.9519 47.7595 69.5637C47.4561 70.1753 47.6758 71.3263 48.7014 72.1728C49.8843 69.3778 53.7962 67.8653 55.9985 67.2045C58.2007 66.5437 60.0511 63.222 61.5818 61.6837C63.1126 60.1454 63.1251 57.5695 63.7748 54.1188Z" fill="#2B2B39"/>
<path opacity="0.5" d="M61.3348 61.9646C61.2713 59.1316 61.5262 55.724 62.4459 53.0814C63.0116 51.4559 63.8231 50.1375 64.9491 49.4119C66.0521 48.7012 67.4789 48.5459 69.326 49.2693C69.3186 49.4454 69.287 49.6145 69.2385 49.774C69.3214 49.7434 69.4108 49.7148 69.5073 49.6888C69.5442 49.5303 69.5653 49.3639 69.5659 49.1911C69.5673 48.603 69.3278 47.9556 68.6757 47.313C67.9748 46.6221 67.2716 46.1066 66.6458 45.6479C66.4538 45.5073 66.2692 45.372 66.0943 45.2387C65.5569 44.8292 65.1085 44.4372 64.7946 43.9597C64.6782 43.9551 64.5747 43.9322 64.4826 43.9034C64.7181 44.3201 65.0414 44.6685 65.4205 44.9977C64.835 44.8233 64.1133 44.6802 63.3483 44.6473C61.8292 44.5819 60.1166 44.9514 58.9772 46.4032C57.7824 47.9258 56.8555 50.0386 56.1463 52.1955C55.4362 54.3542 54.9412 56.566 54.6137 58.2929C54.2888 60.0055 53.6429 61.7721 52.7028 63.1844C52.0034 64.2353 51.1457 65.0836 50.1418 65.5728C50.1361 65.6768 50.1116 65.7731 50.0717 65.863C51.2022 65.365 52.1488 64.4431 52.9021 63.3111C53.863 61.8675 54.5182 60.0705 54.8476 58.3346C55.1741 56.6131 55.6671 54.4117 56.3728 52.2661C57.0791 50.1184 57.9957 48.0356 59.1658 46.5448C60.1026 45.3511 61.4559 44.9245 62.7678 44.8776C61.5416 45.4658 59.5064 46.8987 58.153 49.4146C57.191 51.2024 56.7547 53.7191 56.3207 56.2211L56.2864 56.4196C55.8383 59 55.3783 61.5441 54.3525 63.3088C53.5364 64.7126 52.3051 65.6361 51.0928 66.2204C50.0676 66.7146 49.0604 66.9637 48.34 67.0555C48.251 67.1023 48.1697 67.149 48.0998 67.1966C48.0579 67.2252 48.0201 67.2557 47.9861 67.2879L47.9882 67.3231C48.7366 67.2775 49.9553 67.0282 51.1972 66.4294C52.4404 65.8302 53.7135 64.8781 54.5591 63.4235C55.6102 61.6154 56.0751 59.0254 56.521 56.4578L56.5512 56.2835C56.9886 53.7616 57.4197 51.2766 58.3633 49.5226C59.8991 46.668 62.3288 45.2433 63.3601 44.8811C64.1517 44.9175 64.8947 45.0752 65.4772 45.2596C64.0501 45.4674 61.7768 46.4358 60.9893 49.1886C60.7204 50.1289 60.3825 51.6593 59.9855 53.4579L59.9554 53.5942C59.5449 55.4538 59.0715 57.5911 58.5445 59.6672C58.0172 61.7437 57.437 63.7552 56.8135 65.3638C56.5404 66.0686 56.2598 66.6939 55.9728 67.2124C55.9774 67.211 55.982 67.2095 55.9868 67.2082C56.0934 67.1762 56.1994 67.1382 56.3044 67.0943C56.5553 66.6128 56.7993 66.057 57.0361 65.4458C57.6646 63.8242 58.2475 61.8019 58.7754 59.7226C59.3036 57.6426 59.7777 55.5019 60.1881 53.6427L60.2163 53.5147C60.6148 51.7092 60.9516 50.1839 61.2185 49.2507C62.0682 46.2802 64.7223 45.4811 65.9808 45.448C66.1514 45.5774 66.3287 45.7073 66.511 45.841C67.1347 46.2982 67.819 46.7999 68.5066 47.4775C69.0521 48.0151 69.2778 48.5415 69.3202 49.0164C67.4629 48.3133 65.9817 48.4681 64.8188 49.2175C63.6279 49.9846 62.7935 51.3609 62.2207 53.0069C61.2608 55.7645 61.0182 59.3284 61.1034 62.2258C61.1812 62.1355 61.2585 62.0483 61.3348 61.9646Z" fill="#1C1C2A"/>
<path opacity="0.5" d="M49.9048 64.8258C51.2319 64.2157 51.9314 62.9566 52.3399 61.4564C52.591 60.534 52.7346 59.513 52.8462 58.4822C52.8906 58.072 52.93 57.6615 52.969 57.2546C53.0284 56.6347 53.087 56.0235 53.1616 55.4345C53.5111 52.6794 54.9485 48.9717 55.8542 46.936C55.7387 46.9978 55.6252 47.0597 55.5135 47.1219C54.6019 49.2131 53.2636 52.7412 52.9255 55.4067C52.8505 55.9976 52.7912 56.6166 52.7314 57.2402C52.6924 57.6465 52.6533 58.0548 52.6095 58.4584C52.4982 59.4863 52.356 60.4928 52.1099 61.3973C51.7066 62.8787 51.0306 64.0661 49.7694 64.6305C49.82 64.6977 49.8651 64.7627 49.9048 64.8258Z" fill="#1C1C2A"/>
<path d="M78.6773 57.1083C78.8506 57.1067 79.0249 57.1004 79.1981 57.0901C79.5483 57.0694 79.8978 57.0322 80.2321 56.9855C80.2346 56.9062 80.2385 56.8272 80.2449 56.7486C79.9029 56.7973 79.5438 56.8364 79.1845 56.8578C79.0044 56.8685 78.8251 56.8746 78.6484 56.8755C78.6552 56.9347 78.665 57.0135 78.6773 57.1083Z" fill="#3A0A44"/>
<path d="M76.1148 54.0017C77.7079 54.6159 79.2189 54.6557 80.2045 54.5324C80.1531 54.4532 80.1004 54.3946 80.0544 54.3564L80.0541 54.3397L80.0536 54.3156C79.0255 54.4245 77.4552 54.3484 75.8335 53.633C75.8856 53.6732 75.939 53.713 75.9934 53.7522C76.03 53.8354 76.0708 53.9186 76.1148 54.0017Z" fill="#3A0A44"/>
<path opacity="0.5" d="M67.2867 46.2821C67.7655 45.6372 69.3395 44.6087 72.0985 44.9092C72.1493 44.9916 72.2075 45.0792 72.2825 45.1659C69.4569 44.7946 67.9062 45.8413 67.4771 46.4193L67.2867 46.2821Z" fill="#1C1C2A"/>
<path opacity="0.5" d="M77.3852 51.2068C77.6882 51.2356 77.9857 51.1682 78.2704 50.9607C78.2611 51.0155 78.248 51.0712 78.2308 51.1271C78.2903 51.1219 78.3636 51.1188 78.4459 51.1212C78.1085 51.3801 77.7427 51.4746 77.3621 51.4386C76.8266 51.3878 76.2826 51.0799 75.767 50.6672C74.9631 50.0235 74.1872 49.0891 73.5761 48.3529C73.4034 48.1449 73.2439 47.9529 73.1007 47.7876C72.6163 47.229 71.8796 47.1734 71.1179 47.3573C70.3584 47.5405 69.6092 47.9553 69.1526 48.2822L69.0141 48.0939C69.4871 47.7552 70.2643 47.3236 71.0622 47.1311C71.8579 46.9391 72.7099 46.9782 73.2803 47.6362C73.4298 47.8085 73.5938 48.0059 73.7697 48.2178C74.38 48.9525 75.1331 49.8594 75.9161 50.4861C76.4202 50.8897 76.9197 51.1625 77.3852 51.2068Z" fill="#1C1C2A"/>
<path d="M69.1214 46.4939C69.7831 45.8863 71.5004 45.0842 73.0747 46.7371C74.6493 48.39 76.1292 49.4151 76.6724 49.721M70.9815 48.6875C72.0696 48.8672 74.4441 49.5861 75.2373 51.0246C76.2287 52.8226 77.8684 53.8573 79.0406 53.6369M78.1968 54.8887C78.4213 55.1833 79.0273 55.6643 79.6568 55.2322M68.3255 44.2077C68.8312 44.0849 69.9904 43.8971 70.5826 44.1281" stroke="#151523" stroke-width="0.348938"/>
<path d="M66.3063 46.6895C64.7325 46.7882 61.3628 48.2458 60.4744 53.2865M59.7653 49.2518C59.008 50.9956 57.3893 55.1951 56.9738 58.0407C56.454 61.5977 56.2513 66.0636 50.4433 67.5081M51.103 61.4806C51.5781 60.5807 52.4129 58.2759 51.9514 56.2561C51.3745 53.7315 51.6322 51.2509 53.6303 49.6714M62.8721 44.0637C60.7776 44.0908 56.4427 45.188 55.8582 49.3594C55.2735 53.5308 53.6872 58.9135 52.9672 61.0833" stroke="#151523" stroke-width="0.348938"/>
</g>
<mask id="path-82-inside-1_164_387" fill="white">
<path d="M191.315 8.20851L119.658 14.4777C116.492 14.7546 114.151 17.5447 114.428 20.7101L115.849 36.9545C116.126 40.1193 118.916 42.4609 122.082 42.184L180.478 37.075L198.861 41.3208L193.437 35.9412L193.739 35.9148C196.904 35.6379 199.245 32.8472 198.968 29.6824L197.547 13.4381C197.27 10.2727 194.48 7.93163 191.315 8.20851Z"/>
</mask>
<path d="M191.315 8.20851L119.658 14.4777C116.492 14.7546 114.151 17.5447 114.428 20.7101L115.849 36.9545C116.126 40.1193 118.916 42.4609 122.082 42.184L180.478 37.075L198.861 41.3208L193.437 35.9412L193.739 35.9148C196.904 35.6379 199.245 32.8472 198.968 29.6824L197.547 13.4381C197.27 10.2727 194.48 7.93163 191.315 8.20851Z" fill="#FFBE56" stroke="black" stroke-width="3.28152" mask="url(#path-82-inside-1_164_387)"/>
<mask id="path-83-inside-2_164_387" fill="white">
<path fill-rule="evenodd" clip-rule="evenodd" d="M134.241 17.827C130.791 18.3511 129.154 20.5176 129.313 24.1625L132.813 23.8563C132.747 22.5947 133.351 21.5943 134.618 21.3438C135.862 21.0978 137.079 21.2992 137.517 22.1448C137.989 23.0583 137.211 24.236 136.836 24.7346C136.141 25.659 134.945 26.3937 134.378 27.3751C133.822 28.3368 133.813 29.539 133.892 31.0024L136.976 30.7326C136.938 29.7958 136.921 28.8969 137.285 28.2807C137.878 27.2795 138.849 26.7497 139.629 25.9317C140.374 25.1499 141.149 24.2184 141.177 22.8792C141.263 18.8708 137.927 17.2662 134.241 17.827Z"/>
</mask>
<path fill-rule="evenodd" clip-rule="evenodd" d="M134.241 17.827C130.791 18.3511 129.154 20.5176 129.313 24.1625L132.813 23.8563C132.747 22.5947 133.351 21.5943 134.618 21.3438C135.862 21.0978 137.079 21.2992 137.517 22.1448C137.989 23.0583 137.211 24.236 136.836 24.7346C136.141 25.659 134.945 26.3937 134.378 27.3751C133.822 28.3368 133.813 29.539 133.892 31.0024L136.976 30.7326C136.938 29.7958 136.921 28.8969 137.285 28.2807C137.878 27.2795 138.849 26.7497 139.629 25.9317C140.374 25.1499 141.149 24.2184 141.177 22.8792C141.263 18.8708 137.927 17.2662 134.241 17.827Z" fill="#FCFCFC" stroke="black" stroke-width="1.05747" mask="url(#path-83-inside-2_164_387)"/>
<mask id="path-84-inside-3_164_387" fill="white">
<path d="M135.918 36.0816C136.994 35.9876 137.789 35.0337 137.694 33.9512C137.599 32.8687 136.651 32.0674 135.575 32.1615C134.5 32.2556 133.705 33.2094 133.799 34.2919C133.894 35.3745 134.843 36.1757 135.918 36.0816Z"/>
</mask>
<path d="M135.918 36.0816C136.994 35.9876 137.789 35.0337 137.694 33.9512C137.599 32.8687 136.651 32.0674 135.575 32.1615C134.5 32.2556 133.705 33.2094 133.799 34.2919C133.894 35.3745 134.843 36.1757 135.918 36.0816Z" fill="#FCFCFC" stroke="black" stroke-width="1.05747" mask="url(#path-84-inside-3_164_387)"/>
<mask id="path-85-inside-4_164_387" fill="white">
<path fill-rule="evenodd" clip-rule="evenodd" d="M153.284 16.1609C149.834 16.685 148.197 18.8515 148.356 22.4964L151.856 22.1902C151.79 20.9286 152.394 19.9282 153.661 19.6777C154.905 19.4317 156.122 19.6331 156.56 20.4787C157.032 21.3922 156.254 22.5699 155.879 23.0685C155.184 23.993 153.988 24.7276 153.421 25.709C152.865 26.6708 152.856 27.8729 152.935 29.3364L156.019 29.0665C155.981 28.1298 155.964 27.2308 156.328 26.6146C156.921 25.6134 157.892 25.0836 158.672 24.2656C159.417 23.4838 160.192 22.5524 160.22 21.2131C160.306 17.2048 156.97 15.6001 153.284 16.1609Z"/>
</mask>
<path fill-rule="evenodd" clip-rule="evenodd" d="M153.284 16.1609C149.834 16.685 148.197 18.8515 148.356 22.4964L151.856 22.1902C151.79 20.9286 152.394 19.9282 153.661 19.6777C154.905 19.4317 156.122 19.6331 156.56 20.4787C157.032 21.3922 156.254 22.5699 155.879 23.0685C155.184 23.993 153.988 24.7276 153.421 25.709C152.865 26.6708 152.856 27.8729 152.935 29.3364L156.019 29.0665C155.981 28.1298 155.964 27.2308 156.328 26.6146C156.921 25.6134 157.892 25.0836 158.672 24.2656C159.417 23.4838 160.192 22.5524 160.22 21.2131C160.306 17.2048 156.97 15.6001 153.284 16.1609Z" fill="#FCFCFC" stroke="black" stroke-width="1.05747" mask="url(#path-85-inside-4_164_387)"/>
<mask id="path-86-inside-5_164_387" fill="white">
<path d="M154.961 34.4156C156.036 34.3215 156.831 33.3676 156.737 32.2851C156.642 31.2026 155.693 30.4013 154.618 30.4954C153.542 30.5895 152.747 31.5433 152.842 32.6259C152.937 33.7084 153.885 34.5097 154.961 34.4156Z"/>
</mask>
<path d="M154.961 34.4156C156.036 34.3215 156.831 33.3676 156.737 32.2851C156.642 31.2026 155.693 30.4013 154.618 30.4954C153.542 30.5895 152.747 31.5433 152.842 32.6259C152.937 33.7084 153.885 34.5097 154.961 34.4156Z" fill="#FCFCFC" stroke="black" stroke-width="1.05747" mask="url(#path-86-inside-5_164_387)"/>
<mask id="path-87-inside-6_164_387" fill="white">
<path fill-rule="evenodd" clip-rule="evenodd" d="M172.327 14.4949C168.877 15.019 167.24 17.1855 167.4 20.8304L170.899 20.5242C170.833 19.2626 171.438 18.2622 172.705 18.0117C173.948 17.7657 175.166 17.9671 175.603 18.8127C176.076 19.7262 175.297 20.9039 174.922 21.4025C174.227 22.3269 173.032 23.0616 172.464 24.043C171.908 25.0047 171.9 26.2069 171.978 27.6703L175.063 27.4005C175.024 26.4637 175.007 25.5648 175.372 24.9486C175.965 23.9474 176.935 23.4176 177.715 22.5996C178.461 21.8178 179.235 20.8863 179.264 19.5471C179.35 15.5388 176.014 13.9341 172.327 14.4949Z"/>
</mask>
<path fill-rule="evenodd" clip-rule="evenodd" d="M172.327 14.4949C168.877 15.019 167.24 17.1855 167.4 20.8304L170.899 20.5242C170.833 19.2626 171.438 18.2622 172.705 18.0117C173.948 17.7657 175.166 17.9671 175.603 18.8127C176.076 19.7262 175.297 20.9039 174.922 21.4025C174.227 22.3269 173.032 23.0616 172.464 24.043C171.908 25.0047 171.9 26.2069 171.978 27.6703L175.063 27.4005C175.024 26.4637 175.007 25.5648 175.372 24.9486C175.965 23.9474 176.935 23.4176 177.715 22.5996C178.461 21.8178 179.235 20.8863 179.264 19.5471C179.35 15.5388 176.014 13.9341 172.327 14.4949Z" fill="#FCFCFC" stroke="black" stroke-width="1.05747" mask="url(#path-87-inside-6_164_387)"/>
<mask id="path-88-inside-7_164_387" fill="white">
<path d="M174.005 32.7496C175.08 32.6555 175.875 31.7016 175.781 30.6191C175.686 29.5366 174.737 28.7353 173.662 28.8294C172.586 28.9235 171.791 29.8773 171.886 30.9598C171.981 32.0424 172.929 32.8436 174.005 32.7496Z"/>
</mask>
<path d="M174.005 32.7496C175.08 32.6555 175.875 31.7016 175.781 30.6191C175.686 29.5366 174.737 28.7353 173.662 28.8294C172.586 28.9235 171.791 29.8773 171.886 30.9598C171.981 32.0424 172.929 32.8436 174.005 32.7496Z" fill="#FCFCFC" stroke="black" stroke-width="1.05747" mask="url(#path-88-inside-7_164_387)"/>
<mask id="path-89-inside-8_164_387" fill="white">
<path d="M137.026 208.398C138.995 230.904 158.836 247.553 181.341 245.584C203.848 243.615 220.497 223.774 218.528 201.267C216.559 178.761 196.717 162.113 174.211 164.082C151.705 166.051 135.057 185.892 137.026 208.398Z"/>
</mask>
<path d="M137.026 208.398C138.995 230.904 158.836 247.553 181.341 245.584C203.848 243.615 220.497 223.774 218.528 201.267C216.559 178.761 196.717 162.113 174.211 164.082C151.705 166.051 135.057 185.892 137.026 208.398Z" fill="white" stroke="#2773D9" stroke-opacity="0.6" stroke-width="1.74469" mask="url(#path-89-inside-8_164_387)"/>
<path d="M183.192 177.386C179.805 186.325 172.256 181.831 170.322 178.511C173.558 178.227 171.947 171.759 171.195 168.52L180.754 167.684C181.015 172.751 182.488 176.264 183.192 177.386Z" fill="#FCC4AC"/>
<path d="M183.192 177.386C179.805 186.325 172.256 181.831 170.322 178.511C173.558 178.227 171.947 171.759 171.195 168.52L180.754 167.684C181.015 172.751 182.488 176.264 183.192 177.386Z" fill="url(#paint1_linear_164_387)"/>
<path d="M161.811 183.513C162.989 197.538 162.403 234.954 162.34 240.774C162.308 243.853 169.992 245.87 178.388 245.737C189.295 245.564 198.041 241.115 199.851 239.277C198.933 222.565 196.604 186.113 196.334 183.022C192.027 180.488 185.984 178.292 183.192 177.386C178.14 181.164 174.221 180.367 171.489 178.025C167.78 179.059 163.478 182.286 161.811 183.513Z" fill="#307FE2"/>
<path d="M161.811 183.513C162.989 197.538 162.403 234.954 162.34 240.774C162.308 243.853 169.992 245.87 178.388 245.737C189.295 245.564 198.041 241.115 199.851 239.277C198.933 222.565 196.604 186.113 196.334 183.022C192.027 180.488 185.984 178.292 183.192 177.386C178.14 181.164 174.221 180.367 171.489 178.025C167.78 179.059 163.478 182.286 161.811 183.513Z" fill="url(#paint2_linear_164_387)"/>
<path d="M161.811 183.513C162.989 197.538 162.403 234.954 162.34 240.774C162.308 243.853 169.992 245.87 178.388 245.737C189.295 245.564 198.041 241.115 199.851 239.277C198.933 222.565 196.604 186.113 196.334 183.022C192.027 180.488 185.984 178.292 183.192 177.386C178.14 181.164 174.221 180.367 171.489 178.025C167.78 179.059 163.478 182.286 161.811 183.513Z" fill="#2773D9"/>
<path opacity="0.35" d="M170.966 178.184C171.029 178.163 171.092 178.143 171.153 178.124C171.721 180.428 172.354 183.53 172.761 186.75C173.271 190.8 173.422 195.05 172.618 198.135C171.628 201.945 172.02 206.433 172.716 210.583C173.012 212.357 173.364 214.066 173.688 215.632L173.688 215.632L173.689 215.638C173.743 215.901 173.797 216.159 173.848 216.413C174.211 218.182 174.516 219.741 174.622 220.955C174.645 221.219 174.668 221.477 174.69 221.731C174.882 223.8 175.046 225.593 174.657 227.768C174.223 230.21 173.092 233.128 170.538 237.471C170.222 238.015 170.2 238.745 170.396 239.587C170.589 240.428 170.994 241.365 171.508 242.308C172.087 243.374 172.802 244.443 173.498 245.381C173.412 245.372 173.322 245.362 173.236 245.352C172.568 244.444 171.891 243.422 171.337 242.402C170.819 241.451 170.405 240.496 170.205 239.631C170.007 238.768 170.016 237.979 170.369 237.372L170.369 237.372C172.918 233.039 174.035 230.144 174.464 227.734C174.848 225.587 174.686 223.82 174.497 221.749L174.497 221.748C174.474 221.494 174.449 221.236 174.426 220.972C174.321 219.771 174.019 218.224 173.656 216.452C173.605 216.197 173.551 215.938 173.497 215.674L173.497 215.672L173.497 215.672C173.173 214.106 172.82 212.393 172.521 210.615C171.825 206.461 171.429 201.938 172.429 198.085C173.221 195.039 173.075 190.82 172.565 186.775C172.163 183.568 171.533 180.479 170.966 178.184Z" fill="white"/>
<path opacity="0.35" d="M164.109 243.086C164.208 243.142 164.309 243.197 164.415 243.251C163.954 242.377 163.592 241.515 163.412 240.735C163.219 239.892 163.238 239.162 163.555 238.618C166.108 234.276 167.239 231.358 167.675 228.916C168.062 226.741 167.898 224.948 167.709 222.879L167.708 222.875C167.684 222.622 167.661 222.365 167.638 222.103C167.532 220.889 167.229 219.33 166.866 217.561C166.813 217.307 166.759 217.048 166.705 216.786L166.705 216.78L166.705 216.78C166.38 215.214 166.028 213.505 165.732 211.731C165.036 207.581 164.644 203.093 165.637 199.282C166.438 196.198 166.287 191.948 165.777 187.898C165.489 185.618 165.089 183.397 164.677 181.476C164.618 181.516 164.559 181.555 164.503 181.594C164.908 183.491 165.299 185.678 165.581 187.923C166.091 191.968 166.237 196.187 165.445 199.233C164.445 203.086 164.841 207.609 165.537 211.763C165.836 213.541 166.189 215.254 166.513 216.82L166.513 216.82L166.513 216.822C166.567 217.086 166.621 217.345 166.675 217.6C167.038 219.371 167.337 220.919 167.442 222.12C167.465 222.384 167.49 222.641 167.513 222.895L167.513 222.897C167.702 224.968 167.864 226.734 167.482 228.882C167.051 231.292 165.934 234.187 163.385 238.52L163.385 238.52C163.032 239.127 163.023 239.916 163.221 240.779C163.388 241.503 163.707 242.291 164.109 243.086Z" fill="white"/>
<path opacity="0.35" d="M180.613 245.804C180.053 245.011 179.499 244.152 179.031 243.292C178.514 242.342 178.1 241.387 177.902 240.522C177.702 239.659 177.71 238.87 178.063 238.263L178.063 238.263C180.612 233.93 181.732 231.035 182.161 228.625C182.542 226.477 182.38 224.711 182.191 222.64L182.191 222.639C182.169 222.385 182.144 222.127 182.12 221.863C182.015 220.662 181.716 219.114 181.353 217.343C181.3 217.087 181.246 216.827 181.191 216.563L181.191 216.563C180.87 214.997 180.514 213.284 180.218 211.506C179.522 207.352 179.124 202.829 180.126 198.976C180.918 195.93 180.77 191.711 180.262 187.666C179.891 184.731 179.334 181.895 178.807 179.675C178.87 179.657 178.933 179.639 178.994 179.62C179.522 181.847 180.086 184.695 180.455 187.641C180.966 191.691 181.116 195.941 180.315 199.025C179.325 202.836 179.715 207.324 180.411 211.473C180.709 213.247 181.061 214.957 181.383 216.523L181.383 216.523C181.437 216.787 181.491 217.048 181.545 217.304C181.907 219.073 182.21 220.632 182.317 221.846C182.34 222.11 182.362 222.368 182.387 222.622C182.576 224.692 182.741 226.484 182.354 228.659C181.917 231.101 180.789 234.019 178.233 238.361C177.916 238.905 177.897 239.635 178.09 240.478C178.286 241.319 178.691 242.256 179.202 243.199C179.689 244.093 180.272 244.989 180.856 245.808C180.775 245.807 180.694 245.806 180.613 245.804Z" fill="white"/>
<path opacity="0.35" d="M188.73 245.607C188.052 244.687 187.363 243.65 186.799 242.613C186.281 241.662 185.868 240.707 185.667 239.843C185.469 238.98 185.478 238.19 185.831 237.584L185.831 237.583C188.38 233.251 189.497 230.355 189.929 227.945C190.31 225.798 190.148 224.031 189.959 221.96C189.937 221.706 189.911 221.448 189.888 221.184C189.783 219.983 189.484 218.435 189.121 216.663C189.067 216.408 189.014 216.148 188.959 215.884L188.959 215.883C188.638 214.317 188.282 212.604 187.986 210.826C187.287 206.672 186.892 202.149 187.894 198.296C188.686 195.25 188.538 191.031 188.03 186.986C187.633 183.842 187.019 180.811 186.463 178.53C186.536 178.557 186.609 178.585 186.684 178.612C187.234 180.885 187.833 183.869 188.223 186.962C188.733 191.011 188.884 195.261 188.083 198.345C187.092 202.156 187.483 206.645 188.178 210.794C188.477 212.568 188.829 214.277 189.151 215.843L189.151 215.847C189.205 216.11 189.259 216.369 189.313 216.624C189.675 218.393 189.978 219.952 190.084 221.167C190.108 221.43 190.13 221.688 190.155 221.942L190.155 221.943C190.344 224.012 190.508 225.805 190.121 227.979C189.685 230.421 188.557 233.34 186.001 237.682C185.684 238.226 185.665 238.956 185.858 239.799C186.054 240.639 186.458 241.576 186.97 242.519C187.55 243.585 188.265 244.653 188.96 245.591C188.883 245.596 188.808 245.601 188.73 245.607Z" fill="white"/>
<path opacity="0.35" d="M196.578 244.527C195.991 243.704 195.405 242.803 194.916 241.903C194.398 240.952 193.985 239.997 193.787 239.132C193.586 238.27 193.598 237.48 193.948 236.873L193.95 236.873C196.499 232.54 197.617 229.645 198.045 227.235C198.427 225.088 198.267 223.321 198.078 221.25C198.054 220.996 198.031 220.738 198.008 220.473C197.903 219.272 197.601 217.725 197.238 215.953C197.184 215.698 197.133 215.438 197.079 215.174L197.079 215.173C196.754 213.607 196.402 211.894 196.103 210.116C195.407 205.962 195.008 201.439 196.011 197.586C196.802 194.54 196.657 190.321 196.147 186.276C195.988 185.017 195.796 183.776 195.583 182.595C195.66 182.636 195.731 182.677 195.805 182.718C196.006 183.855 196.19 185.045 196.34 186.251C196.85 190.301 197.001 194.551 196.2 197.635C195.209 201.446 195.599 205.934 196.295 210.084C196.594 211.858 196.946 213.567 197.27 215.133C197.324 215.397 197.376 215.658 197.429 215.914C197.792 217.683 198.095 219.242 198.201 220.456C198.224 220.72 198.25 220.978 198.272 221.232C198.461 223.302 198.625 225.094 198.238 227.269C197.802 229.711 196.674 232.629 194.118 236.972C193.804 237.515 193.782 238.246 193.978 239.088C194.171 239.929 194.575 240.866 195.09 241.809C195.586 242.724 196.183 243.641 196.782 244.476C196.716 244.493 196.647 244.51 196.578 244.527Z" fill="white"/>
<path d="M164.193 155.238C164.321 158.187 165.078 165.353 165.538 170.61C166.315 179.497 179.032 171.441 180.755 167.683C184.148 160.282 179.158 154.313 178.279 154.006L164.193 155.238Z" fill="url(#paint3_linear_164_387)"/>
<path d="M164.193 155.238C164.321 158.187 165.078 165.353 165.538 170.61C166.315 179.497 179.032 171.441 180.755 167.683C184.148 160.282 179.158 154.313 178.279 154.006L164.193 155.238Z" fill="#FCC4AC"/>
<path d="M179.533 151.286C182.395 150.478 182.176 152.873 182.042 153.271C189.164 154.579 181.939 169.367 180.927 169.751L180.69 167.13C180.588 166.086 182.539 164.843 181.261 163.104C179.564 160.797 179.66 165.614 179.66 165.614C178.559 165.152 177.829 161.211 178.613 158.877C175.303 160.697 172.798 158.065 172.291 157.295C169.986 158.919 166.215 158.678 164.916 157.62C164.782 158.285 164.508 159.526 164.693 161.64C161.785 160.387 159.87 154.993 161.382 155.368C160.232 144.392 170.279 147.496 171.539 148.702C172.797 149.908 173.036 149.518 173.177 149.408C177.09 147.054 179.25 148.858 178.978 150.151C178.704 151.445 179.421 151.321 179.533 151.286Z" fill="#6E000E"/>
<path d="M126.344 205.471C124.279 205.838 122.362 204.754 122.755 204.578C128.005 202.226 135.489 203.929 139.81 204.852C141.548 207.707 139.386 211.229 138.088 212.633C137.315 211.977 135.764 211.178 134.8 211.262C129.878 211.422 125.78 218.862 120.683 215.782C116.606 213.319 122.758 207.881 126.344 205.471Z" fill="#F4B88E"/>
<path d="M126.344 205.471C124.279 205.838 122.362 204.754 122.755 204.578C128.005 202.226 135.489 203.929 139.81 204.852C141.548 207.707 139.386 211.229 138.088 212.633C137.315 211.977 135.764 211.178 134.8 211.262C129.878 211.422 125.78 218.862 120.683 215.782C116.606 213.319 122.758 207.881 126.344 205.471Z" fill="#FCC4AC"/>
<path d="M161.811 183.511C163.142 192.867 163.017 209.194 162.567 217.536C161.6 220.749 134.39 213.388 134.927 211.457C135.464 209.526 136.979 206.633 137.653 204.357C138.115 202.796 153.912 208.58 154.25 205.98C154.588 203.38 153.766 189.006 161.811 183.511Z" fill="#307FE2"/>
<path d="M161.811 183.511C163.142 192.867 163.017 209.194 162.567 217.536C161.6 220.749 134.39 213.388 134.927 211.457C135.464 209.526 136.979 206.633 137.653 204.357C138.115 202.796 153.912 208.58 154.25 205.98C154.588 203.38 153.766 189.006 161.811 183.511Z" fill="url(#paint4_linear_164_387)"/>
<path d="M161.811 183.511C163.142 192.867 163.017 209.194 162.567 217.536C161.6 220.749 134.39 213.388 134.927 211.457C135.464 209.526 136.979 206.633 137.653 204.357C138.115 202.796 153.912 208.58 154.25 205.98C154.588 203.38 153.766 189.006 161.811 183.511Z" fill="#2773D9"/>
<path opacity="0.35" fill-rule="evenodd" clip-rule="evenodd" d="M160.612 184.341C159.159 189.63 159.274 197.038 160.621 202.546C161.293 205.293 161.737 207.718 161.543 209.753C161.351 211.78 160.527 213.415 158.658 214.594C157.966 215.03 157.292 215.043 156.563 214.847C156.021 214.701 155.459 214.443 154.84 214.159C154.617 214.057 154.387 213.952 154.148 213.847C152.351 213.059 150.127 212.353 147.007 213.62C144.576 214.607 142.026 214.024 139.939 212.954C137.851 211.883 136.249 210.335 135.72 209.429L135.551 209.527C136.104 210.475 137.739 212.046 139.85 213.129C141.963 214.212 144.577 214.818 147.081 213.801C150.131 212.562 152.297 213.249 154.069 214.026C154.3 214.127 154.525 214.23 154.745 214.331C155.369 214.617 155.953 214.885 156.512 215.036C157.278 215.241 158.012 215.233 158.763 214.759C160.692 213.543 161.542 211.849 161.737 209.771C161.936 207.701 161.482 205.246 160.81 202.499C159.47 197.019 159.358 189.645 160.802 184.393L160.612 184.341ZM157.067 190.377C157.1 190.042 157.131 189.733 157.157 189.456L156.962 189.438C156.936 189.714 156.906 190.021 156.872 190.356C156.693 192.163 156.435 194.755 156.411 197.386C156.382 200.499 156.679 203.691 157.837 205.707C159.197 208.076 158.883 209.824 157.926 210.756C156.962 211.695 155.31 211.847 153.908 210.955C153.149 210.471 151.96 209.903 150.475 209.834C148.987 209.765 147.211 210.198 145.28 211.705C144.786 212.09 143.968 212.221 143.011 212.121C142.059 212.022 140.99 211.696 140.014 211.193C139.037 210.69 138.16 210.013 137.586 209.216C137.014 208.422 136.745 207.51 136.974 206.528L136.783 206.484C136.539 207.532 136.829 208.5 137.427 209.331C138.024 210.16 138.929 210.855 139.924 211.367C140.92 211.88 142.012 212.214 142.991 212.316C143.965 212.417 144.847 212.291 145.4 211.859C147.297 210.38 149.028 209.963 150.466 210.03C151.906 210.096 153.061 210.648 153.802 211.12C155.269 212.053 157.024 211.908 158.062 210.896C159.107 209.879 159.392 208.024 158.006 205.61C156.878 203.644 156.578 200.5 156.606 197.388C156.63 194.767 156.887 192.185 157.067 190.377Z" fill="white"/>
<path d="M137.653 204.357C136.979 206.634 135.464 209.526 134.927 211.457C134.835 211.788 135.557 212.278 136.821 212.847C138.631 211.244 139.901 206.483 140.309 204.303C138.803 204.033 137.766 203.974 137.653 204.357Z" fill="#105CC1"/>
<path d="M196.098 245.52C196.98 245.013 199.539 238.568 200.805 234.13L196.822 231.474C191.742 233.688 190.033 239.114 191.327 238.784C192.622 238.453 192.806 239.152 191.806 240.742C187.962 246.839 194.885 246.219 196.098 245.52Z" fill="#FCC4AC"/>
<path d="M209.945 212.041C211.592 204.207 202.516 187.139 196.333 183.023C196.498 184.91 196.901 193.675 197.72 205.288C201.556 210.94 194.961 229.731 194.331 231.323C193.698 232.914 200.875 238.029 201.774 235.728C202.673 233.428 208.092 220.849 209.945 212.041Z" fill="#307FE2"/>
<path d="M209.945 212.041C211.592 204.207 202.516 187.139 196.333 183.023C196.498 184.91 196.901 193.675 197.72 205.288C201.556 210.94 194.961 229.731 194.331 231.323C193.698 232.914 200.875 238.029 201.774 235.728C202.673 233.428 208.092 220.849 209.945 212.041Z" fill="url(#paint5_linear_164_387)"/>
<path d="M209.945 212.041C211.592 204.207 202.516 187.139 196.333 183.023C196.498 184.91 196.901 193.675 197.72 205.288C201.556 210.94 194.961 229.731 194.331 231.323C193.698 232.914 200.875 238.029 201.774 235.728C202.673 233.428 208.092 220.849 209.945 212.041Z" fill="#2773D9"/>
<path opacity="0.35" fill-rule="evenodd" clip-rule="evenodd" d="M197.598 188.011C197.252 187.652 196.934 187.323 196.659 187.029L196.515 187.163C196.793 187.46 197.116 187.792 197.465 188.153C198.588 189.316 200.009 190.783 201.242 192.397C202.863 194.514 204.145 196.859 204.037 199.07C203.964 200.498 204.4 201.943 205.029 203.368C205.464 204.356 205.992 205.343 206.511 206.311C206.741 206.738 206.971 207.162 207.187 207.581C207.897 208.955 208.491 210.278 208.679 211.526C208.863 212.769 208.642 213.935 207.719 215.006C205.944 217.069 205.694 218.817 205.453 220.486C205.422 220.704 205.392 220.92 205.356 221.136C205.209 222.068 205.003 222.985 204.47 223.94C203.937 224.895 203.076 225.896 201.609 226.988C201.037 227.413 200.551 228.161 200.157 229.038C199.761 229.917 199.45 230.938 199.237 231.92C199.021 232.902 198.901 233.85 198.887 234.585C198.88 234.952 198.898 235.27 198.948 235.514C198.962 235.591 198.982 235.662 199.005 235.725C198.271 235.389 197.488 234.908 196.778 234.377C196.281 232.792 196.274 230.838 196.736 229.079C197.2 227.307 198.13 225.75 199.483 224.958C200.74 224.224 201.363 223.383 201.657 222.462C201.946 221.547 201.907 220.563 201.853 219.552C201.852 219.511 201.848 219.47 201.847 219.429C201.793 218.452 201.739 217.449 201.951 216.429C202.171 215.37 202.677 214.291 203.776 213.216C204.869 212.149 205.181 211.136 205.019 210.15C204.864 209.175 204.246 208.243 203.532 207.326C203.306 207.037 203.07 206.75 202.837 206.462C202.322 205.831 201.804 205.2 201.39 204.55C200.788 203.608 200.418 202.647 200.581 201.627C201.413 196.422 198.023 193.406 196.968 192.585L196.846 192.739C197.887 193.548 201.201 196.501 200.386 201.596C200.213 202.685 200.614 203.696 201.225 204.656C201.645 205.316 202.174 205.962 202.693 206.597C202.928 206.882 203.159 207.166 203.378 207.447C204.093 208.362 204.679 209.26 204.827 210.182C204.974 211.092 204.698 212.043 203.642 213.075C202.511 214.179 201.987 215.293 201.76 216.389C201.542 217.434 201.598 218.461 201.65 219.432C201.653 219.476 201.655 219.52 201.658 219.563C201.711 220.578 201.747 221.528 201.47 222.403C201.195 223.271 200.605 224.076 199.385 224.789C197.97 225.617 197.016 227.23 196.547 229.03C196.075 230.831 196.079 232.836 196.602 234.466L196.612 234.496L196.637 234.514C197.461 235.134 198.389 235.691 199.23 236.038L199.319 235.863C199.289 235.846 199.255 235.81 199.223 235.743C199.191 235.677 199.162 235.588 199.139 235.476C199.094 235.251 199.075 234.949 199.083 234.589C199.095 233.87 199.214 232.935 199.428 231.962C199.639 230.989 199.946 229.982 200.336 229.118C200.726 228.252 201.194 227.54 201.726 227.145C203.208 226.041 204.091 225.02 204.642 224.035C205.191 223.051 205.402 222.108 205.551 221.167C205.584 220.949 205.617 220.731 205.647 220.513C205.887 218.848 206.131 217.152 207.868 215.133C208.834 214.013 209.062 212.787 208.871 211.497C208.681 210.214 208.072 208.866 207.361 207.491C207.142 207.066 206.912 206.639 206.679 206.21C206.163 205.245 205.638 204.27 205.207 203.29C204.584 201.875 204.161 200.463 204.23 199.08C204.345 196.795 203.022 194.401 201.398 192.278C200.156 190.654 198.724 189.174 197.598 188.011Z" fill="white"/>
<path d="M197.191 221.977C198.726 215.867 199.887 208.481 197.72 205.288C203.061 208.377 199.93 216.606 197.191 221.977Z" fill="#105CC1"/>
<path d="M194.331 231.323C193.698 232.915 200.875 238.029 201.774 235.728C201.844 235.551 201.94 235.313 202.058 235.02C200.427 234.803 196.685 233.526 194.752 230.158C194.55 230.739 194.401 231.142 194.331 231.323Z" fill="#307FE2"/>
<path d="M194.331 231.323C193.698 232.915 200.875 238.029 201.774 235.728C201.844 235.551 201.94 235.313 202.058 235.02C200.427 234.803 196.685 233.526 194.752 230.158C194.55 230.739 194.401 231.142 194.331 231.323Z" fill="url(#paint6_linear_164_387)"/>
<path d="M194.331 231.323C193.698 232.915 200.875 238.029 201.774 235.728C201.844 235.551 201.94 235.313 202.058 235.02C200.427 234.803 196.685 233.526 194.752 230.158C194.55 230.739 194.401 231.142 194.331 231.323Z" fill="#105CC1"/>
<mask id="path-119-inside-9_164_387" fill="white">
<path d="M141.998 140.705L77.6435 146.335C74.8008 146.584 72.6977 149.09 72.9464 151.932L74.2228 166.521C74.4714 169.364 76.9777 171.467 79.8205 171.218L132.265 166.63L148.776 170.443L143.904 165.611L144.175 165.588C147.018 165.339 149.121 162.833 148.872 159.99L147.596 145.401C147.347 142.559 144.841 140.456 141.998 140.705Z"/>
</mask>
<path d="M141.998 140.705L77.6435 146.335C74.8008 146.584 72.6977 149.09 72.9464 151.932L74.2228 166.521C74.4714 169.364 76.9777 171.467 79.8205 171.218L132.265 166.63L148.776 170.443L143.904 165.611L144.175 165.588C147.018 165.339 149.121 162.833 148.872 159.99L147.596 145.401C147.347 142.559 144.841 140.456 141.998 140.705Z" fill="#8BBAFA" stroke="black" stroke-width="2.94711" mask="url(#path-119-inside-9_164_387)"/>
<mask id="path-120-inside-10_164_387" fill="white">
<path fill-rule="evenodd" clip-rule="evenodd" d="M94.6611 150.631C92.0338 151.03 90.787 152.68 90.9083 155.455L93.5735 155.222C93.5231 154.261 93.9835 153.5 94.9483 153.309C95.8953 153.121 96.8227 153.275 97.1558 153.919C97.5157 154.615 96.9229 155.511 96.637 155.891C96.1079 156.595 95.1974 157.155 94.7654 157.902C94.342 158.634 94.3353 159.55 94.3953 160.664L96.7443 160.459C96.715 159.746 96.7018 159.061 96.9794 158.592C97.4311 157.829 98.17 157.426 98.7643 156.803C99.332 156.207 99.9219 155.498 99.9434 154.478C100.009 151.426 97.4684 150.204 94.6611 150.631Z"/>
</mask>
<path fill-rule="evenodd" clip-rule="evenodd" d="M94.6611 150.631C92.0338 151.03 90.787 152.68 90.9083 155.455L93.5735 155.222C93.5231 154.261 93.9835 153.5 94.9483 153.309C95.8953 153.121 96.8227 153.275 97.1558 153.919C97.5157 154.615 96.9229 155.511 96.637 155.891C96.1079 156.595 95.1974 157.155 94.7654 157.902C94.342 158.634 94.3353 159.55 94.3953 160.664L96.7443 160.459C96.715 159.746 96.7018 159.061 96.9794 158.592C97.4311 157.829 98.17 157.426 98.7643 156.803C99.332 156.207 99.9219 155.498 99.9434 154.478C100.009 151.426 97.4684 150.204 94.6611 150.631Z" fill="#FCFCFC" stroke="black" stroke-width="1.05747" mask="url(#path-120-inside-10_164_387)"/>
<mask id="path-121-inside-11_164_387" fill="white">
<path d="M95.9385 164.532C96.7576 164.461 97.3631 163.734 97.291 162.91C97.2188 162.086 96.4964 161.475 95.6773 161.547C94.8583 161.619 94.2528 162.345 94.3249 163.17C94.3971 163.994 95.1195 164.604 95.9385 164.532Z"/>
</mask>
<path d="M95.9385 164.532C96.7576 164.461 97.3631 163.734 97.291 162.91C97.2188 162.086 96.4964 161.475 95.6773 161.547C94.8583 161.619 94.2528 162.345 94.3249 163.17C94.3971 163.994 95.1195 164.604 95.9385 164.532Z" fill="#FCFCFC" stroke="black" stroke-width="1.05747" mask="url(#path-121-inside-11_164_387)"/>
<mask id="path-122-inside-12_164_387" fill="white">
<path fill-rule="evenodd" clip-rule="evenodd" d="M109.164 149.362C106.536 149.761 105.289 151.411 105.411 154.187L108.076 153.954C108.026 152.993 108.486 152.231 109.451 152.04C110.398 151.853 111.325 152.006 111.658 152.65C112.018 153.346 111.425 154.243 111.139 154.622C110.61 155.326 109.7 155.886 109.268 156.633C108.844 157.366 108.838 158.281 108.898 159.396L111.247 159.19C111.217 158.477 111.204 157.792 111.482 157.323C111.934 156.561 112.672 156.157 113.267 155.534C113.834 154.939 114.424 154.229 114.446 153.209C114.511 150.157 111.971 148.935 109.164 149.362Z"/>
</mask>
<path fill-rule="evenodd" clip-rule="evenodd" d="M109.164 149.362C106.536 149.761 105.289 151.411 105.411 154.187L108.076 153.954C108.026 152.993 108.486 152.231 109.451 152.04C110.398 151.853 111.325 152.006 111.658 152.65C112.018 153.346 111.425 154.243 111.139 154.622C110.61 155.326 109.7 155.886 109.268 156.633C108.844 157.366 108.838 158.281 108.898 159.396L111.247 159.19C111.217 158.477 111.204 157.792 111.482 157.323C111.934 156.561 112.672 156.157 113.267 155.534C113.834 154.939 114.424 154.229 114.446 153.209C114.511 150.157 111.971 148.935 109.164 149.362Z" fill="#FCFCFC" stroke="black" stroke-width="1.05747" mask="url(#path-122-inside-12_164_387)"/>
<mask id="path-123-inside-13_164_387" fill="white">
<path d="M110.44 163.264C111.26 163.192 111.865 162.466 111.793 161.641C111.721 160.817 110.998 160.207 110.179 160.278C109.36 160.35 108.755 161.077 108.827 161.901C108.899 162.725 109.621 163.336 110.44 163.264Z"/>
</mask>
<path d="M110.44 163.264C111.26 163.192 111.865 162.466 111.793 161.641C111.721 160.817 110.998 160.207 110.179 160.278C109.36 160.35 108.755 161.077 108.827 161.901C108.899 162.725 109.621 163.336 110.44 163.264Z" fill="#FCFCFC" stroke="black" stroke-width="1.05747" mask="url(#path-123-inside-13_164_387)"/>
<mask id="path-124-inside-14_164_387" fill="white">
<path fill-rule="evenodd" clip-rule="evenodd" d="M123.666 148.093C121.039 148.492 119.792 150.142 119.913 152.918L122.578 152.685C122.528 151.724 122.988 150.962 123.953 150.771C124.9 150.584 125.828 150.737 126.161 151.381C126.521 152.077 125.928 152.974 125.642 153.354C125.113 154.058 124.202 154.617 123.77 155.364C123.347 156.097 123.34 157.012 123.4 158.127L125.749 157.921C125.72 157.208 125.707 156.523 125.984 156.054C126.436 155.292 127.175 154.888 127.769 154.265C128.337 153.67 128.927 152.961 128.948 151.941C129.014 148.888 126.473 147.666 123.666 148.093Z"/>
</mask>
<path fill-rule="evenodd" clip-rule="evenodd" d="M123.666 148.093C121.039 148.492 119.792 150.142 119.913 152.918L122.578 152.685C122.528 151.724 122.988 150.962 123.953 150.771C124.9 150.584 125.828 150.737 126.161 151.381C126.521 152.077 125.928 152.974 125.642 153.354C125.113 154.058 124.202 154.617 123.77 155.364C123.347 156.097 123.34 157.012 123.4 158.127L125.749 157.921C125.72 157.208 125.707 156.523 125.984 156.054C126.436 155.292 127.175 154.888 127.769 154.265C128.337 153.67 128.927 152.961 128.948 151.941C129.014 148.888 126.473 147.666 123.666 148.093Z" fill="#FCFCFC" stroke="black" stroke-width="1.05747" mask="url(#path-124-inside-14_164_387)"/>
<mask id="path-125-inside-15_164_387" fill="white">
<path d="M124.943 161.995C125.762 161.923 126.367 161.197 126.295 160.373C126.223 159.548 125.501 158.938 124.682 159.01C123.863 159.081 123.257 159.808 123.329 160.632C123.401 161.456 124.124 162.067 124.943 161.995Z"/>
</mask>
<path d="M124.943 161.995C125.762 161.923 126.367 161.197 126.295 160.373C126.223 159.548 125.501 158.938 124.682 159.01C123.863 159.081 123.257 159.808 123.329 160.632C123.401 161.456 124.124 162.067 124.943 161.995Z" fill="#FCFCFC" stroke="black" stroke-width="1.05747" mask="url(#path-125-inside-15_164_387)"/>
<defs>
<filter id="filter0_d_164_387" x="0.324062" y="16.389" width="135.793" height="135.793" filterUnits="userSpaceOnUse" color-interpolation-filters="sRGB">
<feFlood flood-opacity="0" result="BackgroundImageFix"/>
<feColorMatrix in="SourceAlpha" type="matrix" values="0 0 0 0 0 0 0 0 0 0 0 0 0 0 0 0 0 0 127 0" result="hardAlpha"/>
<feOffset dy="-7.41493"/>
<feGaussianBlur stdDeviation="12.649"/>
<feColorMatrix type="matrix" values="0 0 0 0 0.696557 0 0 0 0 0.836898 0 0 0 0 0.818186 0 0 0 0.05 0"/>
<feBlend mode="normal" in2="BackgroundImageFix" result="effect1_dropShadow_164_387"/>
<feBlend mode="normal" in="SourceGraphic" in2="effect1_dropShadow_164_387" result="shape"/>
</filter>
<linearGradient id="paint0_linear_164_387" x1="234.474" y1="44.8997" x2="237.065" y2="55.1306" gradientUnits="userSpaceOnUse">
<stop stop-color="#F4AF8A"/>
<stop offset="1" stop-color="#F9C0A1" stop-opacity="0"/>
</linearGradient>
<linearGradient id="paint1_linear_164_387" x1="173.904" y1="175.61" x2="178.304" y2="177.393" gradientUnits="userSpaceOnUse">
<stop stop-color="#F3AD8F"/>
<stop offset="1" stop-color="#FCC4AC" stop-opacity="0"/>
</linearGradient>
<linearGradient id="paint2_linear_164_387" x1="194.191" y1="230.607" x2="183.185" y2="226.14" gradientUnits="userSpaceOnUse">
<stop stop-color="#026CF0"/>
<stop offset="1" stop-color="#307FE2" stop-opacity="0"/>
</linearGradient>
<linearGradient id="paint3_linear_164_387" x1="163.889" y1="167.363" x2="172.267" y2="167.565" gradientUnits="userSpaceOnUse">
<stop stop-color="#FEA568"/>
<stop offset="1" stop-color="#F4B88E"/>
</linearGradient>
<linearGradient id="paint4_linear_164_387" x1="152.869" y1="218.43" x2="153.019" y2="213.869" gradientUnits="userSpaceOnUse">
<stop stop-color="#0154F7"/>
<stop offset="1" stop-color="#307FE2" stop-opacity="0"/>
</linearGradient>
<linearGradient id="paint5_linear_164_387" x1="209.653" y1="213.64" x2="205.757" y2="212.383" gradientUnits="userSpaceOnUse">
<stop stop-color="#0071FF"/>
<stop offset="1" stop-color="#307FE2" stop-opacity="0"/>
</linearGradient>
<linearGradient id="paint6_linear_164_387" x1="209.653" y1="213.64" x2="205.757" y2="212.383" gradientUnits="userSpaceOnUse">
<stop stop-color="#0071FF"/>
<stop offset="1" stop-color="#307FE2" stop-opacity="0"/>
</linearGradient>
</defs>
</svg>
