<svg width="229" height="384" viewBox="0 0 229 384" fill="none" xmlns="http://www.w3.org/2000/svg">
<rect width="228.073" height="384" rx="11.6364" fill="white"/>
<rect x="26.1814" y="29.6728" width="171.055" height="145.455" rx="5.23636" stroke="#8BBAF9" stroke-width="1.16364"/>
<path d="M64.3977 83.726L61.6748 93.4727H59.3708L57.5415 86.5327L55.6285 93.4727L53.3385 93.4866L50.7133 83.726H52.8079L54.5254 91.2943L56.5082 83.726H58.6866L60.5577 91.2524L62.2892 83.726H64.3977ZM70.0308 85.6251C70.6173 85.6251 71.1386 85.7554 71.5947 86.0161C72.0509 86.2674 72.4046 86.6444 72.656 87.1471C72.9166 87.6405 73.047 88.2363 73.047 88.9345V93.4727H71.092V89.1998C71.092 88.5854 70.9384 88.1153 70.6312 87.7895C70.324 87.4543 69.9051 87.2868 69.3745 87.2868C68.8346 87.2868 68.4064 87.4543 68.0899 87.7895C67.7827 88.1153 67.6291 88.5854 67.6291 89.1998V93.4727H65.6742V83.1396H67.6291V86.7003C67.8804 86.3652 68.2155 86.1045 68.6344 85.9183C69.0534 85.7228 69.5188 85.6251 70.0308 85.6251ZM78.341 93.5983C77.5963 93.5983 76.926 93.4354 76.3303 93.1096C75.7345 92.7745 75.2644 92.3044 74.9199 91.6993C74.5848 91.0942 74.4172 90.396 74.4172 89.6047C74.4172 88.8135 74.5895 88.1153 74.9339 87.5102C75.2876 86.9051 75.7671 86.4396 76.3722 86.1138C76.9772 85.7787 77.6522 85.6111 78.3969 85.6111C79.1416 85.6111 79.8165 85.7787 80.4216 86.1138C81.0267 86.4396 81.5015 86.9051 81.8459 87.5102C82.1996 88.1153 82.3765 88.8135 82.3765 89.6047C82.3765 90.396 82.195 91.0942 81.8319 91.6993C81.4782 92.3044 80.9941 92.7745 80.3797 93.1096C79.7746 93.4354 79.0951 93.5983 78.341 93.5983ZM78.341 91.8948C78.6948 91.8948 79.0252 91.811 79.3324 91.6434C79.649 91.4665 79.9003 91.2059 80.0865 90.8615C80.2727 90.517 80.3658 90.0981 80.3658 89.6047C80.3658 88.8693 80.1703 88.3061 79.7793 87.9151C79.3976 87.5148 78.9275 87.3147 78.369 87.3147C77.8104 87.3147 77.3403 87.5148 76.9586 87.9151C76.5863 88.3061 76.4001 88.8693 76.4001 89.6047C76.4001 90.3401 76.5816 90.908 76.9447 91.3083C77.317 91.6993 77.7825 91.8948 78.341 91.8948ZM90.6846 87.3426H89.3301V93.4727H87.3472V87.3426H86.4675V85.7368H87.3472V85.3458C87.3472 84.3963 87.6172 83.6981 88.1571 83.2513C88.6971 82.8044 89.5116 82.595 90.6008 82.6229V84.2706C90.126 84.2613 89.7955 84.3404 89.6094 84.508C89.4232 84.6756 89.3301 84.9781 89.3301 85.4156V85.7368H90.6846V87.3426ZM95.3865 93.5983C94.6418 93.5983 93.9715 93.4354 93.3757 93.1096C92.7799 92.7745 92.3098 92.3044 91.9654 91.6993C91.6303 91.0942 91.4627 90.396 91.4627 89.6047C91.4627 88.8135 91.6349 88.1153 91.9794 87.5102C92.3331 86.9051 92.8125 86.4396 93.4176 86.1138C94.0227 85.7787 94.6976 85.6111 95.4423 85.6111C96.1871 85.6111 96.862 85.7787 97.4671 86.1138C98.0722 86.4396 98.5469 86.9051 98.8914 87.5102C99.2451 88.1153 99.422 88.8135 99.422 89.6047C99.422 90.396 99.2404 91.0942 98.8774 91.6993C98.5236 92.3044 98.0396 92.7745 97.4252 93.1096C96.8201 93.4354 96.1405 93.5983 95.3865 93.5983ZM95.3865 91.8948C95.7402 91.8948 96.0707 91.811 96.3779 91.6434C96.6944 91.4665 96.9458 91.2059 97.1319 90.8615C97.3181 90.517 97.4112 90.0981 97.4112 89.6047C97.4112 88.8693 97.2157 88.3061 96.8247 87.9151C96.4431 87.5148 95.973 87.3147 95.4144 87.3147C94.8559 87.3147 94.3858 87.5148 94.0041 87.9151C93.6317 88.3061 93.4455 88.8693 93.4455 89.6047C93.4455 90.3401 93.6271 90.908 93.9901 91.3083C94.3625 91.6993 94.8279 91.8948 95.3865 91.8948ZM108.159 85.7368V93.4727H106.19V92.4952C105.939 92.8303 105.608 93.0956 105.199 93.2911C104.798 93.4773 104.361 93.5704 103.886 93.5704C103.281 93.5704 102.746 93.4447 102.28 93.1934C101.815 92.9327 101.447 92.5557 101.177 92.0623C100.916 91.5596 100.786 90.9639 100.786 90.275V85.7368H102.741V89.9957C102.741 90.6101 102.895 91.0849 103.202 91.42C103.509 91.7458 103.928 91.9087 104.459 91.9087C104.999 91.9087 105.422 91.7458 105.729 91.42C106.036 91.0849 106.19 90.6101 106.19 89.9957V85.7368H108.159ZM114.375 85.6251C115.296 85.6251 116.041 85.9183 116.609 86.5048C117.177 87.082 117.461 87.8919 117.461 88.9345V93.4727H115.506V89.1998C115.506 88.5854 115.352 88.1153 115.045 87.7895C114.738 87.4543 114.319 87.2868 113.788 87.2868C113.248 87.2868 112.82 87.4543 112.503 87.7895C112.196 88.1153 112.043 88.5854 112.043 89.1998V93.4727H110.088V85.7368H112.043V86.7003C112.303 86.3652 112.634 86.1045 113.034 85.9183C113.444 85.7228 113.891 85.6251 114.375 85.6251ZM118.817 89.5768C118.817 88.7948 118.971 88.1013 119.278 87.4962C119.594 86.8911 120.022 86.4257 120.562 86.0999C121.102 85.774 121.703 85.6111 122.364 85.6111C122.866 85.6111 123.346 85.7228 123.802 85.9463C124.258 86.1604 124.621 86.4489 124.891 86.812V83.1396H126.874V93.4727H124.891V92.3276C124.649 92.7093 124.309 93.0165 123.872 93.2492C123.434 93.482 122.927 93.5983 122.35 93.5983C121.698 93.5983 121.102 93.4308 120.562 93.0956C120.022 92.7605 119.594 92.2904 119.278 91.6853C118.971 91.0709 118.817 90.3681 118.817 89.5768ZM124.905 89.6047C124.905 89.13 124.812 88.725 124.626 88.3899C124.44 88.0455 124.188 87.7848 123.872 87.6079C123.555 87.4217 123.215 87.3287 122.852 87.3287C122.489 87.3287 122.154 87.4171 121.847 87.594C121.54 87.7708 121.288 88.0315 121.093 88.3759C120.907 88.7111 120.814 89.1113 120.814 89.5768C120.814 90.0423 120.907 90.4519 121.093 90.8056C121.288 91.15 121.54 91.4153 121.847 91.6015C122.164 91.7877 122.499 91.8808 122.852 91.8808C123.215 91.8808 123.555 91.7924 123.872 91.6155C124.188 91.4293 124.44 91.1687 124.626 90.8335C124.812 90.4891 124.905 90.0795 124.905 89.6047ZM135.975 89.4372C135.975 89.7164 135.956 89.9678 135.919 90.1912H130.263C130.31 90.7497 130.505 91.1873 130.85 91.5038C131.194 91.8203 131.618 91.9785 132.121 91.9785C132.847 91.9785 133.363 91.6667 133.671 91.043H135.779C135.556 91.7877 135.127 92.4021 134.494 92.8862C133.861 93.3609 133.084 93.5983 132.162 93.5983C131.418 93.5983 130.747 93.4354 130.152 93.1096C129.565 92.7745 129.104 92.3044 128.769 91.6993C128.443 91.0942 128.281 90.396 128.281 89.6047C128.281 88.8041 128.443 88.1013 128.769 87.4962C129.095 86.8911 129.551 86.4257 130.138 86.0999C130.724 85.774 131.399 85.6111 132.162 85.6111C132.898 85.6111 133.554 85.7694 134.131 86.0859C134.718 86.4024 135.169 86.8539 135.486 87.4404C135.812 88.0175 135.975 88.6831 135.975 89.4372ZM133.95 88.8786C133.94 88.3759 133.759 87.9756 133.405 87.6777C133.051 87.3705 132.619 87.2169 132.107 87.2169C131.623 87.2169 131.213 87.3659 130.878 87.6638C130.552 87.9524 130.352 88.3573 130.277 88.8786H133.95ZM136.899 89.5768C136.899 88.7948 137.052 88.1013 137.36 87.4962C137.676 86.8911 138.104 86.4257 138.644 86.0999C139.184 85.774 139.785 85.6111 140.446 85.6111C140.948 85.6111 141.428 85.7228 141.884 85.9463C142.34 86.1604 142.703 86.4489 142.973 86.812V83.1396H144.956V93.4727H142.973V92.3276C142.731 92.7093 142.391 93.0165 141.954 93.2492C141.516 93.482 141.009 93.5983 140.432 93.5983C139.78 93.5983 139.184 93.4308 138.644 93.0956C138.104 92.7605 137.676 92.2904 137.36 91.6853C137.052 91.0709 136.899 90.3681 136.899 89.5768ZM142.987 89.6047C142.987 89.13 142.894 88.725 142.708 88.3899C142.521 88.0455 142.27 87.7848 141.954 87.6079C141.637 87.4217 141.297 87.3287 140.934 87.3287C140.571 87.3287 140.236 87.4171 139.929 87.594C139.622 87.7708 139.37 88.0315 139.175 88.3759C138.989 88.7111 138.896 89.1113 138.896 89.5768C138.896 90.0423 138.989 90.4519 139.175 90.8056C139.37 91.15 139.622 91.4153 139.929 91.6015C140.245 91.7877 140.58 91.8808 140.934 91.8808C141.297 91.8808 141.637 91.7924 141.954 91.6155C142.27 91.4293 142.521 91.1687 142.708 90.8335C142.894 90.4891 142.987 90.0795 142.987 89.6047ZM153.627 93.5983C152.883 93.5983 152.212 93.4354 151.617 93.1096C151.021 92.7745 150.551 92.3044 150.206 91.6993C149.871 91.0942 149.704 90.396 149.704 89.6047C149.704 88.8135 149.876 88.1153 150.22 87.5102C150.574 86.9051 151.053 86.4396 151.659 86.1138C152.264 85.7787 152.939 85.6111 153.683 85.6111C154.428 85.6111 155.103 85.7787 155.708 86.1138C156.313 86.4396 156.788 86.9051 157.132 87.5102C157.486 88.1153 157.663 88.8135 157.663 89.6047C157.663 90.396 157.481 91.0942 157.118 91.6993C156.765 92.3044 156.28 92.7745 155.666 93.1096C155.061 93.4354 154.381 93.5983 153.627 93.5983ZM153.627 91.8948C153.981 91.8948 154.312 91.811 154.619 91.6434C154.935 91.4665 155.187 91.2059 155.373 90.8615C155.559 90.517 155.652 90.0981 155.652 89.6047C155.652 88.8693 155.457 88.3061 155.066 87.9151C154.684 87.5148 154.214 87.3147 153.655 87.3147C153.097 87.3147 152.627 87.5148 152.245 87.9151C151.873 88.3061 151.686 88.8693 151.686 89.6047C151.686 90.3401 151.868 90.908 152.231 91.3083C152.603 91.6993 153.069 91.8948 153.627 91.8948ZM166.4 85.7368V93.4727H164.431V92.4952C164.18 92.8303 163.849 93.0956 163.44 93.2911C163.039 93.4773 162.602 93.5704 162.127 93.5704C161.522 93.5704 160.987 93.4447 160.521 93.1934C160.056 92.9327 159.688 92.5557 159.418 92.0623C159.157 91.5596 159.027 90.9639 159.027 90.275V85.7368H160.982V89.9957C160.982 90.6101 161.136 91.0849 161.443 91.42C161.75 91.7458 162.169 91.9087 162.7 91.9087C163.239 91.9087 163.663 91.7458 163.97 91.42C164.277 91.0849 164.431 90.6101 164.431 89.9957V85.7368H166.4ZM170.284 86.9377C170.535 86.5281 170.861 86.2069 171.261 85.9742C171.671 85.7415 172.136 85.6251 172.657 85.6251V87.6777H172.141C171.526 87.6777 171.061 87.822 170.744 88.1106C170.437 88.3992 170.284 88.9019 170.284 89.6187V93.4727H168.329V85.7368H170.284V86.9377ZM74.1374 117.605C74.1374 116.804 74.3003 116.106 74.6261 115.51C74.9519 114.905 75.4034 114.44 75.9806 114.114C76.5577 113.779 77.2187 113.611 77.9634 113.611C78.9222 113.611 79.7135 113.853 80.3372 114.337C80.9702 114.812 81.3938 115.482 81.6079 116.348H79.4994C79.3877 116.013 79.1969 115.752 78.9269 115.566C78.6662 115.371 78.3404 115.273 77.9494 115.273C77.3909 115.273 76.9487 115.478 76.6229 115.887C76.2971 116.287 76.1342 116.86 76.1342 117.605C76.1342 118.34 76.2971 118.913 76.6229 119.322C76.9487 119.723 77.3909 119.923 77.9494 119.923C78.7407 119.923 79.2574 119.569 79.4994 118.861H81.6079C81.3938 119.699 80.9702 120.365 80.3372 120.858C79.7042 121.352 78.9129 121.598 77.9634 121.598C77.2187 121.598 76.5577 121.435 75.9806 121.11C75.4034 120.774 74.9519 120.309 74.6261 119.713C74.3003 119.108 74.1374 118.405 74.1374 117.605ZM86.4751 121.598C85.7304 121.598 85.0601 121.435 84.4644 121.11C83.8686 120.774 83.3985 120.304 83.054 119.699C82.7189 119.094 82.5513 118.396 82.5513 117.605C82.5513 116.813 82.7236 116.115 83.068 115.51C83.4217 114.905 83.9012 114.44 84.5062 114.114C85.1113 113.779 85.7862 113.611 86.531 113.611C87.2757 113.611 87.9506 113.779 88.5557 114.114C89.1608 114.44 89.6356 114.905 89.98 115.51C90.3337 116.115 90.5106 116.813 90.5106 117.605C90.5106 118.396 90.3291 119.094 89.966 119.699C89.6123 120.304 89.1282 120.774 88.5138 121.11C87.9087 121.435 87.2292 121.598 86.4751 121.598ZM86.4751 119.895C86.8289 119.895 87.1593 119.811 87.4665 119.643C87.783 119.467 88.0344 119.206 88.2206 118.861C88.4068 118.517 88.4998 118.098 88.4998 117.605C88.4998 116.869 88.3044 116.306 87.9134 115.915C87.5317 115.515 87.0616 115.315 86.503 115.315C85.9445 115.315 85.4744 115.515 85.0927 115.915C84.7204 116.306 84.5342 116.869 84.5342 117.605C84.5342 118.34 84.7157 118.908 85.0788 119.308C85.4511 119.699 85.9166 119.895 86.4751 119.895ZM101.552 113.625C102.501 113.625 103.264 113.918 103.842 114.505C104.428 115.082 104.721 115.892 104.721 116.934V121.473H102.766V117.2C102.766 116.595 102.613 116.134 102.306 115.817C101.998 115.492 101.58 115.329 101.049 115.329C100.518 115.329 100.095 115.492 99.7782 115.817C99.471 116.134 99.3174 116.595 99.3174 117.2V121.473H97.3625V117.2C97.3625 116.595 97.2089 116.134 96.9017 115.817C96.5945 115.492 96.1756 115.329 95.645 115.329C95.105 115.329 94.6768 115.492 94.3603 115.817C94.0531 116.134 93.8995 116.595 93.8995 117.2V121.473H91.9446V113.737H93.8995V114.672C94.1509 114.347 94.472 114.091 94.863 113.904C95.2633 113.718 95.7008 113.625 96.1756 113.625C96.7807 113.625 97.3206 113.755 97.7954 114.016C98.2701 114.267 98.6378 114.63 98.8985 115.105C99.1498 114.658 99.5129 114.3 99.9877 114.03C100.472 113.76 100.993 113.625 101.552 113.625ZM108.531 114.854C108.783 114.5 109.127 114.207 109.565 113.974C110.011 113.732 110.519 113.611 111.087 113.611C111.748 113.611 112.343 113.774 112.874 114.1C113.414 114.426 113.838 114.891 114.145 115.496C114.461 116.092 114.619 116.786 114.619 117.577C114.619 118.368 114.461 119.071 114.145 119.685C113.838 120.29 113.414 120.761 112.874 121.096C112.343 121.431 111.748 121.598 111.087 121.598C110.519 121.598 110.016 121.482 109.579 121.249C109.15 121.017 108.801 120.723 108.531 120.37V125.159H106.576V113.737H108.531V114.854ZM112.623 117.577C112.623 117.111 112.525 116.711 112.329 116.376C112.143 116.031 111.892 115.771 111.575 115.594C111.268 115.417 110.933 115.329 110.57 115.329C110.216 115.329 109.881 115.422 109.565 115.608C109.257 115.785 109.006 116.045 108.811 116.39C108.624 116.734 108.531 117.139 108.531 117.605C108.531 118.07 108.624 118.475 108.811 118.82C109.006 119.164 109.257 119.429 109.565 119.615C109.881 119.792 110.216 119.881 110.57 119.881C110.933 119.881 111.268 119.788 111.575 119.602C111.892 119.415 112.143 119.15 112.329 118.806C112.525 118.461 112.623 118.052 112.623 117.577ZM115.537 117.577C115.537 116.795 115.691 116.101 115.998 115.496C116.315 114.891 116.738 114.426 117.269 114.1C117.809 113.774 118.409 113.611 119.07 113.611C119.647 113.611 120.15 113.727 120.578 113.96C121.016 114.193 121.365 114.486 121.626 114.84V113.737H123.594V121.473H121.626V120.342C121.374 120.705 121.025 121.007 120.578 121.249C120.141 121.482 119.633 121.598 119.056 121.598C118.405 121.598 117.809 121.431 117.269 121.096C116.738 120.761 116.315 120.29 115.998 119.685C115.691 119.071 115.537 118.368 115.537 117.577ZM121.626 117.605C121.626 117.13 121.532 116.725 121.346 116.39C121.16 116.045 120.909 115.785 120.592 115.608C120.276 115.422 119.936 115.329 119.573 115.329C119.21 115.329 118.875 115.417 118.567 115.594C118.26 115.771 118.009 116.031 117.813 116.376C117.627 116.711 117.534 117.111 117.534 117.577C117.534 118.042 117.627 118.452 117.813 118.806C118.009 119.15 118.26 119.415 118.567 119.602C118.884 119.788 119.219 119.881 119.573 119.881C119.936 119.881 120.276 119.792 120.592 119.615C120.909 119.429 121.16 119.169 121.346 118.834C121.532 118.489 121.626 118.079 121.626 117.605ZM129.791 113.625C130.712 113.625 131.457 113.918 132.025 114.505C132.593 115.082 132.876 115.892 132.876 116.934V121.473H130.922V117.2C130.922 116.585 130.768 116.115 130.461 115.789C130.154 115.454 129.735 115.287 129.204 115.287C128.664 115.287 128.236 115.454 127.919 115.789C127.612 116.115 127.459 116.585 127.459 117.2V121.473H125.504V113.737H127.459V114.7C127.719 114.365 128.05 114.105 128.45 113.918C128.86 113.723 129.306 113.625 129.791 113.625ZM142.136 113.737L137.347 125.131H135.266L136.942 121.277L133.842 113.737H136.034L138.031 119.141L140.056 113.737H142.136ZM145.913 111.391C146.881 111.391 147.658 111.656 148.245 112.187C148.841 112.708 149.139 113.43 149.139 114.351C149.139 115.263 148.845 115.962 148.259 116.446C147.672 116.921 146.895 117.158 145.927 117.158L145.871 118.233H144.154L144.084 115.859H144.712C145.522 115.859 146.146 115.752 146.583 115.538C147.021 115.324 147.24 114.933 147.24 114.365C147.24 113.956 147.119 113.63 146.876 113.388C146.644 113.146 146.323 113.025 145.913 113.025C145.485 113.025 145.15 113.141 144.908 113.374C144.675 113.606 144.559 113.928 144.559 114.337H142.715C142.706 113.769 142.827 113.262 143.078 112.815C143.33 112.368 143.697 112.019 144.181 111.768C144.675 111.517 145.252 111.391 145.913 111.391ZM145.005 121.57C144.652 121.57 144.358 121.463 144.126 121.249C143.902 121.026 143.791 120.751 143.791 120.425C143.791 120.1 143.902 119.83 144.126 119.615C144.358 119.392 144.652 119.28 145.005 119.28C145.35 119.28 145.634 119.392 145.857 119.615C146.081 119.83 146.192 120.1 146.192 120.425C146.192 120.751 146.081 121.026 145.857 121.249C145.634 121.463 145.35 121.57 145.005 121.57Z" fill="black"/>
<g filter="url(#filter0_d_164_284)">
<rect x="25.5996" y="195.491" width="172.218" height="32.51" rx="2.62177" fill="#217BF4"/>
</g>
<path d="M67.4668 217.291V206.289H71.1841C72.0472 206.289 72.7527 206.445 73.3006 206.757C73.8522 207.065 74.2604 207.482 74.5254 208.008C74.7904 208.535 74.923 209.122 74.923 209.77C74.923 210.419 74.7904 211.008 74.5254 211.538C74.264 212.068 73.8593 212.49 73.3114 212.805C72.7635 213.117 72.0615 213.273 71.2056 213.273H68.5411V212.091H71.1626C71.7535 212.091 72.2281 211.989 72.5862 211.785C72.9443 211.581 73.2039 211.305 73.3651 210.958C73.5298 210.607 73.6122 210.211 73.6122 209.77C73.6122 209.33 73.5298 208.936 73.3651 208.589C73.2039 208.241 72.9425 207.969 72.5808 207.772C72.2191 207.571 71.7392 207.471 71.1411 207.471H68.799V217.291H67.4668ZM78.1649 212.327V217.291H76.8971V206.289H78.1649V210.329H78.2723C78.4657 209.903 78.7558 209.564 79.1426 209.314C79.5329 209.059 80.0522 208.932 80.7004 208.932C81.2627 208.932 81.7551 209.045 82.1777 209.271C82.6003 209.493 82.928 209.835 83.1608 210.297C83.3971 210.755 83.5153 211.339 83.5153 212.048V217.291H82.2475V212.134C82.2475 211.479 82.0774 210.972 81.7372 210.614C81.4006 210.252 80.9332 210.071 80.3351 210.071C79.9197 210.071 79.5473 210.159 79.2178 210.334C78.8919 210.51 78.634 210.766 78.4442 211.103C78.258 211.439 78.1649 211.847 78.1649 212.327ZM85.8346 217.291V209.04H87.1024V217.291H85.8346ZM86.4793 207.665C86.2321 207.665 86.0191 207.58 85.84 207.412C85.6645 207.244 85.5768 207.041 85.5768 206.805C85.5768 206.569 85.6645 206.366 85.84 206.198C86.0191 206.03 86.2321 205.946 86.4793 205.946C86.7264 205.946 86.9377 206.03 87.1131 206.198C87.2922 206.366 87.3817 206.569 87.3817 206.805C87.3817 207.041 87.2922 207.244 87.1131 207.412C86.9377 207.58 86.7264 207.665 86.4793 207.665ZM90.6922 206.289V217.291H89.4244V206.289H90.6922ZM99.6968 217.484C99.174 217.484 98.6994 217.386 98.2733 217.189C97.8471 216.988 97.5087 216.7 97.258 216.324C97.0073 215.944 96.8819 215.486 96.8819 214.949C96.8819 214.476 96.9751 214.093 97.1613 213.799C97.3475 213.502 97.5964 213.269 97.908 213.101C98.2195 212.933 98.5633 212.807 98.9394 212.725C99.319 212.639 99.7004 212.571 100.084 212.521C100.585 212.456 100.991 212.408 101.303 212.376C101.618 212.34 101.847 212.281 101.991 212.198C102.137 212.116 102.211 211.973 102.211 211.769V211.726C102.211 211.196 102.066 210.784 101.776 210.49C101.489 210.197 101.054 210.05 100.47 210.05C99.8651 210.05 99.3906 210.182 99.0468 210.447C98.703 210.712 98.4613 210.995 98.3216 211.296L97.1183 210.866C97.3332 210.365 97.6197 209.974 97.9778 209.695C98.3395 209.412 98.7335 209.215 99.1596 209.104C99.5894 208.99 100.012 208.932 100.427 208.932C100.692 208.932 100.997 208.965 101.341 209.029C101.688 209.09 102.023 209.217 102.345 209.41C102.671 209.604 102.941 209.896 103.156 210.286C103.371 210.676 103.479 211.199 103.479 211.855V217.291H102.211V216.174H102.146C102.06 216.353 101.917 216.544 101.717 216.748C101.516 216.953 101.249 217.126 100.916 217.27C100.583 217.413 100.177 217.484 99.6968 217.484ZM99.8902 216.346C100.392 216.346 100.814 216.247 101.158 216.05C101.505 215.853 101.767 215.599 101.942 215.287C102.121 214.976 102.211 214.648 102.211 214.304V213.144C102.157 213.208 102.039 213.267 101.856 213.321C101.677 213.371 101.47 213.416 101.233 213.455C101 213.491 100.773 213.524 100.551 213.552C100.332 213.577 100.155 213.599 100.019 213.617C99.6897 213.66 99.3817 213.729 99.0952 213.826C98.8122 213.919 98.583 214.061 98.4076 214.251C98.2357 214.437 98.1497 214.691 98.1497 215.013C98.1497 215.454 98.3127 215.787 98.6386 216.013C98.968 216.235 99.3853 216.346 99.8902 216.346ZM107.06 212.327V217.291H105.793V209.04H107.017V210.329H107.125C107.318 209.91 107.612 209.573 108.006 209.319C108.4 209.061 108.908 208.932 109.531 208.932C110.09 208.932 110.579 209.047 110.998 209.276C111.417 209.502 111.743 209.846 111.976 210.308C112.208 210.766 112.325 211.346 112.325 212.048V217.291H111.057V212.134C111.057 211.486 110.889 210.981 110.552 210.619C110.215 210.254 109.753 210.071 109.166 210.071C108.761 210.071 108.4 210.159 108.081 210.334C107.766 210.51 107.517 210.766 107.334 211.103C107.152 211.439 107.06 211.847 107.06 212.327ZM117.757 217.463C117.07 217.463 116.463 217.289 115.936 216.942C115.41 216.591 114.998 216.097 114.701 215.459C114.403 214.818 114.255 214.061 114.255 213.187C114.255 212.32 114.403 211.568 114.701 210.931C114.998 210.293 115.411 209.801 115.941 209.453C116.471 209.106 117.084 208.932 117.779 208.932C118.316 208.932 118.74 209.022 119.052 209.201C119.367 209.376 119.607 209.577 119.772 209.803C119.94 210.025 120.071 210.207 120.164 210.351H120.271V206.289H121.539V217.291H120.314V216.023H120.164C120.071 216.174 119.938 216.363 119.766 216.593C119.594 216.818 119.349 217.021 119.03 217.2C118.712 217.375 118.287 217.463 117.757 217.463ZM117.929 216.324C118.438 216.324 118.867 216.192 119.218 215.927C119.569 215.658 119.836 215.287 120.019 214.815C120.201 214.338 120.293 213.789 120.293 213.165C120.293 212.549 120.203 212.01 120.024 211.548C119.845 211.083 119.58 210.721 119.229 210.463C118.878 210.202 118.445 210.071 117.929 210.071C117.392 210.071 116.944 210.209 116.586 210.485C116.232 210.757 115.965 211.128 115.786 211.597C115.61 212.062 115.522 212.585 115.522 213.165C115.522 213.753 115.612 214.286 115.791 214.766C115.974 215.243 116.242 215.622 116.597 215.905C116.955 216.184 117.399 216.324 117.929 216.324ZM128.463 206.289H130.053L133.792 215.422H133.921L137.66 206.289H139.25V217.291H138.004V208.932H137.896L134.458 217.291H133.255L129.817 208.932H129.71V217.291H128.463V206.289ZM144.177 217.484C143.655 217.484 143.18 217.386 142.754 217.189C142.328 216.988 141.989 216.7 141.739 216.324C141.488 215.944 141.363 215.486 141.363 214.949C141.363 214.476 141.456 214.093 141.642 213.799C141.828 213.502 142.077 213.269 142.389 213.101C142.7 212.933 143.044 212.807 143.42 212.725C143.8 212.639 144.181 212.571 144.564 212.521C145.066 212.456 145.472 212.408 145.784 212.376C146.099 212.34 146.328 212.281 146.471 212.198C146.618 212.116 146.692 211.973 146.692 211.769V211.726C146.692 211.196 146.547 210.784 146.256 210.49C145.97 210.197 145.535 210.05 144.951 210.05C144.346 210.05 143.871 210.182 143.527 210.447C143.184 210.712 142.942 210.995 142.802 211.296L141.599 210.866C141.814 210.365 142.1 209.974 142.458 209.695C142.82 209.412 143.214 209.215 143.64 209.104C144.07 208.99 144.493 208.932 144.908 208.932C145.173 208.932 145.477 208.965 145.821 209.029C146.169 209.09 146.504 209.217 146.826 209.41C147.152 209.604 147.422 209.896 147.637 210.286C147.852 210.676 147.959 211.199 147.959 211.855V217.291H146.692V216.174H146.627C146.541 216.353 146.398 216.544 146.197 216.748C145.997 216.953 145.73 217.126 145.397 217.27C145.064 217.413 144.657 217.484 144.177 217.484ZM144.371 216.346C144.872 216.346 145.295 216.247 145.639 216.05C145.986 215.853 146.247 215.599 146.423 215.287C146.602 214.976 146.692 214.648 146.692 214.304V213.144C146.638 213.208 146.52 213.267 146.337 213.321C146.158 213.371 145.95 213.416 145.714 213.455C145.481 213.491 145.254 213.524 145.032 213.552C144.813 213.577 144.636 213.599 144.5 213.617C144.17 213.66 143.862 213.729 143.576 213.826C143.293 213.919 143.064 214.061 142.888 214.251C142.716 214.437 142.63 214.691 142.63 215.013C142.63 215.454 142.793 215.787 143.119 216.013C143.449 216.235 143.866 216.346 144.371 216.346ZM151.219 209.04L153.196 212.413L155.172 209.04H156.634L153.969 213.165L156.634 217.291H155.172L153.196 214.089L151.219 217.291H149.758L152.379 213.165L149.758 209.04H151.219Z" fill="white"/>
<g filter="url(#filter1_d_164_284)">
<rect x="25.5996" y="236.218" width="172.218" height="32.51" rx="2.62177" fill="#217BF4"/>
</g>
<path d="M66.9719 247.017H68.562L72.3008 256.149H72.4297L76.1686 247.017H77.7586V258.018H76.5124V249.66H76.4049L72.9669 258.018H71.7636L68.3256 249.66H68.2182V258.018H66.9719V247.017ZM82.686 258.212C82.1632 258.212 81.6886 258.113 81.2625 257.916C80.8363 257.716 80.4979 257.427 80.2472 257.051C79.9965 256.672 79.8711 256.213 79.8711 255.676C79.8711 255.203 79.9643 254.82 80.1505 254.527C80.3367 254.229 80.5856 253.997 80.8972 253.828C81.2088 253.66 81.5526 253.535 81.9286 253.452C82.3082 253.366 82.6896 253.298 83.0728 253.248C83.5742 253.184 83.9807 253.135 84.2922 253.103C84.6074 253.067 84.8366 253.008 84.9798 252.926C85.1267 252.843 85.2001 252.7 85.2001 252.496V252.453C85.2001 251.923 85.055 251.511 84.765 251.217C84.4784 250.924 84.0433 250.777 83.4596 250.777C82.8543 250.777 82.3798 250.909 82.036 251.175C81.6922 251.44 81.4505 251.722 81.3108 252.023L80.1075 251.594C80.3224 251.092 80.6089 250.702 80.967 250.422C81.3287 250.14 81.7227 249.943 82.1488 249.832C82.5786 249.717 83.0012 249.66 83.4166 249.66C83.6816 249.66 83.986 249.692 84.3298 249.756C84.6772 249.817 85.0121 249.944 85.3344 250.138C85.6603 250.331 85.9307 250.623 86.1455 251.013C86.3604 251.404 86.4678 251.927 86.4678 252.582V258.018H85.2001V256.901H85.1356C85.0497 257.08 84.9064 257.272 84.7059 257.476C84.5053 257.68 84.2385 257.854 83.9054 257.997C83.5724 258.14 83.1659 258.212 82.686 258.212ZM82.8794 257.073C83.3808 257.073 83.8034 256.974 84.1472 256.777C84.4946 256.58 84.756 256.326 84.9315 256.015C85.1105 255.703 85.2001 255.375 85.2001 255.032V253.871C85.1464 253.936 85.0282 253.995 84.8455 254.048C84.6665 254.099 84.4588 254.143 84.2224 254.183C83.9896 254.219 83.7622 254.251 83.5402 254.279C83.3217 254.305 83.1444 254.326 83.0083 254.344C82.6789 254.387 82.3709 254.457 82.0844 254.553C81.8015 254.647 81.5723 254.788 81.3968 254.978C81.2249 255.164 81.1389 255.418 81.1389 255.741C81.1389 256.181 81.3019 256.514 81.6278 256.74C81.9572 256.962 82.3745 257.073 82.8794 257.073ZM89.7272 249.767L91.7041 253.141L93.681 249.767H95.1421L92.4777 253.893L95.1421 258.018H93.681L91.7041 254.817L89.7272 258.018H88.2661L90.8876 253.893L88.2661 249.767H89.7272ZM103.634 258.212C103.111 258.212 102.636 258.113 102.21 257.916C101.784 257.716 101.446 257.427 101.195 257.051C100.944 256.672 100.819 256.213 100.819 255.676C100.819 255.203 100.912 254.82 101.098 254.527C101.284 254.229 101.533 253.997 101.845 253.828C102.156 253.66 102.5 253.535 102.876 253.452C103.256 253.366 103.637 253.298 104.021 253.248C104.522 253.184 104.928 253.135 105.24 253.103C105.555 253.067 105.784 253.008 105.928 252.926C106.074 252.843 106.148 252.7 106.148 252.496V252.453C106.148 251.923 106.003 251.511 105.713 251.217C105.426 250.924 104.991 250.777 104.407 250.777C103.802 250.777 103.328 250.909 102.984 251.175C102.64 251.44 102.398 251.722 102.259 252.023L101.055 251.594C101.27 251.092 101.557 250.702 101.915 250.422C102.276 250.14 102.67 249.943 103.097 249.832C103.526 249.717 103.949 249.66 104.364 249.66C104.629 249.66 104.934 249.692 105.278 249.756C105.625 249.817 105.96 249.944 106.282 250.138C106.608 250.331 106.878 250.623 107.093 251.013C107.308 251.404 107.416 251.927 107.416 252.582V258.018H106.148V256.901H106.083C105.997 257.08 105.854 257.272 105.654 257.476C105.453 257.68 105.186 257.854 104.853 257.997C104.52 258.14 104.114 258.212 103.634 258.212ZM103.827 257.073C104.329 257.073 104.751 256.974 105.095 256.777C105.442 256.58 105.704 256.326 105.879 256.015C106.058 255.703 106.148 255.375 106.148 255.032V253.871C106.094 253.936 105.976 253.995 105.793 254.048C105.614 254.099 105.406 254.143 105.17 254.183C104.937 254.219 104.71 254.251 104.488 254.279C104.269 254.305 104.092 254.326 103.956 254.344C103.627 254.387 103.319 254.457 103.032 254.553C102.749 254.647 102.52 254.788 102.344 254.978C102.173 255.164 102.087 255.418 102.087 255.741C102.087 256.181 102.25 256.514 102.575 256.74C102.905 256.962 103.322 257.073 103.827 257.073ZM110.997 253.055V258.018H109.73V249.767H110.954V251.056H111.062C111.255 250.637 111.549 250.301 111.943 250.046C112.337 249.789 112.845 249.66 113.468 249.66C114.027 249.66 114.516 249.774 114.935 250.003C115.354 250.229 115.68 250.573 115.913 251.035C116.145 251.493 116.262 252.073 116.262 252.775V258.018H114.994V252.861C114.994 252.213 114.826 251.708 114.489 251.346C114.152 250.981 113.69 250.798 113.103 250.798C112.698 250.798 112.337 250.886 112.018 251.062C111.703 251.237 111.454 251.493 111.271 251.83C111.089 252.167 110.997 252.575 110.997 253.055ZM121.694 258.19C121.006 258.19 120.399 258.017 119.873 257.669C119.347 257.318 118.935 256.824 118.637 256.186C118.34 255.545 118.192 254.788 118.192 253.914C118.192 253.048 118.34 252.295 118.637 251.658C118.935 251.021 119.348 250.528 119.878 250.181C120.408 249.833 121.021 249.66 121.716 249.66C122.253 249.66 122.677 249.749 122.989 249.928C123.304 250.104 123.544 250.304 123.709 250.53C123.877 250.752 124.008 250.935 124.101 251.078H124.208V247.017H125.476V258.018H124.251V256.751H124.101C124.008 256.901 123.875 257.091 123.703 257.32C123.531 257.546 123.286 257.748 122.967 257.927C122.648 258.102 122.224 258.19 121.694 258.19ZM121.866 257.051C122.375 257.051 122.804 256.919 123.155 256.654C123.506 256.385 123.773 256.015 123.956 255.542C124.138 255.066 124.23 254.516 124.23 253.893C124.23 253.277 124.14 252.738 123.961 252.276C123.782 251.81 123.517 251.448 123.166 251.191C122.815 250.929 122.382 250.798 121.866 250.798C121.329 250.798 120.881 250.936 120.523 251.212C120.168 251.484 119.902 251.855 119.723 252.324C119.547 252.79 119.459 253.313 119.459 253.893C119.459 254.48 119.549 255.014 119.728 255.494C119.911 255.97 120.179 256.349 120.534 256.632C120.892 256.912 121.336 257.051 121.866 257.051ZM132.4 258.018V247.017H139.04V248.198H133.733V251.916H138.696V253.098H133.733V256.836H139.126V258.018H132.4ZM141.269 258.018V249.767H142.494V251.013H142.58C142.73 250.605 143.003 250.274 143.397 250.02C143.79 249.765 144.235 249.638 144.729 249.638C144.822 249.638 144.938 249.64 145.078 249.644C145.218 249.647 145.323 249.652 145.395 249.66V250.949C145.352 250.938 145.253 250.922 145.099 250.901C144.949 250.875 144.79 250.863 144.621 250.863C144.22 250.863 143.862 250.947 143.547 251.115C143.235 251.28 142.988 251.509 142.806 251.803C142.627 252.093 142.537 252.424 142.537 252.797V258.018H141.269ZM146.898 258.018V249.767H148.165V258.018H146.898ZM147.542 248.392C147.295 248.392 147.082 248.308 146.903 248.139C146.728 247.971 146.64 247.769 146.64 247.532C146.64 247.296 146.728 247.094 146.903 246.925C147.082 246.757 147.295 246.673 147.542 246.673C147.789 246.673 148.001 246.757 148.176 246.925C148.355 247.094 148.445 247.296 148.445 247.532C148.445 247.769 148.355 247.971 148.176 248.139C148.001 248.308 147.789 248.392 147.542 248.392ZM153.84 258.19C153.066 258.19 152.4 258.008 151.841 257.642C151.283 257.277 150.853 256.774 150.552 256.133C150.251 255.492 150.101 254.759 150.101 253.936C150.101 253.098 150.255 252.358 150.563 251.717C150.874 251.072 151.308 250.569 151.863 250.208C152.421 249.842 153.073 249.66 153.818 249.66C154.398 249.66 154.921 249.767 155.387 249.982C155.852 250.197 156.234 250.498 156.531 250.884C156.828 251.271 157.013 251.722 157.084 252.238H155.816C155.72 251.862 155.505 251.529 155.172 251.239C154.842 250.945 154.398 250.798 153.84 250.798C153.345 250.798 152.912 250.927 152.54 251.185C152.171 251.44 151.882 251.799 151.675 252.265C151.471 252.727 151.368 253.27 151.368 253.893C151.368 254.53 151.469 255.085 151.669 255.558C151.873 256.031 152.16 256.398 152.529 256.659C152.901 256.921 153.338 257.051 153.84 257.051C154.169 257.051 154.468 256.994 154.737 256.879C155.005 256.765 155.233 256.6 155.419 256.385C155.605 256.17 155.738 255.913 155.816 255.612H157.084C157.013 256.099 156.835 256.537 156.552 256.928C156.273 257.315 155.902 257.623 155.44 257.852C154.982 258.077 154.448 258.19 153.84 258.19Z" fill="white"/>
<g filter="url(#filter2_d_164_284)">
<rect x="25.5996" y="276.945" width="172.218" height="32.51" rx="2.62177" fill="#217BF4"/>
</g>
<path d="M54.0901 298.745V287.744H60.7297V288.926H55.4223V292.643H60.3859V293.825H55.4223V297.564H60.8157V298.745H54.0901ZM68.8037 292.342L67.6648 292.664C67.5932 292.475 67.4876 292.29 67.3479 292.111C67.2118 291.928 67.0256 291.778 66.7892 291.66C66.5529 291.542 66.2502 291.483 65.8814 291.483C65.3764 291.483 64.9556 291.599 64.619 291.832C64.2859 292.061 64.1194 292.353 64.1194 292.707C64.1194 293.022 64.234 293.271 64.4632 293.454C64.6924 293.637 65.0505 293.789 65.5376 293.911L66.7624 294.211C67.5001 294.391 68.0498 294.665 68.4115 295.033C68.7732 295.399 68.9541 295.87 68.9541 296.446C68.9541 296.919 68.818 297.342 68.5458 297.714C68.2772 298.086 67.9012 298.38 67.4177 298.595C66.9343 298.81 66.372 298.917 65.731 298.917C64.8894 298.917 64.1928 298.735 63.6413 298.369C63.0898 298.004 62.7406 297.47 62.5938 296.769L63.7971 296.468C63.9117 296.912 64.1283 297.245 64.4471 297.467C64.7694 297.689 65.1902 297.8 65.7095 297.8C66.3004 297.8 66.7695 297.675 67.1169 297.424C67.4679 297.17 67.6434 296.865 67.6434 296.511C67.6434 296.224 67.5431 295.984 67.3425 295.791C67.142 295.594 66.834 295.447 66.4186 295.35L65.0434 295.028C64.2877 294.849 63.7326 294.571 63.3781 294.195C63.0271 293.816 62.8516 293.341 62.8516 292.772C62.8516 292.306 62.9823 291.894 63.2438 291.536C63.5088 291.178 63.8687 290.897 64.3235 290.693C64.7819 290.489 65.3012 290.387 65.8814 290.387C66.6979 290.387 67.3389 290.566 67.8045 290.924C68.2737 291.282 68.6067 291.755 68.8037 292.342ZM74.4509 290.494V291.569H70.1749V290.494H74.4509ZM71.4211 288.517H72.6889V296.382C72.6889 296.74 72.7408 297.008 72.8447 297.188C72.9521 297.363 73.0882 297.481 73.253 297.542C73.4213 297.599 73.5986 297.628 73.7848 297.628C73.9245 297.628 74.0391 297.621 74.1286 297.607C74.2181 297.589 74.2897 297.574 74.3435 297.564L74.6013 298.702C74.5154 298.735 74.3954 298.767 74.2414 298.799C74.0874 298.835 73.8922 298.853 73.6559 298.853C73.2977 298.853 72.9468 298.776 72.603 298.622C72.2627 298.468 71.9798 298.233 71.7542 297.918C71.5322 297.603 71.4211 297.205 71.4211 296.726V288.517ZM77.803 293.782V298.745H76.5352V287.744H77.803V291.783H77.9104C78.1038 291.357 78.3939 291.019 78.7806 290.768C79.171 290.514 79.6903 290.387 80.3385 290.387C80.9008 290.387 81.3932 290.499 81.8158 290.725C82.2384 290.947 82.566 291.289 82.7988 291.751C83.0352 292.21 83.1534 292.793 83.1534 293.502V298.745H81.8856V293.588C81.8856 292.933 81.7155 292.426 81.3753 292.068C81.0386 291.706 80.5713 291.526 79.9732 291.526C79.5578 291.526 79.1853 291.613 78.8559 291.789C78.53 291.964 78.2721 292.22 78.0823 292.557C77.8961 292.894 77.803 293.302 77.803 293.782ZM88.9322 298.917C88.1372 298.917 87.4513 298.742 86.8748 298.391C86.3018 298.036 85.8595 297.542 85.5479 296.908C85.2399 296.271 85.0859 295.529 85.0859 294.684C85.0859 293.839 85.2399 293.094 85.5479 292.449C85.8595 291.801 86.2928 291.296 86.8479 290.935C87.4066 290.569 88.0584 290.387 88.8033 290.387C89.233 290.387 89.6574 290.458 90.0764 290.602C90.4954 290.745 90.8768 290.978 91.2206 291.3C91.5644 291.619 91.8384 292.041 92.0425 292.568C92.2467 293.094 92.3487 293.742 92.3487 294.512V295.049H85.9884V293.954H91.0595C91.0595 293.488 90.9664 293.073 90.7801 292.707C90.5975 292.342 90.3361 292.054 89.9958 291.842C89.6592 291.631 89.2617 291.526 88.8033 291.526C88.2983 291.526 87.8614 291.651 87.4925 291.902C87.1272 292.149 86.8461 292.471 86.6491 292.869C86.4522 293.266 86.3537 293.692 86.3537 294.147V294.878C86.3537 295.501 86.4611 296.029 86.676 296.462C86.8945 296.892 87.1971 297.22 87.5839 297.445C87.9706 297.667 88.4201 297.778 88.9322 297.778C89.2653 297.778 89.5661 297.732 89.8347 297.639C90.1069 297.542 90.3414 297.399 90.5384 297.209C90.7354 297.016 90.8876 296.776 90.995 296.489L92.2198 296.833C92.0909 297.248 91.8742 297.614 91.5698 297.929C91.2654 298.24 90.8894 298.484 90.4417 298.659C89.994 298.831 89.4909 298.917 88.9322 298.917ZM94.2772 298.745V290.494H95.502V291.74H95.588C95.7384 291.332 96.0106 291.001 96.4045 290.747C96.7985 290.492 97.2425 290.365 97.7367 290.365C97.8299 290.365 97.9462 290.367 98.0859 290.371C98.2256 290.374 98.3312 290.38 98.4029 290.387V291.676C98.3599 291.665 98.2614 291.649 98.1074 291.628C97.957 291.603 97.7976 291.59 97.6293 291.59C97.2282 291.59 96.8701 291.674 96.5549 291.842C96.2434 292.007 95.9962 292.236 95.8136 292.53C95.6345 292.82 95.545 293.151 95.545 293.524V298.745H94.2772ZM100.851 297.241L100.765 297.821C100.704 298.23 100.611 298.667 100.486 299.132C100.364 299.598 100.237 300.036 100.104 300.448C99.9719 300.86 99.8627 301.188 99.7767 301.431H98.8098C98.8563 301.202 98.9172 300.899 98.9924 300.523C99.0676 300.147 99.1428 299.727 99.218 299.261C99.2968 298.799 99.3613 298.326 99.4114 297.843L99.4759 297.241H100.851ZM107.626 298.745V287.744H111.344C112.207 287.744 112.912 287.899 113.46 288.211C114.012 288.519 114.42 288.936 114.685 289.463C114.95 289.989 115.083 290.576 115.083 291.225C115.083 291.873 114.95 292.462 114.685 292.992C114.424 293.522 114.019 293.945 113.471 294.26C112.923 294.571 112.221 294.727 111.365 294.727H108.701V293.545H111.322C111.913 293.545 112.388 293.443 112.746 293.239C113.104 293.035 113.364 292.759 113.525 292.412C113.689 292.061 113.772 291.665 113.772 291.225C113.772 290.784 113.689 290.39 113.525 290.043C113.364 289.695 113.102 289.423 112.74 289.226C112.379 289.026 111.899 288.926 111.301 288.926H108.959V298.745H107.626ZM118.325 293.782V298.745H117.057V287.744H118.325V291.783H118.432C118.625 291.357 118.915 291.019 119.302 290.768C119.693 290.514 120.212 290.387 120.86 290.387C121.422 290.387 121.915 290.499 122.337 290.725C122.76 290.947 123.088 291.289 123.32 291.751C123.557 292.21 123.675 292.793 123.675 293.502V298.745H122.407V293.588C122.407 292.933 122.237 292.426 121.897 292.068C121.56 291.706 121.093 291.526 120.495 291.526C120.079 291.526 119.707 291.613 119.377 291.789C119.052 291.964 118.794 292.22 118.604 292.557C118.418 292.894 118.325 293.302 118.325 293.782ZM125.994 298.745V290.494H127.262V298.745H125.994ZM126.639 289.119C126.392 289.119 126.179 289.035 126 288.866C125.824 288.698 125.736 288.496 125.736 288.259C125.736 288.023 125.824 287.821 126 287.652C126.179 287.484 126.392 287.4 126.639 287.4C126.886 287.4 127.097 287.484 127.273 287.652C127.452 287.821 127.541 288.023 127.541 288.259C127.541 288.496 127.452 288.698 127.273 288.866C127.097 289.035 126.886 289.119 126.639 289.119ZM130.852 287.744V298.745H129.584V287.744H130.852ZM135.065 297.241L134.979 297.821C134.918 298.23 134.825 298.667 134.699 299.132C134.578 299.598 134.451 300.036 134.318 300.448C134.186 300.86 134.076 301.188 133.99 301.431H133.023C133.07 301.202 133.131 300.899 133.206 300.523C133.281 300.147 133.356 299.727 133.432 299.261C133.51 298.799 133.575 298.326 133.625 297.843L133.69 297.241H135.065ZM141.84 287.744H143.43L147.169 296.876H147.298L151.037 287.744H152.627V298.745H151.381V290.387H151.273L147.835 298.745H146.632L143.194 290.387H143.086V298.745H141.84V287.744ZM157.554 298.939C157.031 298.939 156.557 298.84 156.131 298.643C155.704 298.443 155.366 298.154 155.115 297.778C154.865 297.399 154.739 296.94 154.739 296.403C154.739 295.93 154.832 295.547 155.019 295.254C155.205 294.956 155.454 294.724 155.765 294.555C156.077 294.387 156.421 294.262 156.797 294.179C157.176 294.093 157.558 294.025 157.941 293.975C158.442 293.911 158.849 293.862 159.16 293.83C159.476 293.794 159.705 293.735 159.848 293.653C159.995 293.57 160.068 293.427 160.068 293.223V293.18C160.068 292.65 159.923 292.238 159.633 291.945C159.347 291.651 158.912 291.504 158.328 291.504C157.723 291.504 157.248 291.637 156.904 291.902C156.56 292.167 156.319 292.449 156.179 292.75L154.976 292.321C155.191 291.819 155.477 291.429 155.835 291.149C156.197 290.867 156.591 290.67 157.017 290.559C157.447 290.444 157.869 290.387 158.285 290.387C158.55 290.387 158.854 290.419 159.198 290.483C159.545 290.544 159.88 290.671 160.203 290.865C160.528 291.058 160.799 291.35 161.014 291.74C161.229 292.131 161.336 292.654 161.336 293.309V298.745H160.068V297.628H160.004C159.918 297.807 159.775 297.999 159.574 298.203C159.373 298.407 159.107 298.581 158.774 298.724C158.441 298.867 158.034 298.939 157.554 298.939ZM157.748 297.8C158.249 297.8 158.672 297.701 159.015 297.504C159.363 297.307 159.624 297.053 159.8 296.742C159.979 296.43 160.068 296.102 160.068 295.759V294.598C160.015 294.663 159.896 294.722 159.714 294.776C159.535 294.826 159.327 294.87 159.091 294.91C158.858 294.946 158.63 294.978 158.408 295.007C158.19 295.032 158.013 295.053 157.877 295.071C157.547 295.114 157.239 295.184 156.953 295.28C156.67 295.374 156.44 295.515 156.265 295.705C156.093 295.891 156.007 296.145 156.007 296.468C156.007 296.908 156.17 297.241 156.496 297.467C156.825 297.689 157.243 297.8 157.748 297.8ZM164.595 290.494L166.572 293.868L168.549 290.494H170.01L167.346 294.62L170.01 298.745H168.549L166.572 295.544L164.595 298.745H163.134L165.756 294.62L163.134 290.494H164.595Z" fill="white"/>
<g filter="url(#filter3_d_164_284)">
<rect x="25.5996" y="317.673" width="172.218" height="32.51" rx="2.62177" fill="#217BF4"/>
</g>
<path d="M53.5952 328.471H55.1852L58.9241 337.603H59.053L62.7919 328.471H64.3819V339.473H63.1357V331.114H63.0282L59.5902 339.473H58.3869L54.9489 331.114H54.8414V339.473H53.5952V328.471ZM69.3093 339.666C68.7865 339.666 68.3119 339.568 67.8858 339.371C67.4596 339.17 67.1212 338.882 66.8705 338.506C66.6198 338.126 66.4944 337.668 66.4944 337.131C66.4944 336.658 66.5876 336.275 66.7738 335.981C66.96 335.684 67.2089 335.451 67.5205 335.283C67.832 335.114 68.1758 334.989 68.5519 334.907C68.9315 334.821 69.3129 334.753 69.6961 334.703C70.1975 334.638 70.6039 334.59 70.9155 334.558C71.2307 334.522 71.4599 334.463 71.6031 334.38C71.75 334.298 71.8234 334.155 71.8234 333.951V333.908C71.8234 333.378 71.6783 332.966 71.3882 332.672C71.1017 332.378 70.6666 332.232 70.0829 332.232C69.4776 332.232 69.0031 332.364 68.6593 332.629C68.3155 332.894 68.0738 333.177 67.9341 333.478L66.7308 333.048C66.9457 332.547 67.2322 332.156 67.5903 331.877C67.952 331.594 68.346 331.397 68.7721 331.286C69.2019 331.172 69.6245 331.114 70.0399 331.114C70.3049 331.114 70.6093 331.146 70.9531 331.211C71.3005 331.272 71.6354 331.399 71.9577 331.592C72.2836 331.786 72.5539 332.078 72.7688 332.468C72.9837 332.858 73.0911 333.381 73.0911 334.037V339.473H71.8234V338.356H71.7589C71.673 338.535 71.5297 338.726 71.3292 338.93C71.1286 339.134 70.8618 339.308 70.5287 339.451C70.1957 339.595 69.7892 339.666 69.3093 339.666ZM69.5027 338.527C70.0041 338.527 70.4267 338.429 70.7705 338.232C71.1179 338.035 71.3793 337.781 71.5548 337.469C71.7338 337.158 71.8234 336.83 71.8234 336.486V335.326C71.7697 335.39 71.6515 335.449 71.4688 335.503C71.2898 335.553 71.082 335.598 70.8457 335.637C70.6129 335.673 70.3855 335.705 70.1635 335.734C69.945 335.759 69.7677 335.781 69.6316 335.799C69.3022 335.841 68.9942 335.911 68.7077 336.008C68.4247 336.101 68.1955 336.243 68.0201 336.432C67.8482 336.619 67.7622 336.873 67.7622 337.195C67.7622 337.636 67.9252 337.969 68.2511 338.194C68.5805 338.416 68.9977 338.527 69.5027 338.527ZM76.3505 331.222L78.3274 334.595L80.3043 331.222H81.7654L79.101 335.347L81.7654 339.473H80.3043L78.3274 336.271L76.3505 339.473H74.8894L77.5109 335.347L74.8894 331.222H76.3505ZM85.4653 337.969L85.3794 338.549C85.3185 338.957 85.2254 339.394 85.1 339.86C84.9783 340.325 84.8511 340.764 84.7186 341.176C84.5861 341.588 84.4769 341.915 84.3909 342.159H83.424C83.4705 341.93 83.5314 341.627 83.6066 341.251C83.6818 340.875 83.757 340.454 83.8323 339.989C83.911 339.527 83.9755 339.054 84.0256 338.57L84.0901 337.969H85.4653ZM92.2406 339.473V328.471H98.8803V329.653H93.5729V333.37H98.5365V334.552H93.5729V338.291H98.9662V339.473H92.2406ZM106.954 333.07L105.815 333.392C105.744 333.202 105.638 333.018 105.498 332.839C105.362 332.656 105.176 332.506 104.94 332.387C104.703 332.269 104.401 332.21 104.032 332.21C103.527 332.21 103.106 332.326 102.77 332.559C102.436 332.788 102.27 333.08 102.27 333.435C102.27 333.75 102.385 333.999 102.614 334.182C102.843 334.364 103.201 334.516 103.688 334.638L104.913 334.939C105.651 335.118 106.2 335.392 106.562 335.761C106.924 336.126 107.105 336.597 107.105 337.174C107.105 337.646 106.969 338.069 106.696 338.441C106.428 338.814 106.052 339.108 105.568 339.322C105.085 339.537 104.523 339.645 103.882 339.645C103.04 339.645 102.343 339.462 101.792 339.097C101.24 338.732 100.891 338.198 100.744 337.496L101.948 337.195C102.062 337.639 102.279 337.972 102.598 338.194C102.92 338.416 103.341 338.527 103.86 338.527C104.451 338.527 104.92 338.402 105.267 338.151C105.618 337.897 105.794 337.593 105.794 337.238C105.794 336.952 105.694 336.712 105.493 336.518C105.293 336.321 104.985 336.175 104.569 336.078L103.194 335.756C102.438 335.576 101.883 335.299 101.529 334.923C101.178 334.543 101.002 334.069 101.002 333.499C101.002 333.034 101.133 332.622 101.394 332.264C101.659 331.906 102.019 331.625 102.474 331.42C102.932 331.216 103.452 331.114 104.032 331.114C104.848 331.114 105.49 331.293 105.955 331.651C106.424 332.01 106.757 332.482 106.954 333.07ZM112.601 331.222V332.296H108.325V331.222H112.601ZM109.572 329.245H110.839V337.109C110.839 337.467 110.891 337.736 110.995 337.915C111.103 338.091 111.239 338.209 111.404 338.27C111.572 338.327 111.749 338.356 111.935 338.356C112.075 338.356 112.19 338.348 112.279 338.334C112.369 338.316 112.44 338.302 112.494 338.291L112.752 339.43C112.666 339.462 112.546 339.494 112.392 339.527C112.238 339.562 112.043 339.58 111.806 339.58C111.448 339.58 111.097 339.503 110.754 339.349C110.413 339.195 110.13 338.961 109.905 338.646C109.683 338.33 109.572 337.933 109.572 337.453V329.245ZM115.954 334.509V339.473H114.686V328.471H115.954V332.511H116.061C116.254 332.085 116.544 331.746 116.931 331.496C117.322 331.241 117.841 331.114 118.489 331.114C119.051 331.114 119.544 331.227 119.966 331.453C120.389 331.675 120.717 332.017 120.949 332.479C121.186 332.937 121.304 333.521 121.304 334.23V339.473H120.036V334.316C120.036 333.661 119.866 333.154 119.526 332.796C119.189 332.434 118.722 332.253 118.124 332.253C117.708 332.253 117.336 332.341 117.006 332.516C116.681 332.692 116.423 332.948 116.233 333.284C116.047 333.621 115.954 334.029 115.954 334.509ZM127.083 339.645C126.288 339.645 125.602 339.469 125.025 339.118C124.452 338.764 124.01 338.27 123.698 337.636C123.39 336.998 123.236 336.257 123.236 335.412C123.236 334.567 123.39 333.822 123.698 333.177C124.01 332.529 124.443 332.024 124.998 331.662C125.557 331.297 126.209 331.114 126.954 331.114C127.384 331.114 127.808 331.186 128.227 331.329C128.646 331.472 129.027 331.705 129.371 332.027C129.715 332.346 129.989 332.769 130.193 333.295C130.397 333.822 130.499 334.47 130.499 335.24V335.777H124.139V334.681H129.21C129.21 334.216 129.117 333.8 128.931 333.435C128.748 333.07 128.487 332.781 128.146 332.57C127.81 332.359 127.412 332.253 126.954 332.253C126.449 332.253 126.012 332.378 125.643 332.629C125.278 332.876 124.997 333.199 124.8 333.596C124.603 333.994 124.504 334.42 124.504 334.875V335.605C124.504 336.228 124.612 336.757 124.827 337.19C125.045 337.62 125.348 337.947 125.734 338.173C126.121 338.395 126.571 338.506 127.083 338.506C127.416 338.506 127.717 338.459 127.985 338.366C128.257 338.27 128.492 338.126 128.689 337.937C128.886 337.743 129.038 337.503 129.146 337.217L130.37 337.561C130.241 337.976 130.025 338.341 129.72 338.656C129.416 338.968 129.04 339.211 128.592 339.387C128.145 339.559 127.641 339.645 127.083 339.645ZM132.428 339.473V331.222H133.653V332.468H133.739C133.889 332.06 134.161 331.728 134.555 331.474C134.949 331.22 135.393 331.093 135.887 331.093C135.98 331.093 136.097 331.095 136.236 331.098C136.376 331.102 136.482 331.107 136.553 331.114V332.403C136.51 332.393 136.412 332.377 136.258 332.355C136.108 332.33 135.948 332.318 135.78 332.318C135.379 332.318 135.021 332.402 134.706 332.57C134.394 332.735 134.147 332.964 133.964 333.258C133.785 333.548 133.696 333.879 133.696 334.251V339.473H132.428ZM139.002 337.969L138.916 338.549C138.855 338.957 138.762 339.394 138.636 339.86C138.515 340.325 138.387 340.764 138.255 341.176C138.122 341.588 138.013 341.915 137.927 342.159H136.96C137.007 341.93 137.068 341.627 137.143 341.251C137.218 340.875 137.293 340.454 137.369 339.989C137.447 339.527 137.512 339.054 137.562 338.57L137.626 337.969H139.002ZM145.777 339.473V328.471H152.417V329.653H147.109V333.37H152.073V334.552H147.109V338.291H152.503V339.473H145.777ZM154.646 339.473V331.222H155.871V332.468H155.957C156.107 332.06 156.379 331.728 156.773 331.474C157.167 331.22 157.611 331.093 158.105 331.093C158.199 331.093 158.315 331.095 158.455 331.098C158.594 331.102 158.7 331.107 158.772 331.114V332.403C158.729 332.393 158.63 332.377 158.476 332.355C158.326 332.33 158.166 332.318 157.998 332.318C157.597 332.318 157.239 332.402 156.924 332.57C156.612 332.735 156.365 332.964 156.182 333.258C156.003 333.548 155.914 333.879 155.914 334.251V339.473H154.646ZM160.274 339.473V331.222H161.542V339.473H160.274ZM160.919 329.846C160.672 329.846 160.459 329.762 160.28 329.594C160.104 329.426 160.017 329.223 160.017 328.987C160.017 328.751 160.104 328.548 160.28 328.38C160.459 328.212 160.672 328.127 160.919 328.127C161.166 328.127 161.377 328.212 161.553 328.38C161.732 328.548 161.822 328.751 161.822 328.987C161.822 329.223 161.732 329.426 161.553 329.594C161.377 329.762 161.166 329.846 160.919 329.846ZM167.216 339.645C166.443 339.645 165.777 339.462 165.218 339.097C164.659 338.732 164.229 338.228 163.929 337.587C163.628 336.946 163.477 336.214 163.477 335.39C163.477 334.552 163.631 333.813 163.939 333.172C164.251 332.527 164.684 332.024 165.239 331.662C165.798 331.297 166.45 331.114 167.195 331.114C167.775 331.114 168.298 331.222 168.763 331.437C169.229 331.651 169.61 331.952 169.908 332.339C170.205 332.726 170.389 333.177 170.461 333.693H169.193C169.096 333.317 168.882 332.984 168.548 332.694C168.219 332.4 167.775 332.253 167.216 332.253C166.722 332.253 166.289 332.382 165.916 332.64C165.547 332.894 165.259 333.254 165.051 333.72C164.847 334.182 164.745 334.724 164.745 335.347C164.745 335.985 164.845 336.54 165.046 337.013C165.25 337.485 165.537 337.852 165.905 338.114C166.278 338.375 166.715 338.506 167.216 338.506C167.546 338.506 167.845 338.449 168.113 338.334C168.382 338.219 168.609 338.055 168.796 337.84C168.982 337.625 169.114 337.367 169.193 337.066H170.461C170.389 337.553 170.212 337.992 169.929 338.382C169.65 338.769 169.279 339.077 168.817 339.306C168.359 339.532 167.825 339.645 167.216 339.645Z" fill="white"/>
<path d="M177.284 352.787V338.242C177.284 337.561 177.554 336.908 178.036 336.427C178.517 335.945 179.17 335.675 179.851 335.675C180.531 335.675 181.184 335.945 181.666 336.427C182.147 336.908 182.417 337.561 182.417 338.242V351.076M182.417 350.22V346.798C182.417 346.117 182.688 345.464 183.169 344.983C183.651 344.501 184.303 344.231 184.984 344.231C185.665 344.231 186.318 344.501 186.799 344.983C187.281 345.464 187.551 346.117 187.551 346.798V351.076M187.551 348.509C187.551 347.828 187.822 347.175 188.303 346.694C188.784 346.213 189.437 345.942 190.118 345.942C190.799 345.942 191.452 346.213 191.933 346.694C192.414 347.175 192.685 347.828 192.685 348.509V351.076" fill="white"/>
<path d="M177.284 352.787V338.242C177.284 337.561 177.554 336.908 178.036 336.427C178.517 335.945 179.17 335.675 179.851 335.675C180.531 335.675 181.184 335.945 181.666 336.427C182.147 336.908 182.417 337.561 182.417 338.242V351.076M182.417 350.22V346.798C182.417 346.117 182.688 345.464 183.169 344.983C183.651 344.501 184.303 344.231 184.984 344.231C185.665 344.231 186.318 344.501 186.799 344.983C187.281 345.464 187.551 346.117 187.551 346.798V351.076M187.551 348.509C187.551 347.828 187.822 347.175 188.303 346.694C188.784 346.213 189.437 345.942 190.118 345.942C190.799 345.942 191.452 346.213 191.933 346.694C192.414 347.175 192.685 347.828 192.685 348.509V351.076" stroke="black" stroke-width="2.32727" stroke-linecap="round" stroke-linejoin="round"/>
<path d="M192.684 350.22C192.684 349.54 192.955 348.887 193.436 348.405C193.917 347.924 194.57 347.653 195.251 347.653C195.932 347.653 196.585 347.924 197.066 348.405C197.548 348.887 197.818 349.54 197.818 350.22V357.921C197.818 360.644 196.736 363.255 194.811 365.181C192.885 367.106 190.274 368.188 187.551 368.188H184.128H184.484C182.784 368.189 181.11 367.766 179.613 366.96C178.116 366.154 176.843 364.988 175.907 363.568L175.572 363.055C175.038 362.235 173.164 358.968 169.949 353.253C169.621 352.67 169.534 351.982 169.705 351.336C169.876 350.69 170.293 350.136 170.866 349.792C171.477 349.426 172.192 349.274 172.899 349.361C173.606 349.448 174.264 349.768 174.768 350.272L177.283 352.787M172.15 335.675L170.438 333.964ZM170.438 342.52H168.727ZM187.551 335.675L189.262 333.964ZM189.262 340.809H190.973Z" fill="white"/>
<path d="M192.684 350.22C192.684 349.54 192.955 348.887 193.436 348.405C193.917 347.924 194.57 347.653 195.251 347.653C195.932 347.653 196.585 347.924 197.066 348.405C197.548 348.887 197.818 349.54 197.818 350.22V357.921C197.818 360.644 196.736 363.255 194.811 365.181C192.885 367.106 190.274 368.188 187.551 368.188H184.128H184.484C182.784 368.189 181.11 367.766 179.613 366.96C178.116 366.154 176.843 364.988 175.907 363.568L175.572 363.055C175.038 362.235 173.164 358.968 169.949 353.253C169.621 352.67 169.534 351.982 169.705 351.336C169.876 350.69 170.293 350.136 170.866 349.792C171.477 349.426 172.192 349.274 172.899 349.361C173.606 349.448 174.264 349.768 174.768 350.272L177.283 352.787M172.15 335.675L170.438 333.964M170.438 342.52H168.727M187.551 335.675L189.262 333.964M189.262 340.809H190.973" stroke="black" stroke-width="2.32727" stroke-linecap="round" stroke-linejoin="round"/>
<defs>
<filter id="filter0_d_164_284" x="17.2099" y="190.772" width="188.998" height="49.2894" filterUnits="userSpaceOnUse" color-interpolation-filters="sRGB">
<feFlood flood-opacity="0" result="BackgroundImageFix"/>
<feColorMatrix in="SourceAlpha" type="matrix" values="0 0 0 0 0 0 0 0 0 0 0 0 0 0 0 0 0 0 127 0" result="hardAlpha"/>
<feMorphology radius="3.14613" operator="erode" in="SourceAlpha" result="effect1_dropShadow_164_284"/>
<feOffset dy="3.67048"/>
<feGaussianBlur stdDeviation="5.7679"/>
<feColorMatrix type="matrix" values="0 0 0 0 0.129412 0 0 0 0 0.482353 0 0 0 0 0.956863 0 0 0 0.34 0"/>
<feBlend mode="normal" in2="BackgroundImageFix" result="effect1_dropShadow_164_284"/>
<feBlend mode="normal" in="SourceGraphic" in2="effect1_dropShadow_164_284" result="shape"/>
</filter>
<filter id="filter1_d_164_284" x="17.2099" y="231.499" width="188.998" height="49.2894" filterUnits="userSpaceOnUse" color-interpolation-filters="sRGB">
<feFlood flood-opacity="0" result="BackgroundImageFix"/>
<feColorMatrix in="SourceAlpha" type="matrix" values="0 0 0 0 0 0 0 0 0 0 0 0 0 0 0 0 0 0 127 0" result="hardAlpha"/>
<feMorphology radius="3.14613" operator="erode" in="SourceAlpha" result="effect1_dropShadow_164_284"/>
<feOffset dy="3.67048"/>
<feGaussianBlur stdDeviation="5.7679"/>
<feColorMatrix type="matrix" values="0 0 0 0 0.129412 0 0 0 0 0.482353 0 0 0 0 0.956863 0 0 0 0.34 0"/>
<feBlend mode="normal" in2="BackgroundImageFix" result="effect1_dropShadow_164_284"/>
<feBlend mode="normal" in="SourceGraphic" in2="effect1_dropShadow_164_284" result="shape"/>
</filter>
<filter id="filter2_d_164_284" x="17.2099" y="272.226" width="188.998" height="49.2894" filterUnits="userSpaceOnUse" color-interpolation-filters="sRGB">
<feFlood flood-opacity="0" result="BackgroundImageFix"/>
<feColorMatrix in="SourceAlpha" type="matrix" values="0 0 0 0 0 0 0 0 0 0 0 0 0 0 0 0 0 0 127 0" result="hardAlpha"/>
<feMorphology radius="3.14613" operator="erode" in="SourceAlpha" result="effect1_dropShadow_164_284"/>
<feOffset dy="3.67048"/>
<feGaussianBlur stdDeviation="5.7679"/>
<feColorMatrix type="matrix" values="0 0 0 0 0.129412 0 0 0 0 0.482353 0 0 0 0 0.956863 0 0 0 0.34 0"/>
<feBlend mode="normal" in2="BackgroundImageFix" result="effect1_dropShadow_164_284"/>
<feBlend mode="normal" in="SourceGraphic" in2="effect1_dropShadow_164_284" result="shape"/>
</filter>
<filter id="filter3_d_164_284" x="17.2099" y="312.954" width="188.998" height="49.2894" filterUnits="userSpaceOnUse" color-interpolation-filters="sRGB">
<feFlood flood-opacity="0" result="BackgroundImageFix"/>
<feColorMatrix in="SourceAlpha" type="matrix" values="0 0 0 0 0 0 0 0 0 0 0 0 0 0 0 0 0 0 127 0" result="hardAlpha"/>
<feMorphology radius="3.14613" operator="erode" in="SourceAlpha" result="effect1_dropShadow_164_284"/>
<feOffset dy="3.67048"/>
<feGaussianBlur stdDeviation="5.7679"/>
<feColorMatrix type="matrix" values="0 0 0 0 0.129412 0 0 0 0 0.482353 0 0 0 0 0.956863 0 0 0 0.34 0"/>
<feBlend mode="normal" in2="BackgroundImageFix" result="effect1_dropShadow_164_284"/>
<feBlend mode="normal" in="SourceGraphic" in2="effect1_dropShadow_164_284" result="shape"/>
</filter>
</defs>
</svg>
