<svg width="252" height="278" viewBox="0 0 252 278" fill="none" xmlns="http://www.w3.org/2000/svg">
<rect x="0.159668" width="250.88" height="277.76" rx="12.8" fill="white"/>
<rect x="31.5199" y="35.2001" width="188.16" height="206.08" rx="5.76" stroke="#8BBAF9" stroke-width="1.28"/>
<path d="M80.6583 92.7875C79.6548 92.7875 78.7332 92.5519 77.8935 92.0809C77.0538 91.6099 76.3882 90.9596 75.8967 90.1302C75.4052 89.2905 75.1594 88.3433 75.1594 87.2886C75.1594 86.2441 75.4052 85.3071 75.8967 84.4777C76.3882 83.638 77.0538 82.9827 77.8935 82.5116C78.7332 82.0406 79.6548 81.8051 80.6583 81.8051C81.672 81.8051 82.5936 82.0406 83.4231 82.5116C84.2628 82.9827 84.9232 83.638 85.4045 84.4777C85.896 85.3071 86.1418 86.2441 86.1418 87.2886C86.1418 88.3433 85.896 89.2905 85.4045 90.1302C84.9232 90.9596 84.2628 91.6099 83.4231 92.0809C82.5834 92.5519 81.6618 92.7875 80.6583 92.7875ZM80.6583 90.8675C81.3034 90.8675 81.8717 90.7241 82.3632 90.4374C82.8548 90.1404 83.2388 89.7206 83.5152 89.1779C83.7917 88.6351 83.93 88.0054 83.93 87.2886C83.93 86.5718 83.7917 85.9471 83.5152 85.4147C83.2388 84.8719 82.8548 84.4572 82.3632 84.1705C81.8717 83.8838 81.3034 83.7404 80.6583 83.7404C80.0132 83.7404 79.4397 83.8838 78.938 84.1705C78.4464 84.4572 78.0624 84.8719 77.786 85.4147C77.5095 85.9471 77.3712 86.5718 77.3712 87.2886C77.3712 88.0054 77.5095 88.6351 77.786 89.1779C78.0624 89.7206 78.4464 90.1404 78.938 90.4374C79.4397 90.7241 80.0132 90.8675 80.6583 90.8675ZM95.7749 84.1705V92.6799H93.6092V91.6047C93.3327 91.9734 92.9692 92.2652 92.5186 92.4803C92.0783 92.6851 91.597 92.7875 91.0748 92.7875C90.4092 92.7875 89.8204 92.6492 89.3084 92.3727C88.7964 92.086 88.3919 91.6713 88.0949 91.1286C87.8082 90.5756 87.6648 89.9203 87.6648 89.1625V84.1705H89.8152V88.8553C89.8152 89.5311 89.9842 90.0534 90.3221 90.422C90.66 90.7804 91.1208 90.9596 91.7045 90.9596C92.2984 90.9596 92.7644 90.7804 93.1023 90.422C93.4402 90.0534 93.6092 89.5311 93.6092 88.8553V84.1705H95.7749ZM100.047 85.4915C100.324 85.0409 100.682 84.6876 101.122 84.4316C101.573 84.1756 102.085 84.0476 102.658 84.0476V86.3055H102.09C101.414 86.3055 100.902 86.4643 100.554 86.7817C100.216 87.0991 100.047 87.6521 100.047 88.4406V92.6799H97.8966V84.1705H100.047V85.4915ZM111.668 85.9369H110.178V92.6799H107.997V85.9369H107.029V84.1705H107.997V83.7404C107.997 82.6959 108.294 81.9279 108.888 81.4364C109.482 80.9449 110.378 80.7145 111.576 80.7452V82.5577C111.054 82.5475 110.69 82.6345 110.485 82.8188C110.281 83.0031 110.178 83.3359 110.178 83.8172V84.1705H111.668V85.9369ZM116.84 92.8182C116.021 92.8182 115.284 92.639 114.628 92.2806C113.973 91.9119 113.456 91.3948 113.077 90.7292C112.708 90.0636 112.524 89.2956 112.524 88.4252C112.524 87.5548 112.713 86.7868 113.092 86.1212C113.481 85.4556 114.009 84.9436 114.674 84.5852C115.34 84.2166 116.082 84.0323 116.902 84.0323C117.721 84.0323 118.463 84.2166 119.129 84.5852C119.794 84.9436 120.317 85.4556 120.696 86.1212C121.085 86.7868 121.279 87.5548 121.279 88.4252C121.279 89.2956 121.08 90.0636 120.68 90.7292C120.291 91.3948 119.759 91.9119 119.083 92.2806C118.417 92.639 117.67 92.8182 116.84 92.8182ZM116.84 90.9443C117.229 90.9443 117.593 90.8521 117.931 90.6678C118.279 90.4732 118.555 90.1865 118.76 89.8076C118.965 89.4287 119.067 88.9679 119.067 88.4252C119.067 87.6163 118.852 86.9967 118.422 86.5667C118.002 86.1263 117.485 85.9062 116.871 85.9062C116.257 85.9062 115.739 86.1263 115.32 86.5667C114.91 86.9967 114.705 87.6163 114.705 88.4252C114.705 89.2342 114.905 89.8588 115.304 90.2991C115.714 90.7292 116.226 90.9443 116.84 90.9443ZM130.89 84.1705V92.6799H128.724V91.6047C128.448 91.9734 128.084 92.2652 127.634 92.4803C127.193 92.6851 126.712 92.7875 126.19 92.7875C125.524 92.7875 124.935 92.6492 124.423 92.3727C123.911 92.086 123.507 91.6713 123.21 91.1286C122.923 90.5756 122.78 89.9203 122.78 89.1625V84.1705H124.93V88.8553C124.93 89.5311 125.099 90.0534 125.437 90.422C125.775 90.7804 126.236 90.9596 126.82 90.9596C127.413 90.9596 127.879 90.7804 128.217 90.422C128.555 90.0534 128.724 89.5311 128.724 88.8553V84.1705H130.89ZM137.727 84.0476C138.741 84.0476 139.56 84.3702 140.185 85.0153C140.809 85.6502 141.122 86.5411 141.122 87.6879V92.6799H138.971V87.9798C138.971 87.3039 138.802 86.7868 138.464 86.4284C138.127 86.0598 137.666 85.8755 137.082 85.8755C136.488 85.8755 136.017 86.0598 135.669 86.4284C135.331 86.7868 135.162 87.3039 135.162 87.9798V92.6799H133.012V84.1705H135.162V85.2303C135.449 84.8617 135.812 84.575 136.253 84.3702C136.703 84.1551 137.195 84.0476 137.727 84.0476ZM142.614 88.3945C142.614 87.5343 142.783 86.7715 143.121 86.1059C143.469 85.4403 143.94 84.9283 144.534 84.5699C145.128 84.2115 145.788 84.0323 146.515 84.0323C147.068 84.0323 147.595 84.1551 148.097 84.4009C148.599 84.6364 148.998 84.9539 149.295 85.3532V81.3135H151.476V92.6799H149.295V91.4204C149.029 91.8403 148.655 92.1782 148.174 92.4342C147.693 92.6902 147.135 92.8182 146.5 92.8182C145.783 92.8182 145.128 92.6339 144.534 92.2652C143.94 91.8966 143.469 91.3795 143.121 90.7139C142.783 90.038 142.614 89.2649 142.614 88.3945ZM149.311 88.4252C149.311 87.903 149.208 87.4575 149.003 87.0889C148.799 86.71 148.522 86.4233 148.174 86.2287C147.826 86.0239 147.452 85.9215 147.053 85.9215C146.653 85.9215 146.285 86.0188 145.947 86.2134C145.609 86.4079 145.332 86.6947 145.117 87.0735C144.913 87.4422 144.81 87.8825 144.81 88.3945C144.81 88.9065 144.913 89.3571 145.117 89.7462C145.332 90.1251 145.609 90.4169 145.947 90.6217C146.295 90.8265 146.664 90.9289 147.053 90.9289C147.452 90.9289 147.826 90.8316 148.174 90.6371C148.522 90.4323 148.799 90.1455 149.003 89.7769C149.208 89.398 149.311 88.9475 149.311 88.4252ZM161.487 88.2409C161.487 88.5481 161.467 88.8246 161.426 89.0703H155.205C155.256 89.6847 155.471 90.166 155.85 90.5142C156.229 90.8623 156.695 91.0364 157.248 91.0364C158.046 91.0364 158.615 90.6934 158.953 90.0073H161.272C161.026 90.8265 160.555 91.5023 159.859 92.0348C159.163 92.5571 158.308 92.8182 157.294 92.8182C156.475 92.8182 155.737 92.639 155.082 92.2806C154.437 91.9119 153.93 91.3948 153.561 90.7292C153.203 90.0636 153.024 89.2956 153.024 88.4252C153.024 87.5446 153.203 86.7715 153.561 86.1059C153.92 85.4403 154.421 84.9283 155.067 84.5699C155.712 84.2115 156.454 84.0323 157.294 84.0323C158.103 84.0323 158.825 84.2063 159.46 84.5545C160.105 84.9027 160.601 85.3993 160.949 86.0444C161.308 86.6793 161.487 87.4115 161.487 88.2409ZM159.26 87.6265C159.25 87.0735 159.05 86.6332 158.661 86.3055C158.272 85.9676 157.796 85.7987 157.232 85.7987C156.7 85.7987 156.249 85.9625 155.881 86.2902C155.522 86.6076 155.302 87.0531 155.22 87.6265H159.26ZM165.207 85.4915C165.484 85.0409 165.842 84.6876 166.282 84.4316C166.733 84.1756 167.245 84.0476 167.818 84.0476V86.3055H167.25C166.574 86.3055 166.062 86.4643 165.714 86.7817C165.376 87.0991 165.207 87.6521 165.207 88.4406V92.6799H163.057V84.1705H165.207V85.4915ZM172.523 92.8182C171.827 92.8182 171.202 92.6953 170.649 92.4495C170.096 92.1935 169.656 91.8505 169.328 91.4204C169.011 90.9903 168.837 90.5142 168.806 89.9919H170.972C171.013 90.3196 171.171 90.591 171.448 90.806C171.734 91.0211 172.088 91.1286 172.508 91.1286C172.917 91.1286 173.235 91.0467 173.46 90.8828C173.695 90.719 173.813 90.5091 173.813 90.2531C173.813 89.9766 173.67 89.7718 173.383 89.6387C173.107 89.4953 172.661 89.3417 172.047 89.1779C171.412 89.0243 170.89 88.8655 170.48 88.7017C170.081 88.5379 169.733 88.287 169.436 87.9491C169.149 87.6111 169.006 87.1555 169.006 86.582C169.006 86.111 169.139 85.6809 169.405 85.2918C169.681 84.9027 170.07 84.5955 170.572 84.3702C171.084 84.1449 171.683 84.0323 172.369 84.0323C173.383 84.0323 174.192 84.2883 174.796 84.8003C175.4 85.302 175.733 85.983 175.795 86.8431H173.736C173.706 86.5052 173.562 86.239 173.306 86.0444C173.061 85.8396 172.728 85.7372 172.308 85.7372C171.919 85.7372 171.617 85.8089 171.402 85.9523C171.197 86.0956 171.094 86.2953 171.094 86.5513C171.094 86.838 171.238 87.0582 171.525 87.2118C171.811 87.3551 172.257 87.5036 172.861 87.6572C173.475 87.8108 173.982 87.9695 174.382 88.1334C174.781 88.2972 175.124 88.5532 175.411 88.9014C175.708 89.2393 175.861 89.6899 175.871 90.2531C175.871 90.7446 175.733 91.1849 175.457 91.574C175.19 91.9631 174.801 92.2703 174.289 92.4956C173.788 92.7107 173.199 92.8182 172.523 92.8182ZM94.1356 111.959V122.68H91.9852V115.706L89.1129 122.68H87.4847L84.597 115.706V122.68H82.4466V111.959H84.8889L88.2988 119.93L91.7087 111.959H94.1356ZM95.7087 118.394C95.7087 117.534 95.8776 116.771 96.2156 116.106C96.5637 115.44 97.0296 114.928 97.6133 114.57C98.2072 114.211 98.8677 114.032 99.5948 114.032C100.23 114.032 100.783 114.16 101.254 114.416C101.735 114.672 102.119 114.995 102.406 115.384V114.17H104.571V122.68H102.406V121.436C102.129 121.835 101.745 122.168 101.254 122.434C100.772 122.69 100.214 122.818 99.5794 122.818C98.8626 122.818 98.2072 122.634 97.6133 122.265C97.0296 121.897 96.5637 121.379 96.2156 120.714C95.8776 120.038 95.7087 119.265 95.7087 118.394ZM102.406 118.425C102.406 117.903 102.303 117.458 102.098 117.089C101.894 116.71 101.617 116.423 101.269 116.229C100.921 116.024 100.547 115.922 100.148 115.922C99.7484 115.922 99.3797 116.019 99.0418 116.213C98.7039 116.408 98.4274 116.695 98.2124 117.074C98.0076 117.442 97.9052 117.882 97.9052 118.394C97.9052 118.906 98.0076 119.357 98.2124 119.746C98.4274 120.125 98.7039 120.417 99.0418 120.622C99.39 120.826 99.7586 120.929 100.148 120.929C100.547 120.929 100.921 120.832 101.269 120.637C101.617 120.432 101.894 120.146 102.098 119.777C102.303 119.398 102.406 118.947 102.406 118.425ZM111.372 122.68L109.621 120.038L108.069 122.68H105.765L108.546 118.41L105.735 114.17H108.162L109.897 116.797L111.464 114.17H113.768L110.972 118.41L113.799 122.68H111.372ZM117.317 120.422L115.52 124.738H114.137L115.136 120.422H117.317ZM124.677 113.694V116.382H128.287V118.087H124.677V120.929H128.747V122.68H122.527V111.943H128.747V113.694H124.677ZM133.958 122.818C133.262 122.818 132.637 122.695 132.084 122.45C131.531 122.194 131.091 121.85 130.763 121.42C130.446 120.99 130.272 120.514 130.241 119.992H132.407C132.448 120.32 132.606 120.591 132.883 120.806C133.169 121.021 133.523 121.129 133.943 121.129C134.352 121.129 134.67 121.047 134.895 120.883C135.13 120.719 135.248 120.509 135.248 120.253C135.248 119.977 135.105 119.772 134.818 119.639C134.542 119.495 134.096 119.342 133.482 119.178C132.847 119.024 132.325 118.866 131.915 118.702C131.516 118.538 131.168 118.287 130.871 117.949C130.584 117.611 130.441 117.155 130.441 116.582C130.441 116.111 130.574 115.681 130.84 115.292C131.116 114.903 131.505 114.595 132.007 114.37C132.519 114.145 133.118 114.032 133.804 114.032C134.818 114.032 135.627 114.288 136.231 114.8C136.835 115.302 137.168 115.983 137.23 116.843H135.171C135.141 116.505 134.997 116.239 134.741 116.044C134.496 115.84 134.163 115.737 133.743 115.737C133.354 115.737 133.052 115.809 132.837 115.952C132.632 116.096 132.529 116.295 132.529 116.551C132.529 116.838 132.673 117.058 132.96 117.212C133.246 117.355 133.692 117.504 134.296 117.657C134.91 117.811 135.417 117.97 135.817 118.133C136.216 118.297 136.559 118.553 136.846 118.901C137.143 119.239 137.296 119.69 137.306 120.253C137.306 120.745 137.168 121.185 136.892 121.574C136.625 121.963 136.236 122.27 135.724 122.496C135.223 122.711 134.634 122.818 133.958 122.818ZM141.575 115.937V120.053C141.575 120.34 141.642 120.55 141.775 120.683C141.918 120.806 142.154 120.867 142.482 120.867H143.48V122.68H142.128C140.316 122.68 139.41 121.799 139.41 120.038V115.937H138.396V114.17H139.41V112.066H141.575V114.17H143.48V115.937H141.575ZM149.819 114.048C150.464 114.048 151.038 114.191 151.539 114.478C152.041 114.754 152.43 115.169 152.707 115.722C152.993 116.265 153.137 116.92 153.137 117.688V122.68H150.986V117.98C150.986 117.304 150.817 116.787 150.479 116.428C150.142 116.06 149.681 115.875 149.097 115.875C148.503 115.875 148.032 116.06 147.684 116.428C147.346 116.787 147.177 117.304 147.177 117.98V122.68H145.027V111.314H147.177V115.23C147.454 114.862 147.822 114.575 148.283 114.37C148.744 114.155 149.256 114.048 149.819 114.048ZM163.092 118.241C163.092 118.548 163.072 118.825 163.031 119.07H156.81C156.861 119.685 157.076 120.166 157.455 120.514C157.834 120.862 158.3 121.036 158.853 121.036C159.651 121.036 160.22 120.693 160.558 120.007H162.877C162.631 120.826 162.16 121.502 161.464 122.035C160.768 122.557 159.913 122.818 158.899 122.818C158.08 122.818 157.342 122.639 156.687 122.281C156.042 121.912 155.535 121.395 155.166 120.729C154.808 120.064 154.629 119.296 154.629 118.425C154.629 117.545 154.808 116.771 155.166 116.106C155.525 115.44 156.026 114.928 156.672 114.57C157.317 114.211 158.059 114.032 158.899 114.032C159.708 114.032 160.43 114.206 161.065 114.554C161.71 114.903 162.206 115.399 162.554 116.044C162.913 116.679 163.092 117.411 163.092 118.241ZM160.865 117.626C160.855 117.074 160.655 116.633 160.266 116.306C159.877 115.968 159.401 115.799 158.837 115.799C158.305 115.799 157.854 115.962 157.486 116.29C157.127 116.608 156.907 117.053 156.825 117.626H160.865ZM166.812 115.491C167.089 115.041 167.447 114.688 167.887 114.432C168.338 114.176 168.85 114.048 169.423 114.048V116.306H168.855C168.179 116.306 167.667 116.464 167.319 116.782C166.981 117.099 166.812 117.652 166.812 118.441V122.68H164.662V114.17H166.812V115.491ZM94.8387 149.394C94.8387 148.534 95.0076 147.771 95.3456 147.106C95.6937 146.44 96.1596 145.928 96.7433 145.57C97.3372 145.211 97.9977 145.032 98.7248 145.032C99.3596 145.032 99.9126 145.16 100.384 145.416C100.865 145.672 101.249 145.995 101.536 146.384V145.17H103.701V153.68H101.536V152.436C101.259 152.835 100.875 153.168 100.384 153.434C99.9024 153.69 99.3443 153.818 98.7094 153.818C97.9926 153.818 97.3372 153.634 96.7433 153.265C96.1596 152.897 95.6937 152.379 95.3456 151.714C95.0076 151.038 94.8387 150.265 94.8387 149.394ZM101.536 149.425C101.536 148.903 101.433 148.458 101.228 148.089C101.024 147.71 100.747 147.423 100.399 147.229C100.051 147.024 99.6771 146.922 99.2777 146.922C98.8784 146.922 98.5097 147.019 98.1718 147.213C97.8339 147.408 97.5574 147.695 97.3424 148.074C97.1376 148.442 97.0352 148.882 97.0352 149.394C97.0352 149.906 97.1376 150.357 97.3424 150.746C97.5574 151.125 97.8339 151.417 98.1718 151.622C98.52 151.826 98.8886 151.929 99.2777 151.929C99.6771 151.929 100.051 151.832 100.399 151.637C100.747 151.432 101.024 151.146 101.228 150.777C101.433 150.398 101.536 149.947 101.536 149.425ZM110.517 145.048C111.531 145.048 112.35 145.37 112.975 146.015C113.599 146.65 113.912 147.541 113.912 148.688V153.68H111.761V148.98C111.761 148.304 111.592 147.787 111.254 147.428C110.917 147.06 110.456 146.875 109.872 146.875C109.278 146.875 108.807 147.06 108.459 147.428C108.121 147.787 107.952 148.304 107.952 148.98V153.68H105.802V145.17H107.952V146.23C108.239 145.862 108.602 145.575 109.043 145.37C109.493 145.155 109.985 145.048 110.517 145.048ZM115.404 149.394C115.404 148.534 115.573 147.771 115.911 147.106C116.259 146.44 116.73 145.928 117.324 145.57C117.918 145.211 118.578 145.032 119.305 145.032C119.858 145.032 120.385 145.155 120.887 145.401C121.389 145.636 121.788 145.954 122.085 146.353V142.314H124.266V153.68H122.085V152.42C121.819 152.84 121.445 153.178 120.964 153.434C120.483 153.69 119.925 153.818 119.29 153.818C118.573 153.818 117.918 153.634 117.324 153.265C116.73 152.897 116.259 152.379 115.911 151.714C115.573 151.038 115.404 150.265 115.404 149.394ZM122.101 149.425C122.101 148.903 121.998 148.458 121.793 148.089C121.589 147.71 121.312 147.423 120.964 147.229C120.616 147.024 120.242 146.922 119.843 146.922C119.443 146.922 119.075 147.019 118.737 147.213C118.399 147.408 118.122 147.695 117.907 148.074C117.703 148.442 117.6 148.882 117.6 149.394C117.6 149.906 117.703 150.357 117.907 150.746C118.122 151.125 118.399 151.417 118.737 151.622C119.085 151.826 119.454 151.929 119.843 151.929C120.242 151.929 120.616 151.832 120.964 151.637C121.312 151.432 121.589 151.146 121.793 150.777C121.998 150.398 122.101 149.947 122.101 149.425ZM132.177 144.694V147.382H135.787V149.087H132.177V151.929H136.247V153.68H130.027V142.943H136.247V144.694H132.177ZM140.352 146.491C140.629 146.041 140.987 145.688 141.427 145.432C141.878 145.176 142.39 145.048 142.963 145.048V147.306H142.395C141.719 147.306 141.207 147.464 140.859 147.782C140.521 148.099 140.352 148.652 140.352 149.441V153.68H138.202V145.17H140.352V146.491ZM145.502 144.157C145.123 144.157 144.806 144.039 144.55 143.803C144.304 143.558 144.181 143.256 144.181 142.897C144.181 142.539 144.304 142.242 144.55 142.006C144.806 141.761 145.123 141.638 145.502 141.638C145.881 141.638 146.193 141.761 146.439 142.006C146.695 142.242 146.823 142.539 146.823 142.897C146.823 143.256 146.695 143.558 146.439 143.803C146.193 144.039 145.881 144.157 145.502 144.157ZM146.562 145.17V153.68H144.412V145.17H146.562ZM148.134 149.425C148.134 148.545 148.313 147.777 148.671 147.121C149.03 146.456 149.526 145.944 150.161 145.585C150.796 145.217 151.523 145.032 152.342 145.032C153.397 145.032 154.267 145.298 154.954 145.831C155.65 146.353 156.116 147.09 156.351 148.043H154.032C153.909 147.674 153.699 147.387 153.402 147.183C153.115 146.968 152.757 146.86 152.327 146.86C151.713 146.86 151.226 147.085 150.868 147.536C150.509 147.976 150.33 148.606 150.33 149.425C150.33 150.234 150.509 150.864 150.868 151.314C151.226 151.755 151.713 151.975 152.327 151.975C153.197 151.975 153.766 151.586 154.032 150.808H156.351C156.116 151.729 155.65 152.461 154.954 153.004C154.257 153.547 153.387 153.818 152.342 153.818C151.523 153.818 150.796 153.639 150.161 153.281C149.526 152.912 149.03 152.4 148.671 151.745C148.313 151.079 148.134 150.306 148.134 149.425Z" fill="black"/>
<g clip-path="url(#clip0_164_304)">
<path d="M120.013 186.841L127.164 193.991L134.314 201.141L122.066 206.239L109.818 211.336L114.916 199.089L120.013 186.841Z" fill="#F1B31C"/>
<path d="M127.874 195.271L119.735 187.118L114.444 199.56L109.152 212.001L127.874 195.271Z" fill="#FCEA2B"/>
<path d="M113.781 201.122L120.074 207.415L116.927 208.696L112.492 204.26L113.781 201.122Z" fill="#EA5A47"/>
<path d="M114.986 206.79L116.927 208.696L120.073 207.415L117.342 204.684L114.986 206.79Z" fill="#D22F27"/>
<path d="M116.956 193.657L120.765 197.466L127.42 204.122L123.852 205.751L119.203 201.102L115.445 197.345L116.956 193.657Z" fill="#EA5A47"/>
<path d="M120.216 202.115L123.852 205.751L127.42 204.122L122.961 199.663L120.216 202.115Z" fill="#D22F27"/>
<path d="M122.354 184.706C122.982 184.706 123.492 184.204 123.492 183.585C123.492 182.966 122.982 182.464 122.354 182.464C121.726 182.464 121.216 182.966 121.216 183.585C121.216 184.204 121.726 184.706 122.354 184.706Z" fill="#8967AA"/>
<path d="M139.42 186.982C140.049 186.982 140.558 186.48 140.558 185.861C140.558 185.241 140.049 184.739 139.42 184.739C138.792 184.739 138.283 185.241 138.283 185.861C138.283 186.48 138.792 186.982 139.42 186.982Z" fill="#F1B31C"/>
<path d="M137.714 198.928C138.342 198.928 138.852 198.426 138.852 197.807C138.852 197.188 138.342 196.686 137.714 196.686C137.086 196.686 136.576 197.188 136.576 197.807C136.576 198.426 137.086 198.928 137.714 198.928Z" fill="#D22F27"/>
<path d="M136.308 198.412L136.403 198.509L123.962 203.8L111.52 209.091L116.811 196.649L122.102 184.207" stroke="black" stroke-width="2.56" stroke-miterlimit="10" stroke-linecap="round" stroke-linejoin="round"/>
<path d="M122.164 184.269L129.253 191.358L136.308 198.412M122.102 184.207L122.164 184.269M133.934 176.64C134.067 176.895 134.163 177.176 134.213 177.478C134.469 179.041 133.389 180.558 131.801 180.867" stroke="black" stroke-width="2.56" stroke-miterlimit="10" stroke-linecap="round" stroke-linejoin="round"/>
<path d="M131.911 180.855C131.615 180.877 131.325 180.947 131.052 181.062C129.59 181.672 128.874 183.39 129.453 184.902M142.64 187.648C142.582 187.938 142.477 188.218 142.331 188.475C141.55 189.853 139.758 190.358 138.328 189.601" stroke="black" stroke-width="2.56" stroke-miterlimit="10" stroke-linecap="round" stroke-linejoin="round"/>
<path d="M138.418 189.661C138.174 189.494 137.905 189.366 137.62 189.284C136.1 188.841 134.463 189.732 133.967 191.271" stroke="black" stroke-width="2.56" stroke-miterlimit="10" stroke-linecap="round" stroke-linejoin="round"/>
</g>
<defs>
<clipPath id="clip0_164_304">
<rect width="40.96" height="40.96" fill="white" transform="translate(105.12 175.36)"/>
</clipPath>
</defs>
</svg>
